<svg width="16" height="16" viewBox="0 0 16 16" fill="none" xmlns="http://www.w3.org/2000/svg">
<path d="M8 0.5C3.85786 0.5 0.5 3.85786 0.5 8C0.5 12.1421 3.85786 15.5 8 15.5C12.1421 15.5 15.5 12.1421 15.5 8C15.5 3.85786 12.1421 0.5 8 0.5ZM6.92857 3.71429C6.92857 3.125 7.41071 2.64286 8 2.64286C8.58929 2.64286 9.07143 3.125 9.07143 3.71429V8.53571C9.07143 9.125 8.58929 9.60714 8 9.60714C7.41071 9.60714 6.92857 9.125 6.92857 8.53571V3.71429ZM8 13.3571C7.26033 13.3571 6.66071 12.7575 6.66071 12.0179C6.66071 11.2782 7.26033 10.6786 8 10.6786C8.73967 10.6786 9.33929 11.2782 9.33929 12.0179C9.33929 12.7575 8.73967 13.3571 8 13.3571Z" fill="url(#paint0_linear_408_6710)"/>
<defs>
<linearGradient id="paint0_linear_408_6710" x1="8" y1="-1.375" x2="8" y2="17.375" gradientUnits="userSpaceOnUse">
<stop stop-color="#0075FF"/>
<stop offset="1" stop-color="#00B2FF"/>
</linearGradient>
</defs>
</svg>
