<svg width="18" height="18" viewBox="0 0 18 18" fill="none" xmlns="http://www.w3.org/2000/svg">
<path d="M0 0H18V18H0V0Z" fill="#F5FAFF"/>
<path d="M13.125 12.4904V12.3635V12.1731C12.9346 10.3962 11.1577 9 9 9C6.84231 9 5.06538 10.3962 4.875 12.1096V12.4904C4.875 13.1885 5.44615 13.7596 6.14423 13.7596H11.8558C12.5538 13.7596 13.125 13.1885 13.125 12.4904ZM9 17.25C4.43077 17.25 0.75 13.5692 0.75 9C0.75 4.43077 4.43077 0.75 9 0.75C13.5692 0.75 17.25 4.43077 17.25 9C17.25 13.5692 13.5692 17.25 9 17.25ZM9 8.30192C10.5231 8.30192 11.7288 7.09615 11.7288 5.57308C11.7288 4.05 10.5231 2.78077 9 2.78077C7.47692 2.78077 6.27115 4.05 6.27115 5.57308C6.27115 7.09615 7.47692 8.30192 9 8.30192Z" fill="#0075FF"/>
</svg>
