<svg width="16" height="16" viewBox="0 0 16 16" fill="none" xmlns="http://www.w3.org/2000/svg">
<rect width="16" height="16" rx="2" fill="#0283EF"/>
<path d="M13.177 3.66021C13.1781 3.54815 13.1376 3.43795 13.0642 3.35324C12.9857 3.26267 12.8729 3.20544 12.7535 3.19556C12.7518 3.19537 12.7501 3.19522 12.7485 3.19505L10.0721 3.00122C9.81779 2.98284 9.59645 3.17414 9.578 3.4286C9.55955 3.68311 9.75092 3.90434 10.0054 3.92279L11.6714 4.04347L9.69158 6.01578C8.98111 5.37474 8.04005 4.98448 7.00779 4.98448C4.79432 4.98448 3 6.77881 3 8.99223C3 11.2057 4.79433 13 7.00779 13C9.22119 13 11.0155 11.2057 11.0155 8.99223C11.0155 8.14447 10.7523 7.35827 10.3032 6.71075L12.168 4.85298L12.0629 6.35179C12.045 6.6063 12.2369 6.8271 12.4914 6.84496C12.5024 6.84569 12.5134 6.8461 12.5243 6.8461C12.7647 6.8461 12.9675 6.65994 12.9846 6.41642L13.176 3.68819C13.1767 3.67889 13.1769 3.6695 13.177 3.66021C13.1771 3.65681 13.177 3.66179 13.177 3.66021ZM9.8496 10.1923C9.6943 10.5594 9.47181 10.8893 9.18831 11.1728C8.90481 11.4563 8.57496 11.6788 8.20783 11.8341C7.82823 11.9946 7.42449 12.076 7.00773 12.076C6.59101 12.076 6.1873 11.9946 5.8077 11.8341C5.44055 11.6788 5.1107 11.4563 4.82719 11.1728C4.54365 10.8893 4.32117 10.5594 4.16591 10.1923C4.00535 9.81272 3.92397 9.40891 3.92397 8.99223C3.92397 8.57553 4.00535 8.17179 4.16591 7.79219C4.32117 7.42505 4.54365 7.09519 4.82719 6.81165C5.1107 6.52814 5.44055 6.30566 5.8077 6.15041C6.1873 5.98985 6.59101 5.90846 7.00773 5.90846C7.42449 5.90846 7.82823 5.98984 8.20783 6.15041C8.57496 6.30566 8.90481 6.52815 9.18831 6.81165C9.47181 7.09519 9.69428 7.42505 9.8496 7.79219C10.0102 8.1718 10.0915 8.57553 10.0915 8.99223C10.0915 9.40891 10.0102 9.81274 9.8496 10.1923Z" fill="white"/>
<path d="M13.177 3.66021C13.1781 3.54815 13.1376 3.43795 13.0642 3.35324C12.9857 3.26267 12.8729 3.20544 12.7535 3.19556C12.7518 3.19537 12.7501 3.19522 12.7485 3.19505L10.0721 3.00122C9.81779 2.98284 9.59645 3.17414 9.578 3.4286C9.55955 3.68311 9.75092 3.90434 10.0054 3.92279L11.6714 4.04347L9.69158 6.01578C8.98111 5.37474 8.04005 4.98448 7.00779 4.98448C4.79432 4.98448 3 6.77881 3 8.99223C3 11.2057 4.79433 13 7.00779 13C9.22119 13 11.0155 11.2057 11.0155 8.99223C11.0155 8.14447 10.7523 7.35827 10.3032 6.71075L12.168 4.85298L12.0629 6.35179C12.045 6.6063 12.2369 6.8271 12.4914 6.84497C12.5024 6.84569 12.5134 6.8461 12.5243 6.8461C12.7647 6.8461 12.9675 6.65994 12.9846 6.41642L13.176 3.68819C13.1767 3.67889 13.1769 3.6695 13.177 3.66021ZM13.177 3.66021C13.1771 3.65681 13.177 3.66179 13.177 3.66021ZM9.8496 10.1923C9.6943 10.5594 9.47181 10.8893 9.18831 11.1728C8.90481 11.4563 8.57496 11.6788 8.20783 11.8341C7.82823 11.9946 7.42449 12.076 7.00773 12.076C6.59101 12.076 6.1873 11.9946 5.8077 11.8341C5.44055 11.6788 5.1107 11.4563 4.82719 11.1728C4.54365 10.8893 4.32117 10.5594 4.16591 10.1923C4.00535 9.81272 3.92397 9.40891 3.92397 8.99223C3.92397 8.57553 4.00535 8.17179 4.16591 7.79219C4.32117 7.42505 4.54365 7.09519 4.82719 6.81165C5.1107 6.52814 5.44055 6.30566 5.8077 6.15041C6.1873 5.98985 6.59101 5.90846 7.00773 5.90846C7.42449 5.90846 7.82823 5.98984 8.20783 6.15041C8.57496 6.30566 8.90481 6.52815 9.18831 6.81165C9.47181 7.09519 9.69428 7.42505 9.8496 7.79219C10.0102 8.1718 10.0915 8.57553 10.0915 8.99223C10.0915 9.40891 10.0102 9.81274 9.8496 10.1923Z" stroke="white" stroke-width="0.3"/>
</svg>
