<svg width="16" height="16" viewBox="0 0 16 16" fill="none" xmlns="http://www.w3.org/2000/svg">
<path d="M2 13.95C1.69624 13.95 1.45 14.1962 1.45 14.5C1.45 14.8038 1.69624 15.05 2 15.05V13.95ZM14 15.05C14.3038 15.05 14.55 14.8038 14.55 14.5C14.55 14.1962 14.3038 13.95 14 13.95V15.05ZM2 15.05H14V13.95H2V15.05Z" fill="#0075FF"/>
<path d="M4.18182 11.8V12.35H4.40802L4.56877 12.1909L4.18182 11.8ZM2 9.64L1.61305 9.24914C1.50871 9.35244 1.45 9.49317 1.45 9.64H2ZM11.079 1.34825L11.466 0.957397L11.079 1.34825ZM10.3755 1.34825L9.98855 0.957396L10.3755 1.34825ZM2.1 12.35H4.18182V11.25H2.1V12.35ZM4.56877 12.1909L12.9371 3.90618L12.1632 3.12447L3.79487 11.4091L4.56877 12.1909ZM12.9371 2.41382L11.466 0.957397L10.6921 1.73911L12.1632 3.19553L12.9371 2.41382ZM9.98855 0.957396L1.61305 9.24914L2.38695 10.0309L10.7625 1.73911L9.98855 0.957396ZM1.45 9.64V11.7H2.55V9.64H1.45ZM11.466 0.957397C11.0568 0.552308 10.3977 0.552308 9.98855 0.957396L10.7625 1.73911C10.743 1.7584 10.7116 1.7584 10.6921 1.73911L11.466 0.957397ZM12.9371 3.90618C13.3522 3.4953 13.3522 2.8247 12.9371 2.41382L12.1632 3.19553C12.1435 3.17597 12.1435 3.14403 12.1632 3.12447L12.9371 3.90618ZM2.1 11.25C2.34853 11.25 2.55 11.4515 2.55 11.7H1.45C1.45 12.059 1.74102 12.35 2.1 12.35V11.25Z" fill="#0075FF"/>
<path d="M9.09094 2.62L11.2728 4.78" stroke="#0075FF" stroke-width="1.1"/>
</svg>
