<svg width="16" height="16" viewBox="0 0 16 16" fill="none" xmlns="http://www.w3.org/2000/svg">
<rect width="16" height="16" rx="2" fill="#FF7B35"/>
<path d="M11.5751 11.2058L12.6432 10.1376C12.8094 9.97152 12.8094 9.70239 12.6432 9.53626C12.4771 9.37014 12.208 9.37014 12.0419 9.53626L10.9737 10.6045L9.90548 9.53626C9.88748 9.51826 9.86807 9.50258 9.8479 9.48848C10.4532 8.79964 10.8208 7.8971 10.8208 6.91021C10.8208 4.75431 9.06653 3 6.91021 3C4.75431 3 3 4.75431 3 6.91021C3 9.06654 4.75429 10.8208 6.91021 10.8208C7.78143 10.8208 8.58694 10.5344 9.2377 10.0508C9.25576 10.0817 9.27757 10.1111 9.3041 10.1376L10.3723 11.2058L9.3041 12.274C9.13798 12.4401 9.13798 12.7093 9.3041 12.8754C9.38716 12.9585 9.49598 13 9.60479 13C9.7136 13 9.82241 12.9585 9.90547 12.8754L10.9737 11.8072L12.0419 12.8754C12.1249 12.9585 12.2337 13 12.3425 13C12.4514 13 12.5602 12.9585 12.6432 12.8754C12.8093 12.7093 12.8093 12.4401 12.6432 12.274L11.5751 11.2058ZM6.91021 9.97026C5.22319 9.97026 3.85057 8.59763 3.85057 6.9102C3.85057 5.22318 5.22319 3.85056 6.91021 3.85056C8.59764 3.85056 9.97027 5.22318 9.97027 6.9102C9.97027 8.59764 8.59765 9.97026 6.91021 9.97026Z" fill="white" stroke="white" stroke-width="0.3"/>
</svg>
