<svg width="40" height="40" viewBox="0 0 40 40" fill="none" xmlns="http://www.w3.org/2000/svg">
<mask id="mask0_115_22452" style="mask-type:alpha" maskUnits="userSpaceOnUse" x="0" y="0" width="40" height="40">
<circle cx="20" cy="20" r="20" fill="#C4C4C4"/>
</mask>
<g mask="url(#mask0_115_22452)">
<rect width="40" height="40" fill="#EDF6FF"/>
<mask id="mask1_115_22452" style="mask-type:alpha" maskUnits="userSpaceOnUse" x="0" y="0" width="40" height="40">
<rect width="40" height="40" fill="white"/>
</mask>
<g mask="url(#mask1_115_22452)">
<path fill-rule="evenodd" clip-rule="evenodd" d="M21.957 34.2777L19.8771 37.4769L17.8303 34.1675L16.9373 27.301L22.7869 27.4718L21.957 34.2777Z" fill="#FFBBBA"/>
<mask id="mask2_115_22452" style="mask-type:alpha" maskUnits="userSpaceOnUse" x="16" y="26" width="7" height="5">
<path fill-rule="evenodd" clip-rule="evenodd" d="M22.4772 30.0209L22.9544 26.3916L16.7993 26.4354L17.3145 30.0966C17.3145 30.0966 18.6773 30.6064 20.0001 30.6064C21.3229 30.6064 22.4772 30.0209 22.4772 30.0209Z" fill="white"/>
</mask>
<g mask="url(#mask2_115_22452)">
<path fill-rule="evenodd" clip-rule="evenodd" d="M11.6531 19.6509V14.9471C11.6531 9.00652 15.284 5.7229 19.7218 5.7229C24.1597 5.7229 27.7906 9.00652 27.7906 14.9471V19.6509C27.7906 25.5915 24.3569 29.2872 19.9191 29.2872C15.4813 29.2872 11.6531 25.5915 11.6531 19.6509Z" fill="#F9B3B2"/>
</g>
<path fill-rule="evenodd" clip-rule="evenodd" d="M27.1976 22.5393C26.5891 22.5393 26.0913 21.9362 26.0913 21.3347V19.5768C26.0913 18.9754 26.5891 18.3723 27.1976 18.3723H27.3145C28.2375 18.3503 28.913 19.1359 28.8732 20.4558C28.8732 21.745 28.2378 22.5393 27.3145 22.5393H27.1976Z" fill="#FFBBBA"/>
<path fill-rule="evenodd" clip-rule="evenodd" d="M13.0427 22.5391H13.1597C13.7681 22.5391 14.2659 21.936 14.2659 21.3345V19.5766C14.2659 18.9752 13.7681 18.3721 13.1597 18.3721H13.0427C12.313 18.3721 11.4841 19.1664 11.4841 20.4556C11.4841 21.7448 12.1195 22.5391 13.0427 22.5391Z" fill="#FFBBBA"/>
<path fill-rule="evenodd" clip-rule="evenodd" d="M20.1453 28.196C16.1811 28.196 12.9377 25.0886 12.9377 21.2906V18.2833C12.9377 14.4853 16.1811 12.386 20.1453 12.386C24.1095 12.386 27.353 14.4853 27.353 18.2833V21.2906C27.353 25.0886 24.1095 28.196 20.1453 28.196Z" fill="#FFBBBA"/>
<path fill-rule="evenodd" clip-rule="evenodd" d="M13.2935 19.9365V16.9293C13.2935 13.1312 16.4373 9.92114 20.2798 9.92114C24.1223 9.92114 27.3352 13.1312 27.3352 16.9293L27.237 19.9365C27.237 23.7345 24.1223 26.842 20.2798 26.842C16.4373 26.842 13.2935 23.7345 13.2935 19.9365Z" fill="#FFD6D6"/>
<path fill-rule="evenodd" clip-rule="evenodd" d="M21.2623 6.40015C18.7837 6.40015 18.2592 7.15919 16.1053 7.04193C15.7166 7.02079 15.3561 6.82595 15.1126 6.52974C14.4914 6.90663 13.7047 8.00818 14.276 8.88712C10.764 10.9492 11.6444 18.2839 13.295 19.0803V17.1484C13.295 14.2999 15.107 12.1524 17.6123 11.0715C18.047 11.3313 17.8722 12.3557 17.8722 12.3557C19.3081 12.3557 22.2425 10.6278 23.469 11.2755C25.7315 12.4702 27.3112 14.4663 27.3112 17.1484L27.2654 18.9426C29.773 16.8737 30.0935 9.02382 25.5515 8.80688C25.3517 7.35714 23.9782 6.40015 21.2623 6.40015Z" fill="#283246"/>
<path fill-rule="evenodd" clip-rule="evenodd" d="M18.1664 9.56934C14.9448 9.85937 13.4572 13.314 13.4572 15.2333C13.4572 15.2333 13.4407 15.6542 13.4686 15.6738C13.9832 13.5938 15.5777 11.9424 17.6064 11.0671C18.0411 11.3269 17.903 12.3281 17.903 12.3281C19.0881 12.3281 21.2346 11.1562 22.6585 11.109C21.0032 10.8641 19.3245 11.0196 18.6034 10.8344C18.2747 10.75 18.0415 10.1926 18.1664 9.56934Z" fill="#1C2230"/>
<path fill-rule="evenodd" clip-rule="evenodd" d="M27.3101 17.1859L27.2687 18.9383C28.3935 16.5109 28.4765 12.9527 23.6044 11.3445C25.7309 12.4691 27.3412 14.5039 27.3101 17.1859Z" fill="#1C2230"/>
<path fill-rule="evenodd" clip-rule="evenodd" d="M17.137 30.271L20.2943 37.0663L20.2505 39.9999H5.03154C5.03154 39.9999 4.92853 35.4235 7.73192 33.1064C10.5353 30.7893 17.137 30.271 17.137 30.271Z" fill="white"/>
<mask id="mask3_115_22452" style="mask-type:alpha" maskUnits="userSpaceOnUse" x="5" y="30" width="16" height="10">
<path fill-rule="evenodd" clip-rule="evenodd" d="M17.137 30.271L20.2943 37.0663L20.2505 39.9999H5.03154C5.03154 39.9999 4.92853 35.4235 7.73192 33.1064C10.5353 30.7893 17.137 30.271 17.137 30.271Z" fill="white"/>
</mask>
<g mask="url(#mask3_115_22452)">
<path d="M5.46882 27.884V42.284" stroke="#5F7CFF" stroke-width="2.2"/>
<path d="M6.66847 27.884V42.284" stroke="#C9D6FF"/>
<path d="M7.8686 27.884V42.284" stroke="#5F7CFF" stroke-width="2.2"/>
<path d="M9.06849 27.884V42.284" stroke="#C9D6FF"/>
<path d="M10.2688 27.884V42.284" stroke="#5F7CFF" stroke-width="2.2"/>
<path d="M11.4685 27.884V42.284" stroke="#C9D6FF"/>
<path d="M12.6688 27.884V42.284" stroke="#5F7CFF" stroke-width="2.2"/>
<path d="M13.8687 27.884V42.284" stroke="#C9D6FF"/>
<path d="M15.0688 27.884V42.284" stroke="#5F7CFF" stroke-width="2.2"/>
<path d="M16.2687 27.884V42.284" stroke="#C9D6FF"/>
<path d="M17.4688 27.884V42.284" stroke="#5F7CFF" stroke-width="2.2"/>
<path d="M18.6687 27.884V42.284" stroke="#C9D6FF"/>
</g>
<path fill-rule="evenodd" clip-rule="evenodd" d="M17.0419 28.4607C17.0419 28.4607 15.9946 29.0834 15.1356 29.7373C14.2766 30.3912 13.6362 31.1374 13.6362 31.1374L16.6386 35.1609L18.6224 33.2896L17.0419 28.4607Z" fill="white"/>
<mask id="mask4_115_22452" style="mask-type:alpha" maskUnits="userSpaceOnUse" x="13" y="28" width="6" height="8">
<path fill-rule="evenodd" clip-rule="evenodd" d="M17.0419 28.4607C17.0419 28.4607 15.9946 29.0834 15.1356 29.7373C14.2766 30.3912 13.6362 31.1374 13.6362 31.1374L16.6386 35.1609L18.6224 33.2896L17.0419 28.4607Z" fill="white"/>
</mask>
<g mask="url(#mask4_115_22452)">
<g opacity="0.9">
<path d="M7.73803 28.2428L12.8985 41.6864" stroke="#7B92F8" stroke-width="2.2"/>
<path opacity="0.200753" d="M8.85857 27.8129L14.0191 41.2564" stroke="#7B92F8"/>
<path d="M9.97881 27.3827L15.1393 40.8263" stroke="#7B92F8" stroke-width="2.2"/>
<path opacity="0.200753" d="M11.0987 26.9528L16.2592 40.3963" stroke="#7B92F8"/>
<path d="M12.4093 26.6137L17.5698 40.0572" stroke="#8EA2FF" stroke-width="2.2"/>
<path opacity="0.3" d="M13.5712 26.0619L18.7317 39.5055" stroke="#7B92F8"/>
<path d="M14.7958 25.5863L19.9563 39.0299" stroke="#8EA2FF" stroke-width="2.2"/>
<path opacity="0.240281" d="M16.2467 25.2326L21.4072 38.6761" stroke="#7B92F8"/>
</g>
</g>
<path fill-rule="evenodd" clip-rule="evenodd" d="M18.4631 32.7236L15.5176 34.7474L20.2832 38.8438L20.2163 36.6011L18.4631 32.7236Z" fill="white"/>
<mask id="mask5_115_22452" style="mask-type:alpha" maskUnits="userSpaceOnUse" x="15" y="32" width="6" height="7">
<path fill-rule="evenodd" clip-rule="evenodd" d="M18.4631 32.7236L15.5176 34.7474L20.2832 38.8438L20.2163 36.6011L18.4631 32.7236Z" fill="white"/>
</mask>
<g mask="url(#mask5_115_22452)">
<g opacity="0.9">
<path d="M7.32551 36.9007L17.857 46.7214" stroke="#7B92F8" stroke-width="2.2"/>
<path opacity="0.200753" d="M8.14436 36.023L18.6759 45.8438" stroke="#7B92F8"/>
<path d="M8.96297 35.1455L19.4945 44.9663" stroke="#7B92F8" stroke-width="2.2"/>
<path opacity="0.200753" d="M9.78114 34.2676L20.3126 44.0884" stroke="#7B92F8"/>
<path d="M10.5997 33.3904L21.1312 43.2112" stroke="#7B92F8" stroke-width="2.2"/>
<path opacity="0.200753" d="M11.4179 32.5125L21.9494 42.3333" stroke="#7B92F8"/>
<path d="M12.3077 31.6278L22.8392 41.4485" stroke="#8EA2FF" stroke-width="2.2"/>
<path opacity="0.3" d="M13.1293 30.7208L23.6607 40.5415" stroke="#7B92F8"/>
<path d="M14.1091 29.8372L24.6405 39.658" stroke="#8EA2FF" stroke-width="2.2"/>
<path opacity="0.200753" d="M14.6915 29.002L25.223 38.8228" stroke="#7B92F8"/>
<path d="M15.5097 28.1245L26.0412 37.9453" stroke="#7B92F8" stroke-width="2.2"/>
<path opacity="0.200753" d="M16.3278 27.2469L26.8593 37.0676" stroke="#7B92F8"/>
</g>
</g>
<path fill-rule="evenodd" clip-rule="evenodd" d="M22.5561 30.4099L19.3346 37.0666V40.0419L34.6616 40.1388C34.6616 40.1388 34.7646 35.5624 31.9612 33.2453C29.1578 30.9282 22.5561 30.4099 22.5561 30.4099Z" fill="white"/>
<mask id="mask6_115_22452" style="mask-type:alpha" maskUnits="userSpaceOnUse" x="19" y="30" width="16" height="11">
<path fill-rule="evenodd" clip-rule="evenodd" d="M22.5561 30.4099L19.3346 37.0666V40.0419L34.6616 40.1388C34.6616 40.1388 34.7646 35.5624 31.9612 33.2453C29.1578 30.9282 22.5561 30.4099 22.5561 30.4099Z" fill="white"/>
</mask>
<g mask="url(#mask6_115_22452)">
<path d="M34.224 28.0229V42.423" stroke="#5F7CFF" stroke-width="2.4"/>
<path d="M33.0239 28.0229V42.423" stroke="#C9D6FF"/>
<path d="M31.8238 28.0229V42.423" stroke="#5F7CFF" stroke-width="2.4"/>
<path d="M30.6241 28.0229V42.423" stroke="#C9D6FF"/>
<path d="M29.424 28.0229V42.423" stroke="#5F7CFF" stroke-width="2.4"/>
<path d="M28.2241 28.0229V42.423" stroke="#C9D6FF"/>
<path d="M27.024 28.0229V42.423" stroke="#5F7CFF" stroke-width="2.4"/>
<path d="M25.8243 28.0229V42.423" stroke="#C9D6FF"/>
<path d="M24.624 28.0229V42.423" stroke="#5F7CFF" stroke-width="2.4"/>
<path d="M23.4241 28.0229V42.423" stroke="#C9D6FF"/>
<path d="M22.2237 28.0229V42.423" stroke="#5F7CFF" stroke-width="2.4"/>
<path d="M19.8245 28.0229V42.423" stroke="#5F7CFF" stroke-width="2.4"/>
<path d="M21.0241 28.0229V42.423" stroke="#C9D6FF"/>
</g>
<path fill-rule="evenodd" clip-rule="evenodd" d="M22.6641 28.446C22.6641 28.446 23.7568 29.0835 24.6158 29.7374C25.4748 30.3913 26.1152 31.1375 26.1152 31.1375L23.1128 35.161L21.129 33.2897L22.6641 28.446Z" fill="white"/>
<mask id="mask7_115_22452" style="mask-type:alpha" maskUnits="userSpaceOnUse" x="21" y="28" width="6" height="8">
<path fill-rule="evenodd" clip-rule="evenodd" d="M22.6641 28.446C22.6641 28.446 23.7568 29.0835 24.6158 29.7374C25.4748 30.3913 26.1152 31.1375 26.1152 31.1375L23.1128 35.161L21.129 33.2897L22.6641 28.446Z" fill="white"/>
</mask>
<g mask="url(#mask7_115_22452)">
<g opacity="0.9">
<path d="M31.5812 28.1559L26.4207 41.5995" stroke="#7B92F8" stroke-width="2.2"/>
<path opacity="0.200753" d="M30.4611 27.7257L25.3006 41.1693" stroke="#7B92F8"/>
<path d="M29.3408 27.2958L24.1803 40.7394" stroke="#7B92F8" stroke-width="2.2"/>
<path opacity="0.200753" d="M28.2203 26.8656L23.0598 40.3092" stroke="#7B92F8"/>
<path d="M27.3296 26.6459L22.1691 40.0895" stroke="#8EA2FF" stroke-width="2.3"/>
<path opacity="0.3" d="M26.1174 26.2023L20.957 39.6459" stroke="#7B92F8"/>
<path d="M24.9347 25.61L19.7742 39.0536" stroke="#8EA2FF" stroke-width="2.2"/>
<path opacity="0.240281" d="M23.7393 25.1454L18.5788 38.589" stroke="#7B92F8"/>
</g>
</g>
<path fill-rule="evenodd" clip-rule="evenodd" d="M21.2656 32.8286L24.4365 34.9648L19.3434 39.5891V37.0447L21.2656 32.8286Z" fill="white"/>
<mask id="mask8_115_22452" style="mask-type:alpha" maskUnits="userSpaceOnUse" x="19" y="32" width="6" height="8">
<path fill-rule="evenodd" clip-rule="evenodd" d="M21.2656 32.8286L24.4365 34.9648L19.3434 39.5891V37.0447L21.2656 32.8286Z" fill="white"/>
</mask>
<g mask="url(#mask8_115_22452)">
<g opacity="0.9">
<path d="M35.0502 37.9572L24.3489 47.5927" stroke="#7B92F8" stroke-width="2.2"/>
<path opacity="0.200753" d="M34.2473 37.0651L23.546 46.7006" stroke="#7B92F8"/>
<path d="M33.4446 36.1735L22.7433 45.809" stroke="#7B92F8" stroke-width="2.2"/>
<path opacity="0.200753" d="M32.6417 35.2817L21.9404 44.9172" stroke="#7B92F8"/>
<path d="M31.8388 34.3898L21.1375 44.0253" stroke="#7B92F8" stroke-width="2.2"/>
<path opacity="0.200753" d="M31.0355 33.4982L20.3342 43.1337" stroke="#7B92F8"/>
<path d="M30.2326 32.6064L19.5313 42.2419" stroke="#7B92F8" stroke-width="2.2"/>
<path opacity="0.200753" d="M29.4297 31.7148L18.7284 41.3503" stroke="#7B92F8"/>
<path d="M28.6267 30.8227L17.9255 40.4582" stroke="#8EA2FF" stroke-width="2.2"/>
<path opacity="0.3" d="M27.7894 29.8424L17.0882 39.4778" stroke="#7B92F8"/>
<path d="M27.2209 28.6411L16.5196 38.2765" stroke="#8EA2FF" stroke-width="2.2"/>
<path opacity="0.200753" d="M26.2181 28.1477L15.5168 37.7831" stroke="#7B92F8"/>
</g>
</g>
<rect width="40" height="40" fill="#EDF6FF"/>
<mask id="mask9_115_22452" style="mask-type:alpha" maskUnits="userSpaceOnUse" x="0" y="0" width="40" height="40">
<rect width="40" height="40" fill="white"/>
</mask>
<g mask="url(#mask9_115_22452)">
<path fill-rule="evenodd" clip-rule="evenodd" d="M20.2737 32.2186C24.2322 32.2507 27.9802 31.6373 29.1361 30.3652C31.0585 28.2497 28.5 23.9641 28.8752 17.1843C28.9403 16.0081 28.9873 14.0119 28.7897 13.1432C28.5078 11.9029 28.0718 10.9513 27.6168 10.2129C26.6475 8.6401 24.7118 6.3999 20.2493 6.3999H20.2164C15.7539 6.3999 13.8182 8.6401 12.849 10.2129C12.3939 10.9513 11.9579 11.9029 11.6759 13.1432C11.4785 14.0119 11.5254 16.0081 11.5905 17.1843C11.9657 23.9641 9.40718 28.2497 11.3296 30.3652C12.4855 31.6373 16.2335 32.2507 20.192 32.2186H20.2737Z" fill="#283246"/>
<path fill-rule="evenodd" clip-rule="evenodd" d="M26.9356 20.2408C26.9356 20.2408 27.212 24.0557 28.2083 26.0671C29.2045 28.0786 28.2083 30.9199 28.2083 30.9199L13.5123 30.2033C13.5123 30.2033 12.2656 28.644 12.6488 26.3493C13.032 24.0547 13.7439 22.8031 13.6281 20.2408C13.5123 17.6786 26.9356 20.2408 26.9356 20.2408Z" fill="#1C2230"/>
<mask id="mask10_115_22452" style="mask-type:alpha" maskUnits="userSpaceOnUse" x="17" y="24" width="6" height="6">
<path fill-rule="evenodd" clip-rule="evenodd" d="M22.579 28.9544L22.8323 24.823L17.0328 24.8734L17.3849 28.6849C17.3849 28.6849 18.8895 29.4372 19.8288 29.4859C20.7682 29.5346 22.579 28.9544 22.579 28.9544Z" fill="white"/>
</mask>
<g mask="url(#mask10_115_22452)">
<path fill-rule="evenodd" clip-rule="evenodd" d="M13.0173 20.0564V16.5609C13.0173 12.1462 16.2717 9.70605 20.2493 9.70605C24.2269 9.70605 27.4812 12.1462 27.4812 16.5609V20.0564C27.4812 24.4711 23.9102 29.4647 19.9326 29.4647C15.955 29.4647 13.0173 24.4711 13.0173 20.0564Z" fill="#FFBBBA"/>
<path fill-rule="evenodd" clip-rule="evenodd" d="M13.0173 18.5415V15.046C13.0173 10.6313 16.2717 8.19116 20.2493 8.19116C24.2269 8.19116 27.4812 10.6313 27.4812 15.046V18.5415C27.4812 22.9562 23.9103 27.3718 19.9327 27.3718C15.9551 27.3718 13.0173 22.9562 13.0173 18.5415Z" fill="#F9B3B2"/>
</g>
<path fill-rule="evenodd" clip-rule="evenodd" d="M26.7822 20.2409H26.6752C26.1184 20.2409 25.663 19.692 25.663 19.1447V17.5448C25.663 16.9974 26.1184 16.4485 26.6752 16.4485H26.7822C27.4498 16.4485 28.2083 17.1714 28.2083 18.3447C28.2083 19.518 27.6269 20.2409 26.7822 20.2409Z" fill="#FFBBBA"/>
<path fill-rule="evenodd" clip-rule="evenodd" d="M13.8085 20.2409C14.3653 20.2409 14.8207 19.692 14.8207 19.1447V17.5448C14.8207 16.9974 14.3653 16.4485 13.8085 16.4485H13.7015C13.0339 16.4485 12.2039 17.1714 12.2039 18.3447C12.2039 19.518 12.8568 20.2409 13.7015 20.2409H13.8085Z" fill="#FFBBBA"/>
<path fill-rule="evenodd" clip-rule="evenodd" d="M13.6281 19.7304V16.9324C13.6281 13.3988 16.5957 11.4456 20.2228 11.4456C23.8499 11.4456 26.8175 13.3988 26.8175 16.9324V19.7304C26.8175 23.264 23.8499 26.4534 20.2228 26.4534C16.5957 26.4534 13.6281 23.264 13.6281 19.7304Z" fill="#FFBBBA"/>
<path fill-rule="evenodd" clip-rule="evenodd" d="M13.8693 19.0521V16.2385C13.8693 12.7819 16.8299 10.8713 20.3456 10.8713C23.8613 10.8713 26.7378 12.7819 26.7378 16.2385L26.6482 18.9817C26.6482 22.4383 23.8613 25.5584 20.3456 25.5584C16.8299 25.5584 13.8693 22.5086 13.8693 19.0521Z" fill="#FFD6D6"/>
<path fill-rule="evenodd" clip-rule="evenodd" d="M31.6867 36.6255C31.6867 32.2522 27.6074 28.5474 22.6348 28.5474C22.6348 28.5474 21.2041 28.9966 19.9896 29.0057C18.5534 28.9706 17.3335 28.557 17.3335 28.557C12.361 28.557 8.2926 32.2522 8.2926 36.6255V42.2206C8.2926 42.2206 16.361 42.1919 20.3035 42.1919C24.246 42.1919 31.6867 42.2206 31.6867 42.2206V36.6255Z" fill="#FFBBBA"/>
<mask id="mask11_115_22452" style="mask-type:alpha" maskUnits="userSpaceOnUse" x="8" y="28" width="24" height="15">
<path fill-rule="evenodd" clip-rule="evenodd" d="M31.6867 36.6255C31.6867 32.2522 27.6074 28.5474 22.6348 28.5474C22.6348 28.5474 21.2041 28.9966 19.9896 29.0057C18.5534 28.9706 17.3335 28.557 17.3335 28.557C12.361 28.557 8.2926 32.2522 8.2926 36.6255V42.2206C8.2926 42.2206 16.361 42.1919 20.3035 42.1919C24.246 42.1919 31.6867 42.2206 31.6867 42.2206V36.6255Z" fill="white"/>
</mask>
<g mask="url(#mask11_115_22452)">
<path fill-rule="evenodd" clip-rule="evenodd" d="M14.8207 31.9697H25.1719L22.4724 37.6706H17.2252L14.8207 31.9697Z" fill="white"/>
</g>
<path fill-rule="evenodd" clip-rule="evenodd" d="M24.6988 12.2524C24.6988 12.2524 20.8495 16.07 16.3077 15.668L23.8863 10.6819L24.6988 12.2524Z" fill="#1C2230"/>
<path fill-rule="evenodd" clip-rule="evenodd" d="M17.2069 13.3473C17.2069 13.3473 15.6923 16.0222 13.6281 16.4481C11.5639 16.874 16.413 12.177 16.413 12.177L17.2069 13.3473Z" fill="#1C2230"/>
<path fill-rule="evenodd" clip-rule="evenodd" d="M23.7278 12.8351C23.7278 12.8351 24.6524 15.212 26.8175 16.4481L24.4421 11.4453L23.7278 12.8351Z" fill="#1C2230"/>
<path fill-rule="evenodd" clip-rule="evenodd" d="M13.033 13.5146C12.6625 15.7384 11.309 15.7743 12.4766 16.543C12.6778 16.6755 13.1584 16.543 13.6281 16.4482C13.8888 16.3786 16.3077 14.6742 16.3077 12.5781C16.6424 13.4388 16.6424 15.1587 16.3077 15.668C19.6015 15.8566 23.4082 12.327 23.7801 10.9404C24.0472 12.4924 26.0627 15.7296 26.7378 16.3804C26.8155 16.4554 26.8988 16.4469 26.9356 16.4482C27.1108 15.9628 27.8527 16.156 27.1404 13.5775C26.7572 12.1904 25.0078 7.90601 20.2317 7.90601C15.4555 7.90601 13.4548 10.9831 13.033 13.5146Z" fill="#283246"/>
<path fill-rule="evenodd" clip-rule="evenodd" d="M17.2367 28.7292L20.394 35.5246L20.3502 40.3411H5.13128C5.13128 40.3411 5.02826 33.8818 7.83165 31.5647C10.635 29.2475 17.2367 28.7292 17.2367 28.7292Z" fill="white"/>
<mask id="mask12_115_22452" style="mask-type:alpha" maskUnits="userSpaceOnUse" x="5" y="28" width="16" height="13">
<path fill-rule="evenodd" clip-rule="evenodd" d="M17.2367 28.7292L20.394 35.5246L20.3502 40.3411H5.13128C5.13128 40.3411 5.02826 33.8818 7.83165 31.5647C10.635 29.2475 17.2367 28.7292 17.2367 28.7292Z" fill="white"/>
</mask>
<g mask="url(#mask12_115_22452)">
<path d="M5.56831 26.3423V40.7423" stroke="#FF88A0" stroke-width="2.2"/>
<path d="M6.76832 26.3423V40.7423" stroke="#FFE0E6"/>
<path d="M7.96834 26.3423V40.7423" stroke="#FF88A0" stroke-width="2.2"/>
<path d="M9.16835 26.3423V40.7423" stroke="#FFE0E6"/>
<path d="M10.3683 26.3423V40.7423" stroke="#FF88A0" stroke-width="2.2"/>
<path d="M11.5683 26.3423V40.7423" stroke="#FFE0E6"/>
<path d="M12.7683 26.3423V40.7423" stroke="#FF88A0" stroke-width="2.2"/>
<path d="M13.9683 26.3423V40.7423" stroke="#FFE0E6"/>
<path d="M15.1683 26.3423V40.7423" stroke="#FF88A0" stroke-width="2.2"/>
<path d="M16.3683 26.3423V40.7423" stroke="#FFE0E6"/>
<path d="M17.5683 26.3423V40.7423" stroke="#FF88A0" stroke-width="2.2"/>
<path d="M18.7683 26.3423V40.7423" stroke="#FFE0E6"/>
</g>
<path fill-rule="evenodd" clip-rule="evenodd" d="M17.1416 26.9189C17.1416 26.9189 16.0943 27.5416 15.2353 28.1955C14.3763 28.8495 13.7358 29.5957 13.7358 29.5957L16.7383 33.6191L18.7221 31.7479L17.1416 26.9189Z" fill="white"/>
<mask id="mask13_115_22452" style="mask-type:alpha" maskUnits="userSpaceOnUse" x="13" y="26" width="6" height="8">
<path fill-rule="evenodd" clip-rule="evenodd" d="M17.1416 26.9189C17.1416 26.9189 16.0943 27.5416 15.2353 28.1955C14.3763 28.8495 13.7358 29.5957 13.7358 29.5957L16.7383 33.6191L18.7221 31.7479L17.1416 26.9189Z" fill="white"/>
</mask>
<g mask="url(#mask13_115_22452)">
<g opacity="0.9">
<path d="M7.83776 26.7011L12.9983 40.1446" stroke="#7B92F8" stroke-width="2.2"/>
<path opacity="0.200753" d="M8.958 26.2709L14.1185 39.7145" stroke="#7B92F8"/>
<path d="M10.0783 25.841L15.2388 39.2845" stroke="#7B92F8" stroke-width="2.2"/>
<path opacity="0.200753" d="M11.1986 25.4108L16.3591 38.8543" stroke="#7B92F8"/>
<path d="M12.5092 25.0719L17.6697 38.5155" stroke="#FFA9BA" stroke-width="2.2"/>
<path d="M13.6709 24.5202L18.8314 37.9637" stroke="#FFE0E6"/>
<path d="M14.8956 24.0446L20.056 37.4881" stroke="#FFA9BA" stroke-width="2.2"/>
<path opacity="0.240281" d="M16.3465 23.6908L21.507 37.1344" stroke="#7B92F8"/>
</g>
</g>
<path fill-rule="evenodd" clip-rule="evenodd" d="M18.5631 31.1819L15.6176 33.2057L20.3832 37.3021L20.3164 35.0593L18.5631 31.1819Z" fill="white"/>
<mask id="mask14_115_22452" style="mask-type:alpha" maskUnits="userSpaceOnUse" x="15" y="31" width="6" height="7">
<path fill-rule="evenodd" clip-rule="evenodd" d="M18.5631 31.1819L15.6176 33.2057L20.3832 37.3021L20.3164 35.0593L18.5631 31.1819Z" fill="white"/>
</mask>
<g mask="url(#mask14_115_22452)">
<g opacity="0.9">
<path d="M7.42543 35.3587L17.9569 45.1795" stroke="#7B92F8" stroke-width="2.2"/>
<path opacity="0.200753" d="M8.24385 34.481L18.7753 44.3018" stroke="#7B92F8"/>
<path d="M9.06221 33.6035L19.5937 43.4243" stroke="#7B92F8" stroke-width="2.2"/>
<path opacity="0.200753" d="M9.88063 32.7259L20.4121 42.5466" stroke="#7B92F8"/>
<path d="M10.699 31.8482L21.2305 41.669" stroke="#7B92F8" stroke-width="2.2"/>
<path opacity="0.200753" d="M11.5174 30.9707L22.0489 40.7915" stroke="#7B92F8"/>
<path d="M12.4071 30.0858L22.9386 39.9065" stroke="#FFA9BA" stroke-width="2.2"/>
<path d="M13.2292 29.179L23.7607 38.9998" stroke="#FFE0E6"/>
<path d="M14.2085 28.2955L24.74 38.1163" stroke="#FFA9BA" stroke-width="2.2"/>
<path opacity="0.200753" d="M14.791 27.46L25.3225 37.2808" stroke="#7B92F8"/>
<path d="M15.6094 26.5826L26.1409 36.4033" stroke="#7B92F8" stroke-width="2.2"/>
<path opacity="0.200753" d="M16.4278 25.7049L26.9593 35.5256" stroke="#7B92F8"/>
</g>
</g>
<path fill-rule="evenodd" clip-rule="evenodd" d="M22.6559 28.8679L19.4344 35.5246V40.3907L34.7614 40.4875C34.7614 40.4875 34.8644 34.0204 32.061 31.7033C29.2576 29.3862 22.6559 28.8679 22.6559 28.8679Z" fill="white"/>
<mask id="mask15_115_22452" style="mask-type:alpha" maskUnits="userSpaceOnUse" x="19" y="28" width="16" height="13">
<path fill-rule="evenodd" clip-rule="evenodd" d="M22.6559 28.8679L19.4344 35.5246V40.3907L34.7614 40.4875C34.7614 40.4875 34.8644 34.0204 32.061 31.7033C29.2576 29.3862 22.6559 28.8679 22.6559 28.8679Z" fill="white"/>
</mask>
<g mask="url(#mask15_115_22452)">
<path d="M34.3243 26.481V40.881" stroke="#FF88A0" stroke-width="2.4"/>
<path d="M33.1243 26.481V40.881" stroke="#FFE0E6"/>
<path d="M31.9243 26.481V40.881" stroke="#FF88A0" stroke-width="2.4"/>
<path d="M30.7243 26.481V40.881" stroke="#FFE0E6"/>
<path d="M29.5243 26.481V40.881" stroke="#FF88A0" stroke-width="2.4"/>
<path d="M28.3243 26.481V40.881" stroke="#FFE0E6"/>
<path d="M27.1243 26.481V40.881" stroke="#FF88A0" stroke-width="2.4"/>
<path d="M25.9243 26.481V40.881" stroke="#FFE0E6"/>
<path d="M24.7243 26.481V40.881" stroke="#FF88A0" stroke-width="2.4"/>
<path d="M23.5243 26.481V40.881" stroke="#FFE0E6"/>
<path d="M22.3243 26.481V40.881" stroke="#FF88A0" stroke-width="2.4"/>
<path d="M19.9243 26.481V40.881" stroke="#FF88A0" stroke-width="2.4"/>
<path d="M21.1243 26.481V40.881" stroke="#FFE0E6"/>
</g>
<path fill-rule="evenodd" clip-rule="evenodd" d="M22.7639 26.9043C22.7639 26.9043 23.8566 27.5417 24.7156 28.1956C25.5746 28.8495 26.215 29.5958 26.215 29.5958L23.2126 33.6192L21.2288 31.748L22.7639 26.9043Z" fill="white"/>
<mask id="mask16_115_22452" style="mask-type:alpha" maskUnits="userSpaceOnUse" x="21" y="26" width="6" height="8">
<path fill-rule="evenodd" clip-rule="evenodd" d="M22.7639 26.9043C22.7639 26.9043 23.8566 27.5417 24.7156 28.1956C25.5746 28.8495 26.215 29.5958 26.215 29.5958L23.2126 33.6192L21.2288 31.748L22.7639 26.9043Z" fill="white"/>
</mask>
<g mask="url(#mask16_115_22452)">
<g opacity="0.9">
<path d="M31.6811 26.6139L26.5206 40.0575" stroke="#7B92F8" stroke-width="2.2"/>
<path opacity="0.200753" d="M30.5609 26.184L25.4004 39.6275" stroke="#7B92F8"/>
<path d="M29.4406 25.7538L24.2801 39.1974" stroke="#7B92F8" stroke-width="2.2"/>
<path opacity="0.200753" d="M28.3203 25.3239L23.1598 38.7674" stroke="#7B92F8"/>
<path d="M27.4293 25.1039L22.2688 38.5475" stroke="#FFA9BA" stroke-width="2.3"/>
<path d="M26.2174 24.6603L21.0569 38.1039" stroke="#FFE0E6"/>
<path d="M25.0346 24.068L19.8741 37.5116" stroke="#FFA9BA" stroke-width="2.2"/>
<path opacity="0.240281" d="M23.8391 23.6037L18.6786 37.0472" stroke="#7B92F8"/>
</g>
</g>
<path fill-rule="evenodd" clip-rule="evenodd" d="M21.3652 31.2869L24.5362 33.4231L19.443 38.0474V35.503L21.3652 31.2869Z" fill="white"/>
<mask id="mask17_115_22452" style="mask-type:alpha" maskUnits="userSpaceOnUse" x="19" y="31" width="6" height="8">
<path fill-rule="evenodd" clip-rule="evenodd" d="M21.3652 31.2869L24.5362 33.4231L19.443 38.0474V35.503L21.3652 31.2869Z" fill="white"/>
</mask>
<g mask="url(#mask17_115_22452)">
<g opacity="0.9">
<path d="M35.1514 36.4152L24.4501 46.0507" stroke="#7B92F8" stroke-width="2.2"/>
<path opacity="0.200753" d="M34.3485 35.5236L23.6472 45.1591" stroke="#7B92F8"/>
<path d="M33.5455 34.6318L22.8442 44.2673" stroke="#7B92F8" stroke-width="2.2"/>
<path opacity="0.200753" d="M32.7425 33.7399L22.0412 43.3754" stroke="#7B92F8"/>
<path d="M31.9396 32.8483L21.2383 42.4838" stroke="#7B92F8" stroke-width="2.2"/>
<path opacity="0.200753" d="M31.1366 31.9565L20.4353 41.592" stroke="#7B92F8"/>
<path d="M30.3337 31.0646L19.6324 40.7001" stroke="#7B92F8" stroke-width="2.2"/>
<path opacity="0.200753" d="M29.5307 30.173L18.8295 39.8085" stroke="#7B92F8"/>
<path d="M28.7278 29.2812L18.0265 38.9167" stroke="#FFA9BA" stroke-width="2.2"/>
<path d="M27.8905 28.3006L17.1892 37.9361" stroke="#FFE0E6"/>
<path d="M27.3219 27.0996L16.6207 36.735" stroke="#FFA9BA" stroke-width="2.2"/>
<path opacity="0.200753" d="M26.3189 26.6059L15.6176 36.2414" stroke="#7B92F8"/>
</g>
</g>
</g>
</g>
</g>
</svg>
