<svg width="15" height="15" viewBox="0 0 15 15" fill="none" xmlns="http://www.w3.org/2000/svg">
<path d="M7.49998 15C3.35741 15 0 11.6426 0 7.49998C0 3.35741 3.35741 0 7.49998 0C11.6426 0 15 3.35741 15 7.49998C15 9.48924 14.2104 11.3965 12.8027 12.8042C11.3994 14.2148 9.4907 15.0058 7.49998 15ZM4.9995 8.99998C4.1704 8.99998 3.4995 9.67088 3.4995 10.5C3.4995 11.3291 4.1704 12 4.9995 12C5.8286 12 6.4995 11.3291 6.4995 10.5C6.4995 9.67088 5.8286 8.99998 4.9995 8.99998ZM8.74949 2.99999C7.50731 2.99999 6.4995 4.0078 6.4995 5.24999C6.4995 6.49217 7.50731 7.49998 8.74949 7.49998C9.99168 7.49998 10.9995 6.49217 10.9995 5.24999C10.998 4.0078 9.99168 3.00146 8.74949 2.99999Z" fill="url(#paint0_linear_408_7160)"/>
<defs>
<linearGradient id="paint0_linear_408_7160" x1="7.49998" y1="-1.875" x2="7.49998" y2="16.875" gradientUnits="userSpaceOnUse">
<stop stop-color="#0075FF"/>
<stop offset="1" stop-color="#00B2FF"/>
</linearGradient>
</defs>
</svg>
