<svg width="18" height="18" viewBox="0 0 18 18" fill="none" xmlns="http://www.w3.org/2000/svg">
<path d="M0 0H18V18H0V0Z" fill="#F5FAFF"/>
<path d="M8.7135 18H8.7C8.54465 17.9998 8.39093 17.9683 8.2481 17.9072C8.10527 17.8461 7.97626 17.7567 7.86885 17.6445C7.69875 17.4667 6.15615 15.84 4.62165 13.779C2.55029 10.998 1.5 8.7795 1.5 7.18785C1.5 3.22425 4.7301 0 8.7 0C12.6699 0 15.9 3.22425 15.9 7.1874C15.9 8.1504 15.5287 9.33029 14.797 10.6934C14.091 12.0078 13.0295 13.5346 11.6412 15.232L11.63 15.2455L9.564 17.608C9.45826 17.7301 9.32771 17.8282 9.18104 17.8958C9.03438 17.9634 8.87499 17.9989 8.7135 18ZM8.7 10.552C10.5585 10.552 12.0705 9.04275 12.0705 7.18741C12.0705 5.33208 10.5585 3.82273 8.7 3.82273C6.8415 3.82273 5.3295 5.33203 5.3295 7.18738C5.3295 9.04273 6.8415 10.552 8.7 10.552Z" fill="#0075FF"/>
</svg>
