<svg width="320" height="206" viewBox="0 0 320 206" fill="none" xmlns="http://www.w3.org/2000/svg">
<path fill-rule="evenodd" clip-rule="evenodd" d="M320 124.955L196.566 205.07L0 117.505L141.104 75.4929L320 124.955Z" fill="url(#paint0_linear_2_246)"/>
<path opacity="0.849214" fill-rule="evenodd" clip-rule="evenodd" d="M113.787 127.028L74.0649 107.038L134.547 87.5789L174.034 107.038L113.787 127.028Z" fill="url(#paint1_linear_2_246)"/>
<path fill-rule="evenodd" clip-rule="evenodd" d="M113.787 9.00771L117.018 6.82043L202.296 12.658V122.613L117.018 128.451L113.787 127.028V9.00771Z" fill="url(#paint2_linear_2_246)"/>
<path fill-rule="evenodd" clip-rule="evenodd" d="M117.018 6.82043L205.527 12.658V122.613L117.018 128.451V6.82043Z" fill="url(#paint3_linear_2_246)"/>
<path fill-rule="evenodd" clip-rule="evenodd" d="M124.017 12.504L198.053 16.3765V115.766L124.206 120.429L124.017 12.504Z" fill="url(#paint4_linear_2_246)"/>
<path fill-rule="evenodd" clip-rule="evenodd" d="M124.018 12.504L197.864 16.1204C197.864 16.1204 197.882 47.4258 200.53 65.086C203.178 82.7462 217.254 106.21 217.254 106.21L142.448 111.843C142.448 111.843 131.341 97.1095 127.25 74.0638C123.16 51.018 124.018 12.504 124.018 12.504Z" fill="url(#paint5_linear_2_246)"/>
<path opacity="0.884789" d="M166.6 31.2682L167.204 41.0783L175.857 41.4988L176.307 48.8147L167.674 48.7083L168.363 59.8915L160.448 60.2467L159.737 48.6995L149.531 48.6797L149.026 40.4767L159.251 40.8211L158.628 30.6917L166.6 31.2682Z" fill="url(#paint6_linear_2_246)"/>
<path opacity="0.246419" d="M190.917 71.2753L192.297 77.0957L143.024 79.0974L141.231 72.4564L190.917 71.2753Z" fill="url(#paint7_linear_2_246)"/>
<path fill-rule="evenodd" clip-rule="evenodd" d="M145.464 17.5586L178.967 19.3244C179.406 18.84 180.502 17.5305 181.242 15.7862C182.468 12.8965 182.187 10.2173 180.405 7.82183C180.112 7.42695 179.653 7.18047 179.143 7.14451C176.838 6.97518 171.43 6.59534 171.43 6.59534C171.132 6.57442 170.888 6.3639 170.84 6.0867C170.838 6.07166 170.557 4.5052 169.528 2.97666C168.197 1.00094 166.278 0 163.823 0H163.804C157.805 0.011768 156.133 5.13283 156.117 5.18448C156.031 5.45841 155.754 5.6382 155.452 5.61859L146.98 5.05111C146.867 5.04522 144.159 4.94977 143.342 8.31216C143.358 8.32066 143.376 8.32916 143.393 8.33832C144.559 8.94045 146.158 9.76552 146.713 11.587C147.191 13.1521 146.782 15.1115 145.464 17.5586" fill="url(#paint8_linear_2_246)"/>
<ellipse cx="164.102" cy="8.76825" rx="2.64008" ry="2.67621" fill="white"/>
<path opacity="0.642136" fill-rule="evenodd" clip-rule="evenodd" d="M198.053 115.766L194.135 121.158L123.16 126.349L124.206 120.429L198.053 115.766Z" fill="url(#paint9_linear_2_246)"/>
<path opacity="0.460007" fill-rule="evenodd" clip-rule="evenodd" d="M238.303 51.3138C238.303 51.3138 231.071 53.7659 219.299 50.0229C219.299 50.0229 219.291 51.7324 220.317 54.7125C220.653 55.6877 222.01 57.8972 222.01 57.8972C222.01 57.8972 231.901 64.1568 243.401 63.7373C243.401 63.7373 239.644 61.0208 238.316 56.6285C237.749 54.7525 238.303 51.3138 238.303 51.3138Z" fill="url(#paint10_linear_2_246)"/>
<path d="M128.378 176.284H140.383V183.738H139.118V182.964H129.643V183.738H128.378V176.284ZM127.868 171.046H130.048V169.745H131.278V171.046H134.108V172.101H131.278V173.41C132.257 173.352 133.182 173.29 134.055 173.226C134.008 173.636 133.973 174.017 133.95 174.368C133.077 174.409 132.186 174.456 131.278 174.509V175.915H130.048V174.579C128.682 174.667 127.276 174.767 125.829 174.878L125.688 173.683C127.235 173.624 128.688 173.557 130.048 173.481V172.101H126.444V171.029C126.854 170.437 127.258 169.781 127.657 169.06H125.811V168.005H128.193C128.468 167.443 128.741 166.845 129.01 166.212L130.223 166.616C130.001 167.085 129.772 167.548 129.538 168.005H134.284V169.06H128.993C128.63 169.74 128.255 170.402 127.868 171.046ZM135.216 167.741C137.571 167.718 139.909 167.513 142.229 167.126L142.633 168.286C140.419 168.532 138.35 168.702 136.428 168.796V171.029H142.915V172.083H140.401V175.775H139.171V172.083H136.341C136.124 173.683 135.55 175.013 134.618 176.073C134.337 175.804 134.008 175.511 133.633 175.195C134.688 174.105 135.216 172.558 135.216 170.554V167.741ZM129.643 181.874H139.118V180.134H129.643V181.874ZM139.118 177.374H129.643V179.097H139.118V177.374ZM143.952 173.314H150.842C151.089 172.095 151.235 170.736 151.282 169.236H145.288V167.865H159.561V169.236H152.758C152.676 170.736 152.524 172.095 152.301 173.314H160.897V174.685H152.003C151.112 178.646 148.663 181.716 144.655 183.896C144.397 183.497 144.081 183.081 143.706 182.648C147.198 180.902 149.471 178.247 150.526 174.685H143.952V173.314ZM152.952 175.95H154.376V180.573C154.376 181.499 154.803 181.962 155.659 181.962H158.067C158.864 181.962 159.315 181.616 159.421 180.925C159.514 180.257 159.585 179.39 159.632 178.323C160.077 178.488 160.569 178.657 161.108 178.833C160.991 179.993 160.885 180.866 160.792 181.452C160.639 182.624 159.807 183.21 158.296 183.21H155.255C153.719 183.21 152.952 182.402 152.952 180.784V175.95ZM169.757 174.474V180.45C169.757 181.329 170.178 181.769 171.022 181.769H175.505C176.571 181.769 177.175 181.376 177.315 180.591C177.444 179.958 177.567 179.044 177.684 177.849C178.188 178.048 178.68 178.218 179.161 178.359C179.008 179.448 178.839 180.398 178.651 181.206C178.393 182.472 177.444 183.105 175.803 183.105H170.53C169.1 183.105 168.385 182.355 168.385 180.855V173.173H176.507V168.656H167.647V167.355H177.878V175.318H176.507V174.474H169.757ZM167.594 179.396C167.63 180.005 167.671 180.509 167.717 180.907C166.194 181.927 165.016 182.771 164.184 183.439L163.358 182.261C163.757 181.956 163.956 181.429 163.956 180.679V173.806H161.671V172.505H165.327V180.995C166.03 180.515 166.786 179.982 167.594 179.396ZM163.657 166.722C164.934 168.034 165.86 169.007 166.434 169.64L165.204 170.677C164.466 169.704 163.592 168.697 162.585 167.654L163.657 166.722ZM194.717 175.3L195.737 176.46C194.741 177.116 193.505 177.89 192.028 178.781C193.399 179.847 195.11 180.615 197.161 181.083C196.798 181.587 196.475 182.068 196.194 182.525C193.007 181.552 190.663 179.9 189.163 177.568V181.382C189.163 182.8 188.436 183.509 186.983 183.509C186.292 183.509 185.471 183.497 184.522 183.474C184.452 183.04 184.37 182.536 184.276 181.962C185.12 182.056 185.876 182.109 186.544 182.12C187.376 182.12 187.792 181.745 187.792 180.995V174.702H179.882V173.525H192.995V171.644H182.096V170.519H192.995V168.656H181.762V167.478H194.313V173.525H197.038V174.702H189.163V175.107C189.643 176.161 190.264 177.087 191.026 177.884C192.385 177.005 193.616 176.144 194.717 175.3ZM179.635 180.732C181.932 180.017 184.423 179.167 187.106 178.183C187.2 178.698 187.288 179.144 187.37 179.519C185.038 180.327 182.641 181.177 180.18 182.068L179.635 180.732ZM182.079 175.177C183.204 175.857 184.346 176.595 185.507 177.392L184.645 178.552C183.579 177.743 182.454 176.958 181.27 176.197L182.079 175.177Z" fill="#3B5370"/>
<defs>
<linearGradient id="paint0_linear_2_246" x1="82.7016" y1="74.946" x2="82.2585" y2="139.75" gradientUnits="userSpaceOnUse">
<stop stop-color="#F1F1F2"/>
<stop offset="1" stop-color="#F7F7F8" stop-opacity="0.01"/>
</linearGradient>
<linearGradient id="paint1_linear_2_246" x1="174.085" y1="129.371" x2="171.906" y2="96.6747" gradientUnits="userSpaceOnUse">
<stop stop-color="#81848F"/>
<stop offset="0.381862" stop-color="#9D9FA6" stop-opacity="0.66"/>
<stop offset="0.484295" stop-color="#9D9FA6" stop-opacity="0.58"/>
<stop offset="0.715381" stop-color="#9D9FA6" stop-opacity="0.23"/>
<stop offset="0.892543" stop-color="#9D9FA6" stop-opacity="0.1"/>
<stop offset="1" stop-color="#9D9FA6" stop-opacity="0.01"/>
</linearGradient>
<linearGradient id="paint2_linear_2_246" x1="249.349" y1="57.7281" x2="142.15" y2="-3.55323" gradientUnits="userSpaceOnUse">
<stop stop-color="#8D8F96"/>
<stop offset="1" stop-color="#C4C5C9"/>
</linearGradient>
<linearGradient id="paint3_linear_2_246" x1="100.968" y1="36.6645" x2="161.572" y2="126.9" gradientUnits="userSpaceOnUse">
<stop stop-color="#EBECEF"/>
<stop offset="1" stop-color="#C9CCD2"/>
</linearGradient>
<linearGradient id="paint4_linear_2_246" x1="138.463" y1="141.249" x2="194.624" y2="136.784" gradientUnits="userSpaceOnUse">
<stop stop-color="#E6E6E6"/>
<stop offset="1" stop-color="#E6E6E8"/>
</linearGradient>
<linearGradient id="paint5_linear_2_246" x1="192.582" y1="111.053" x2="199.811" y2="80.9199" gradientUnits="userSpaceOnUse">
<stop stop-color="#F9F9FA"/>
<stop offset="1" stop-color="#FBFBFC"/>
</linearGradient>
<linearGradient id="paint6_linear_2_246" x1="188.987" y1="36.7315" x2="154.714" y2="31.4264" gradientUnits="userSpaceOnUse">
<stop stop-color="#9B9DA5"/>
<stop offset="1" stop-color="#C5C5CD"/>
</linearGradient>
<linearGradient id="paint7_linear_2_246" x1="216.032" y1="72.8738" x2="186.152" y2="40.163" gradientUnits="userSpaceOnUse">
<stop stop-color="#9B9DA5"/>
<stop offset="1" stop-color="#C5C5CD"/>
</linearGradient>
<linearGradient id="paint8_linear_2_246" x1="196.34" y1="22.6764" x2="194.853" y2="0.275429" gradientUnits="userSpaceOnUse">
<stop stop-color="#A3A5AD"/>
<stop offset="0.395457" stop-color="#BABCC3"/>
<stop offset="1" stop-color="#E8E9EA"/>
</linearGradient>
<linearGradient id="paint9_linear_2_246" x1="182.006" y1="117.126" x2="182.011" y2="121.671" gradientUnits="userSpaceOnUse">
<stop stop-color="#B7BABE"/>
<stop offset="1" stop-color="#B7BABE" stop-opacity="0.01"/>
</linearGradient>
<linearGradient id="paint10_linear_2_246" x1="210.131" y1="56.6361" x2="220.286" y2="36.7398" gradientUnits="userSpaceOnUse">
<stop stop-color="#EBECEF"/>
<stop offset="1" stop-color="#C9CCD2"/>
</linearGradient>
</defs>
</svg>
