<svg width="16" height="16" viewBox="0 0 16 16" fill="none" xmlns="http://www.w3.org/2000/svg">
<path d="M13.5 7V3.16C13.5 2.51935 12.9807 2 12.34 2H3.66C3.01935 2 2.5 2.51935 2.5 3.16V13.34C2.5 13.9807 3.01935 14.5 3.66 14.5H7.54167" stroke="#0075FF" stroke-width="1.1" stroke-linecap="round"/>
<path d="M5 8H7" stroke="#0075FF" stroke-width="1.1" stroke-linecap="round"/>
<path d="M5 5H11" stroke="#0075FF" stroke-width="1.1" stroke-linecap="round"/>
<path d="M12.7249 12.3096C13.2025 11.8543 13.5 11.2119 13.5 10.5C13.5 9.11929 12.3807 8 11 8C9.61929 8 8.5 9.11929 8.5 10.5C8.5 11.8807 9.61929 13 11 13C11.6688 13 12.2763 12.7374 12.7249 12.3096ZM12.7249 12.3096L14.5 14" stroke="#0075FF" stroke-width="1.1" stroke-linecap="round"/>
</svg>
