<svg width="40" height="40" viewBox="0 0 40 40" fill="none" xmlns="http://www.w3.org/2000/svg">
<rect width="40" height="40" fill="#EDF6FF"/>
<mask id="mask0_115_14853" style="mask-type:alpha" maskUnits="userSpaceOnUse" x="0" y="0" width="40" height="40">
<rect width="40" height="40" fill="white"/>
</mask>
<g mask="url(#mask0_115_14853)">
<path fill-rule="evenodd" clip-rule="evenodd" d="M21.957 34.2777L19.8771 37.4769L17.8303 34.1675L16.9373 27.301L22.7869 27.4718L21.957 34.2777Z" fill="#FFBBBA"/>
<mask id="mask1_115_14853" style="mask-type:alpha" maskUnits="userSpaceOnUse" x="16" y="26" width="7" height="5">
<path fill-rule="evenodd" clip-rule="evenodd" d="M22.4772 30.0209L22.9544 26.3916L16.7993 26.4354L17.3145 30.0966C17.3145 30.0966 18.6773 30.6064 20.0001 30.6064C21.3229 30.6064 22.4772 30.0209 22.4772 30.0209Z" fill="white"/>
</mask>
<g mask="url(#mask1_115_14853)">
<path fill-rule="evenodd" clip-rule="evenodd" d="M11.6531 19.6509V14.9471C11.6531 9.00652 15.284 5.7229 19.7218 5.7229C24.1597 5.7229 27.7906 9.00652 27.7906 14.9471V19.6509C27.7906 25.5915 24.3569 29.2872 19.9191 29.2872C15.4813 29.2872 11.6531 25.5915 11.6531 19.6509Z" fill="#F9B3B2"/>
</g>
<path fill-rule="evenodd" clip-rule="evenodd" d="M27.1976 22.5393C26.5891 22.5393 26.0913 21.9362 26.0913 21.3347V19.5768C26.0913 18.9754 26.5891 18.3723 27.1976 18.3723H27.3145C28.2375 18.3503 28.913 19.1359 28.8732 20.4558C28.8732 21.745 28.2378 22.5393 27.3145 22.5393H27.1976Z" fill="#FFBBBA"/>
<path fill-rule="evenodd" clip-rule="evenodd" d="M13.0427 22.5391H13.1597C13.7681 22.5391 14.2659 21.936 14.2659 21.3345V19.5766C14.2659 18.9752 13.7681 18.3721 13.1597 18.3721H13.0427C12.313 18.3721 11.4841 19.1664 11.4841 20.4556C11.4841 21.7448 12.1195 22.5391 13.0427 22.5391Z" fill="#FFBBBA"/>
<path fill-rule="evenodd" clip-rule="evenodd" d="M20.1453 28.196C16.1811 28.196 12.9377 25.0886 12.9377 21.2906V18.2833C12.9377 14.4853 16.1811 12.386 20.1453 12.386C24.1095 12.386 27.353 14.4853 27.353 18.2833V21.2906C27.353 25.0886 24.1095 28.196 20.1453 28.196Z" fill="#FFBBBA"/>
<path fill-rule="evenodd" clip-rule="evenodd" d="M13.2935 19.9365V16.9293C13.2935 13.1312 16.4373 9.92114 20.2798 9.92114C24.1223 9.92114 27.3352 13.1312 27.3352 16.9293L27.237 19.9365C27.237 23.7345 24.1223 26.842 20.2798 26.842C16.4373 26.842 13.2935 23.7345 13.2935 19.9365Z" fill="#FFD6D6"/>
<path fill-rule="evenodd" clip-rule="evenodd" d="M21.2623 6.40015C18.7837 6.40015 18.2592 7.15919 16.1053 7.04193C15.7166 7.02079 15.3561 6.82595 15.1126 6.52974C14.4914 6.90663 13.7047 8.00818 14.276 8.88712C10.764 10.9492 11.6444 18.2839 13.295 19.0803V17.1484C13.295 14.2999 15.107 12.1524 17.6123 11.0715C18.047 11.3313 17.8722 12.3557 17.8722 12.3557C19.3081 12.3557 22.2425 10.6278 23.469 11.2755C25.7315 12.4702 27.3112 14.4663 27.3112 17.1484L27.2654 18.9426C29.773 16.8737 30.0935 9.02382 25.5515 8.80688C25.3517 7.35714 23.9782 6.40015 21.2623 6.40015Z" fill="#283246"/>
<path fill-rule="evenodd" clip-rule="evenodd" d="M18.1664 9.56934C14.9448 9.85937 13.4572 13.314 13.4572 15.2333C13.4572 15.2333 13.4407 15.6542 13.4686 15.6738C13.9832 13.5938 15.5777 11.9424 17.6064 11.0671C18.0411 11.3269 17.903 12.3281 17.903 12.3281C19.0881 12.3281 21.2346 11.1562 22.6585 11.109C21.0032 10.8641 19.3245 11.0196 18.6034 10.8344C18.2747 10.75 18.0415 10.1926 18.1664 9.56934Z" fill="#1C2230"/>
<path fill-rule="evenodd" clip-rule="evenodd" d="M27.3101 17.1859L27.2687 18.9383C28.3935 16.5109 28.4765 12.9527 23.6044 11.3445C25.7309 12.4691 27.3412 14.5039 27.3101 17.1859Z" fill="#1C2230"/>
<path fill-rule="evenodd" clip-rule="evenodd" d="M17.137 30.271L20.2943 37.0663L20.2505 39.9999H5.03154C5.03154 39.9999 4.92853 35.4235 7.73192 33.1064C10.5353 30.7893 17.137 30.271 17.137 30.271Z" fill="white"/>
<mask id="mask2_115_14853" style="mask-type:alpha" maskUnits="userSpaceOnUse" x="5" y="30" width="16" height="10">
<path fill-rule="evenodd" clip-rule="evenodd" d="M17.137 30.271L20.2943 37.0663L20.2505 39.9999H5.03154C5.03154 39.9999 4.92853 35.4235 7.73192 33.1064C10.5353 30.7893 17.137 30.271 17.137 30.271Z" fill="white"/>
</mask>
<g mask="url(#mask2_115_14853)">
<path d="M5.46882 27.884V42.284" stroke="#5F7CFF" stroke-width="2.2"/>
<path d="M6.66847 27.884V42.284" stroke="#C9D6FF"/>
<path d="M7.8686 27.884V42.284" stroke="#5F7CFF" stroke-width="2.2"/>
<path d="M9.06849 27.884V42.284" stroke="#C9D6FF"/>
<path d="M10.2688 27.884V42.284" stroke="#5F7CFF" stroke-width="2.2"/>
<path d="M11.4685 27.884V42.284" stroke="#C9D6FF"/>
<path d="M12.6688 27.884V42.284" stroke="#5F7CFF" stroke-width="2.2"/>
<path d="M13.8687 27.884V42.284" stroke="#C9D6FF"/>
<path d="M15.0688 27.884V42.284" stroke="#5F7CFF" stroke-width="2.2"/>
<path d="M16.2687 27.884V42.284" stroke="#C9D6FF"/>
<path d="M17.4688 27.884V42.284" stroke="#5F7CFF" stroke-width="2.2"/>
<path d="M18.6687 27.884V42.284" stroke="#C9D6FF"/>
</g>
<path fill-rule="evenodd" clip-rule="evenodd" d="M17.0419 28.4607C17.0419 28.4607 15.9946 29.0834 15.1356 29.7373C14.2766 30.3912 13.6362 31.1374 13.6362 31.1374L16.6386 35.1609L18.6224 33.2896L17.0419 28.4607Z" fill="white"/>
<mask id="mask3_115_14853" style="mask-type:alpha" maskUnits="userSpaceOnUse" x="13" y="28" width="6" height="8">
<path fill-rule="evenodd" clip-rule="evenodd" d="M17.0419 28.4607C17.0419 28.4607 15.9946 29.0834 15.1356 29.7373C14.2766 30.3912 13.6362 31.1374 13.6362 31.1374L16.6386 35.1609L18.6224 33.2896L17.0419 28.4607Z" fill="white"/>
</mask>
<g mask="url(#mask3_115_14853)">
<g opacity="0.9">
<path d="M7.73803 28.2428L12.8985 41.6864" stroke="#7B92F8" stroke-width="2.2"/>
<path opacity="0.200753" d="M8.85857 27.8129L14.0191 41.2564" stroke="#7B92F8"/>
<path d="M9.97881 27.3827L15.1393 40.8263" stroke="#7B92F8" stroke-width="2.2"/>
<path opacity="0.200753" d="M11.0987 26.9528L16.2592 40.3963" stroke="#7B92F8"/>
<path d="M12.4093 26.6137L17.5698 40.0572" stroke="#8EA2FF" stroke-width="2.2"/>
<path opacity="0.3" d="M13.5712 26.0619L18.7317 39.5055" stroke="#7B92F8"/>
<path d="M14.7958 25.5863L19.9563 39.0299" stroke="#8EA2FF" stroke-width="2.2"/>
<path opacity="0.240281" d="M16.2467 25.2326L21.4072 38.6761" stroke="#7B92F8"/>
</g>
</g>
<path fill-rule="evenodd" clip-rule="evenodd" d="M18.4631 32.7236L15.5176 34.7474L20.2832 38.8438L20.2163 36.6011L18.4631 32.7236Z" fill="white"/>
<mask id="mask4_115_14853" style="mask-type:alpha" maskUnits="userSpaceOnUse" x="15" y="32" width="6" height="7">
<path fill-rule="evenodd" clip-rule="evenodd" d="M18.4631 32.7236L15.5176 34.7474L20.2832 38.8438L20.2163 36.6011L18.4631 32.7236Z" fill="white"/>
</mask>
<g mask="url(#mask4_115_14853)">
<g opacity="0.9">
<path d="M7.32551 36.9007L17.857 46.7214" stroke="#7B92F8" stroke-width="2.2"/>
<path opacity="0.200753" d="M8.14436 36.023L18.6759 45.8438" stroke="#7B92F8"/>
<path d="M8.96297 35.1455L19.4945 44.9663" stroke="#7B92F8" stroke-width="2.2"/>
<path opacity="0.200753" d="M9.78114 34.2676L20.3126 44.0884" stroke="#7B92F8"/>
<path d="M10.5997 33.3904L21.1312 43.2112" stroke="#7B92F8" stroke-width="2.2"/>
<path opacity="0.200753" d="M11.4179 32.5125L21.9494 42.3333" stroke="#7B92F8"/>
<path d="M12.3077 31.6278L22.8392 41.4485" stroke="#8EA2FF" stroke-width="2.2"/>
<path opacity="0.3" d="M13.1293 30.7208L23.6607 40.5415" stroke="#7B92F8"/>
<path d="M14.1091 29.8372L24.6405 39.658" stroke="#8EA2FF" stroke-width="2.2"/>
<path opacity="0.200753" d="M14.6915 29.002L25.223 38.8228" stroke="#7B92F8"/>
<path d="M15.5097 28.1245L26.0412 37.9453" stroke="#7B92F8" stroke-width="2.2"/>
<path opacity="0.200753" d="M16.3278 27.2469L26.8593 37.0676" stroke="#7B92F8"/>
</g>
</g>
<path fill-rule="evenodd" clip-rule="evenodd" d="M22.5561 30.4099L19.3346 37.0666V40.0419L34.6616 40.1388C34.6616 40.1388 34.7646 35.5624 31.9612 33.2453C29.1578 30.9282 22.5561 30.4099 22.5561 30.4099Z" fill="white"/>
<mask id="mask5_115_14853" style="mask-type:alpha" maskUnits="userSpaceOnUse" x="19" y="30" width="16" height="11">
<path fill-rule="evenodd" clip-rule="evenodd" d="M22.5561 30.4099L19.3346 37.0666V40.0419L34.6616 40.1388C34.6616 40.1388 34.7646 35.5624 31.9612 33.2453C29.1578 30.9282 22.5561 30.4099 22.5561 30.4099Z" fill="white"/>
</mask>
<g mask="url(#mask5_115_14853)">
<path d="M34.224 28.0229V42.423" stroke="#5F7CFF" stroke-width="2.4"/>
<path d="M33.0239 28.0229V42.423" stroke="#C9D6FF"/>
<path d="M31.8238 28.0229V42.423" stroke="#5F7CFF" stroke-width="2.4"/>
<path d="M30.6241 28.0229V42.423" stroke="#C9D6FF"/>
<path d="M29.424 28.0229V42.423" stroke="#5F7CFF" stroke-width="2.4"/>
<path d="M28.2241 28.0229V42.423" stroke="#C9D6FF"/>
<path d="M27.024 28.0229V42.423" stroke="#5F7CFF" stroke-width="2.4"/>
<path d="M25.8243 28.0229V42.423" stroke="#C9D6FF"/>
<path d="M24.624 28.0229V42.423" stroke="#5F7CFF" stroke-width="2.4"/>
<path d="M23.4241 28.0229V42.423" stroke="#C9D6FF"/>
<path d="M22.2237 28.0229V42.423" stroke="#5F7CFF" stroke-width="2.4"/>
<path d="M19.8245 28.0229V42.423" stroke="#5F7CFF" stroke-width="2.4"/>
<path d="M21.0241 28.0229V42.423" stroke="#C9D6FF"/>
</g>
<path fill-rule="evenodd" clip-rule="evenodd" d="M22.6641 28.446C22.6641 28.446 23.7568 29.0835 24.6158 29.7374C25.4748 30.3913 26.1152 31.1375 26.1152 31.1375L23.1128 35.161L21.129 33.2897L22.6641 28.446Z" fill="white"/>
<mask id="mask6_115_14853" style="mask-type:alpha" maskUnits="userSpaceOnUse" x="21" y="28" width="6" height="8">
<path fill-rule="evenodd" clip-rule="evenodd" d="M22.6641 28.446C22.6641 28.446 23.7568 29.0835 24.6158 29.7374C25.4748 30.3913 26.1152 31.1375 26.1152 31.1375L23.1128 35.161L21.129 33.2897L22.6641 28.446Z" fill="white"/>
</mask>
<g mask="url(#mask6_115_14853)">
<g opacity="0.9">
<path d="M31.5812 28.1559L26.4207 41.5995" stroke="#7B92F8" stroke-width="2.2"/>
<path opacity="0.200753" d="M30.4611 27.7257L25.3006 41.1693" stroke="#7B92F8"/>
<path d="M29.3408 27.2958L24.1803 40.7394" stroke="#7B92F8" stroke-width="2.2"/>
<path opacity="0.200753" d="M28.2203 26.8656L23.0598 40.3092" stroke="#7B92F8"/>
<path d="M27.3296 26.6459L22.1691 40.0895" stroke="#8EA2FF" stroke-width="2.3"/>
<path opacity="0.3" d="M26.1174 26.2023L20.957 39.6459" stroke="#7B92F8"/>
<path d="M24.9347 25.61L19.7742 39.0536" stroke="#8EA2FF" stroke-width="2.2"/>
<path opacity="0.240281" d="M23.7393 25.1454L18.5788 38.589" stroke="#7B92F8"/>
</g>
</g>
<path fill-rule="evenodd" clip-rule="evenodd" d="M21.2656 32.8286L24.4365 34.9648L19.3434 39.5891V37.0447L21.2656 32.8286Z" fill="white"/>
<mask id="mask7_115_14853" style="mask-type:alpha" maskUnits="userSpaceOnUse" x="19" y="32" width="6" height="8">
<path fill-rule="evenodd" clip-rule="evenodd" d="M21.2656 32.8286L24.4365 34.9648L19.3434 39.5891V37.0447L21.2656 32.8286Z" fill="white"/>
</mask>
<g mask="url(#mask7_115_14853)">
<g opacity="0.9">
<path d="M35.0502 37.9572L24.3489 47.5927" stroke="#7B92F8" stroke-width="2.2"/>
<path opacity="0.200753" d="M34.2473 37.0651L23.546 46.7006" stroke="#7B92F8"/>
<path d="M33.4446 36.1735L22.7433 45.809" stroke="#7B92F8" stroke-width="2.2"/>
<path opacity="0.200753" d="M32.6417 35.2817L21.9404 44.9172" stroke="#7B92F8"/>
<path d="M31.8388 34.3898L21.1375 44.0253" stroke="#7B92F8" stroke-width="2.2"/>
<path opacity="0.200753" d="M31.0355 33.4982L20.3342 43.1337" stroke="#7B92F8"/>
<path d="M30.2326 32.6064L19.5313 42.2419" stroke="#7B92F8" stroke-width="2.2"/>
<path opacity="0.200753" d="M29.4297 31.7148L18.7284 41.3503" stroke="#7B92F8"/>
<path d="M28.6267 30.8227L17.9255 40.4582" stroke="#8EA2FF" stroke-width="2.2"/>
<path opacity="0.3" d="M27.7894 29.8424L17.0882 39.4778" stroke="#7B92F8"/>
<path d="M27.2209 28.6411L16.5196 38.2765" stroke="#8EA2FF" stroke-width="2.2"/>
<path opacity="0.200753" d="M26.2181 28.1477L15.5168 37.7831" stroke="#7B92F8"/>
</g>
</g>
</g>
</svg>
