<svg width="14" height="14" viewBox="0 0 14 14" fill="none" xmlns="http://www.w3.org/2000/svg">
<rect x="0.5" width="12.9231" height="14" rx="2" fill="url(#paint0_linear_408_6797)"/>
<path d="M11.006 11.606H9.257C9.077 11.606 8.93 11.459 8.93 11.279C8.93 11.192 8.963 11.108 9.026 11.048C9.089 10.985 9.17 10.952 9.257 10.952H10.991C11.159 10.952 11.297 11.078 11.315 11.24V11.243C11.315 11.252 11.318 11.264 11.318 11.273V11.276C11.327 11.447 11.198 11.597 11.027 11.606H11.006ZM8.12 11.606H7.526C7.439 11.606 7.355 11.573 7.295 11.51C7.232 11.447 7.199 11.366 7.199 11.279C7.199 11.099 7.346 10.952 7.526 10.952H8.105C8.273 10.952 8.411 11.078 8.429 11.24C8.429 11.249 8.432 11.261 8.432 11.27V11.273C8.438 11.357 8.408 11.435 8.354 11.498C8.3 11.561 8.222 11.597 8.138 11.603C8.132 11.606 8.126 11.606 8.12 11.606ZM5.792 11.603C5.612 11.603 5.465 11.456 5.465 11.276C5.465 11.096 5.612 10.949 5.792 10.949H6.371C6.536 10.961 6.668 11.081 6.695 11.237H6.701L6.698 11.279C6.686 11.453 6.545 11.591 6.374 11.603H5.792ZM4.061 11.603C3.974 11.603 3.89 11.57 3.83 11.507C3.77 11.444 3.734 11.363 3.734 11.276C3.734 11.096 3.881 10.949 4.061 10.949H4.64C4.817 10.961 4.955 11.102 4.967 11.273V11.279C4.955 11.453 4.814 11.591 4.643 11.603H4.061ZM2.327 11.603C2.147 11.603 2 11.456 2 11.276C2 11.096 2.147 10.949 2.327 10.949H2.906C3.083 10.961 3.221 11.102 3.233 11.273V11.279C3.221 11.453 3.08 11.591 2.909 11.603H2.327ZM2.687 10.448C2.603 10.448 2.522 10.415 2.462 10.355C2.399 10.295 2.363 10.211 2.363 10.124C2.363 10.037 2.396 9.953 2.456 9.89L4.391 7.955L5.315 7.031C5.372 6.968 5.453 6.932 5.537 6.932H5.585V6.935C5.657 6.944 5.726 6.962 5.795 6.992L5.801 6.995L5.807 7.001L5.837 7.031C6.11 7.313 6.257 7.682 6.251 8.075C6.245 8.468 6.086 8.834 5.807 9.107L5.693 9.221C4.907 10.007 3.86 10.442 2.747 10.445H2.687V10.448ZM6.749 7.331C6.557 7.331 6.371 7.253 6.239 7.118C5.966 6.827 5.966 6.371 6.239 6.083L10.109 2.213C10.241 2.078 10.427 2 10.619 2H10.667V2.003C10.907 2.018 11.126 2.141 11.267 2.336L11.615 2.912C11.804 3.236 11.726 3.653 11.432 3.887L7.217 7.178C7.079 7.271 6.923 7.322 6.761 7.331H6.749Z" fill="white"/>
<defs>
<linearGradient id="paint0_linear_408_6797" x1="6.96154" y1="-1.75" x2="6.96154" y2="15.75" gradientUnits="userSpaceOnUse">
<stop stop-color="#0075FF"/>
<stop offset="1" stop-color="#00B2FF"/>
</linearGradient>
</defs>
</svg>
