<svg width="24" height="26" viewBox="0 0 24 26" fill="none" xmlns="http://www.w3.org/2000/svg">
<circle cx="12" cy="12" r="12" fill="url(#paint0_linear_35_2712)"/>
<g filter="url(#filter0_d_35_2712)">
<path d="M5 11.5C5 11.2239 5.22386 11 5.5 11H11.5C11.7761 11 12 11.2239 12 11.5V17.5C12 17.7761 11.7761 18 11.5 18H7C5.89543 18 5 17.1046 5 16V11.5Z" fill="white" fill-opacity="0.4"/>
<path d="M6.99997 7.00154C6.99997 6.44925 7.44768 6 7.99997 6H17C17.5523 6 18 6.44772 18 7V17C18 17.5523 17.5523 18 17 18H6.5C7 17.5 6.99997 16.669 6.99997 16.58C6.99997 16.2078 6.99997 15.8485 6.99997 15.5C6.99997 11.9409 6.99997 10.4686 6.99997 7.00154Z" fill="url(#paint1_linear_35_2712)"/>
<rect x="9" y="9" width="7" height="1" rx="0.5" fill="#0075FF"/>
<rect x="9" y="9" width="7" height="1" rx="0.5" fill="#0075FF"/>
<rect x="9" y="12" width="5" height="1" rx="0.5" fill="#0075FF"/>
<rect x="9" y="12" width="5" height="1" rx="0.5" fill="#0075FF"/>
</g>
<defs>
<filter id="filter0_d_35_2712" x="1" y="6" width="21" height="20" filterUnits="userSpaceOnUse" color-interpolation-filters="sRGB">
<feFlood flood-opacity="0" result="BackgroundImageFix"/>
<feColorMatrix in="SourceAlpha" type="matrix" values="0 0 0 0 0 0 0 0 0 0 0 0 0 0 0 0 0 0 127 0" result="hardAlpha"/>
<feOffset dy="4"/>
<feGaussianBlur stdDeviation="2"/>
<feComposite in2="hardAlpha" operator="out"/>
<feColorMatrix type="matrix" values="0 0 0 0 0.248958 0 0 0 0 0.590838 0 0 0 0 0.995833 0 0 0 1 0"/>
<feBlend mode="normal" in2="BackgroundImageFix" result="effect1_dropShadow_35_2712"/>
<feBlend mode="normal" in="SourceGraphic" in2="effect1_dropShadow_35_2712" result="shape"/>
</filter>
<linearGradient id="paint0_linear_35_2712" x1="17" y1="24" x2="6" y2="-5.36442e-07" gradientUnits="userSpaceOnUse">
<stop stop-color="#54A2FE"/>
<stop offset="1" stop-color="#93C4FF"/>
</linearGradient>
<linearGradient id="paint1_linear_35_2712" x1="13" y1="11.5" x2="15" y2="18.5" gradientUnits="userSpaceOnUse">
<stop stop-color="white"/>
<stop offset="1" stop-color="#DEEDFF"/>
</linearGradient>
</defs>
</svg>
