<svg width="16" height="16" viewBox="0 0 16 16" fill="none" xmlns="http://www.w3.org/2000/svg">
<rect width="16" height="16" fill="white"/>
<path fill-rule="evenodd" clip-rule="evenodd" d="M8.45825 14.4571C9.01054 14.4571 9.45825 14.0094 9.45825 13.4571V9.38262L13.5002 9.38262C14.0525 9.38262 14.5002 8.93491 14.5002 8.38262V7.53146C14.5002 6.97918 14.0525 6.53146 13.5002 6.53146L9.45825 6.53147V2.45709C9.45825 1.9048 9.01054 1.45709 8.45825 1.45709H7.60709C7.05481 1.45709 6.60709 1.9048 6.60709 2.45709V6.53147L2.50024 6.53147C1.94796 6.53147 1.50024 6.97918 1.50024 7.53147V8.38262C1.50024 8.93491 1.94796 9.38262 2.50024 9.38262L6.60709 9.38262V13.4571C6.60709 14.0094 7.05481 14.4571 7.60709 14.4571H8.45825Z" fill="url(#paint0_linear_408_6727)"/>
<defs>
<linearGradient id="paint0_linear_408_6727" x1="8.00024" y1="1.45709" x2="8.00024" y2="14.4571" gradientUnits="userSpaceOnUse">
<stop stop-color="#FF321F"/>
<stop offset="1" stop-color="#FF9580"/>
</linearGradient>
</defs>
</svg>
