<svg width="14" height="14" viewBox="0 0 14 14" fill="none" xmlns="http://www.w3.org/2000/svg">
<rect x="0.5" width="12.9231" height="14" rx="2" fill="url(#paint0_linear_408_6912)"/>
<path d="M9.63742 11.5769H4.29767C4.06164 11.5769 3.83528 11.4836 3.66838 11.3174C3.50148 11.1513 3.40771 10.926 3.40771 10.6911V5.96649C3.40771 5.7726 3.44608 5.58061 3.52062 5.40149C3.59516 5.22236 3.70442 5.0596 3.84215 4.9225C3.97989 4.7854 4.1434 4.67665 4.32336 4.60245C4.50331 4.52825 4.69619 4.49006 4.89098 4.49006H9.04411C9.2389 4.49006 9.43177 4.52825 9.61173 4.60245C9.79169 4.67665 9.9552 4.7854 10.0929 4.9225C10.2307 5.0596 10.3399 5.22236 10.4145 5.40149C10.489 5.58061 10.5274 5.7726 10.5274 5.96649V10.6911C10.5274 10.926 10.4336 11.1513 10.2667 11.3174C10.0998 11.4836 9.87345 11.5769 9.63742 11.5769ZM8.45081 7.44292H7.56085V6.55706C7.56085 6.40043 7.49834 6.25022 7.38707 6.13946C7.27581 6.02871 7.1249 5.96649 6.96754 5.96649C6.81019 5.96649 6.65928 6.02871 6.54801 6.13946C6.43675 6.25022 6.37424 6.40043 6.37424 6.55706V7.44292H5.48428C5.32693 7.44292 5.17602 7.50514 5.06475 7.61589C4.95349 7.72664 4.89098 7.87686 4.89098 8.03349C4.89098 8.19012 4.95349 8.34033 5.06475 8.45108C5.17602 8.56184 5.32693 8.62406 5.48428 8.62406H6.37424V9.50991C6.37424 9.66654 6.43675 9.81676 6.54801 9.92751C6.65928 10.0383 6.81019 10.1005 6.96754 10.1005C7.1249 10.1005 7.27581 10.0383 7.38707 9.92751C7.49834 9.81676 7.56085 9.66654 7.56085 9.50991V8.62406H8.45081C8.60816 8.62406 8.75907 8.56184 8.87034 8.45108C8.9816 8.34033 9.04411 8.19012 9.04411 8.03349C9.04411 7.87686 8.9816 7.72664 8.87034 7.61589C8.75907 7.50514 8.60816 7.44292 8.45081 7.44292ZM9.19244 3.89949H4.74265C4.68422 3.89949 4.62635 3.88804 4.57236 3.86578C4.51838 3.84352 4.46932 3.81089 4.428 3.76976C4.38668 3.72863 4.35391 3.6798 4.33154 3.62607C4.30918 3.57233 4.29767 3.51473 4.29767 3.45656V2.86599C4.29767 2.80783 4.30918 2.75023 4.33154 2.69649C4.35391 2.64275 4.38668 2.59393 4.428 2.5528C4.46932 2.51167 4.51838 2.47904 4.57236 2.45678C4.62635 2.43452 4.68422 2.42307 4.74265 2.42307H9.19244C9.25087 2.42307 9.30874 2.43452 9.36272 2.45678C9.41671 2.47904 9.46576 2.51167 9.50708 2.5528C9.5484 2.59393 9.58118 2.64275 9.60354 2.69649C9.62591 2.75023 9.63742 2.80783 9.63742 2.86599V3.45656C9.63742 3.51473 9.62591 3.57233 9.60354 3.62607C9.58118 3.6798 9.5484 3.72863 9.50708 3.76976C9.46576 3.81089 9.41671 3.84352 9.36272 3.86578C9.30874 3.88804 9.25087 3.89949 9.19244 3.89949Z" fill="white"/>
<defs>
<linearGradient id="paint0_linear_408_6912" x1="6.96154" y1="-1.75" x2="6.96154" y2="15.75" gradientUnits="userSpaceOnUse">
<stop stop-color="#0075FF"/>
<stop offset="1" stop-color="#00B2FF"/>
</linearGradient>
</defs>
</svg>
