<?xml version="1.0" standalone="no"?><!DOCTYPE svg PUBLIC "-//W3C//DTD SVG 1.1//EN" "http://www.w3.org/Graphics/SVG/1.1/DTD/svg11.dtd"><svg t="1718955338618" class="icon" viewBox="0 0 1778 1024" version="1.1" xmlns="http://www.w3.org/2000/svg" p-id="1558" width="55.5625" height="32" xmlns:xlink="http://www.w3.org/1999/xlink"><path d="M1334.647507 619.924742v-228.028331c0-22.824391 7.464411-49.071093 17.78524-59.984764l245.11294-256.942819c80.195263-84.021784 172.462931-107.654595 172.462931-17.515767v897.076715c0 89.977145-92.267668 66.47907-172.462931-17.542714l-245.11294-256.94282c-10.320829-10.778933-17.78524-37.187319-17.78524-60.092552z m-115.873532 253.035457c0 76.368742-60.793183 138.239818-135.733716 138.239818H135.706769C60.766236 1011.200017 0 949.32894 0 872.960199V138.726217C0 62.357476 60.766236 0.459452 135.706769 0.459452h947.33349c74.940533 0 135.706769 61.898024 135.706769 138.239818v734.287876z" p-id="1559" fill="#000000"></path></svg>