<?xml version="1.0" standalone="no"?><!DOCTYPE svg PUBLIC "-//W3C//DTD SVG 1.1//EN" "http://www.w3.org/Graphics/SVG/1.1/DTD/svg11.dtd"><svg t="1718957026129" class="icon" viewBox="0 0 1137 1024" version="1.1" xmlns="http://www.w3.org/2000/svg" p-id="6111" xmlns:xlink="http://www.w3.org/1999/xlink" width="35.53125" height="32"><path d="M1104.928508 24.283429a32.507937 32.507937 0 0 1-2.145524 45.933714L783.408762 361.114413v388.908698c0 49.39581-39.058286 89.413079-87.235048 89.413079H258.356825L78.782984 1003.032381a32.507937 32.507937 0 0 1-43.78819-48.062984l1024-932.815238a32.507937 32.507937 0 0 1 45.933714 2.12927zM1137.777778 222.435556V802.783492c0 58.189206-59.326984 43.008-110.884572-11.361524l-157.549714-166.196825c-6.631619-6.989206-11.42654-24.055873-11.42654-38.895746v-147.521016c0-14.758603 4.794921-31.744 11.42654-38.814476l157.549714-166.196826C1078.450794 179.427556 1137.777778 164.148825 1137.777778 222.435556zM696.173714 185.620317c29.338413 0 55.296 14.839873 71.111111 37.595429L90.778413 839.419937l-3.543365 0.016253c-48.176762 0-87.235048-40.01727-87.235048-89.396825V274.984635c0-49.363302 39.058286-89.396825 87.235048-89.396825h608.938666z" p-id="6112" fill="#000000"></path></svg>