<svg xmlns="http://www.w3.org/2000/svg" xmlns:xlink="http://www.w3.org/1999/xlink" fill="none" version="1.1" width="22.22216796875" height="18.0555419921875" viewBox="0 0 22.22216796875 18.0555419921875"><g><g><path d="M2,3.472222328186035L20.2222,3.472222328186035C21.3268,3.472222328186035,22.2222,4.3676533281860355,22.2222,5.472222328186035L22.2222,16.055522328186036C22.2222,17.160122328186034,21.3268,18.055522328186036,20.2222,18.055522328186036L2,18.055522328186036C0.895431,18.055522328186036,0,17.160122328186034,0,16.055522328186036L0,5.472222328186035C0,4.3676533281860355,0.895431,3.472222328186035,2,3.472222328186035" fill-rule="evenodd" fill="#FFFFFF" fill-opacity="1"/></g><g><path d="M7.222227977905273,6.2266855624389645Q8.887767977905273,4.5555486674389645,11.246857977905274,4.5555486674389645Q13.600817977905274,4.5555486674389645,15.265277977905274,6.220455562438965Q16.929617977905274,7.885255562438965,16.929617977905274,10.239575562438965L14.929617977905274,10.239575562438965Q14.929617977905274,8.713525562438964,13.850867977905274,7.634475562438965Q12.772227977905274,6.555545562438965,11.246857977905274,6.555545562438965Q9.718167977905274,6.555545562438965,8.638807977905273,7.638525562438964L7.222227977905273,6.2266855624389645ZM15.388317977905274,14.131825562438966Q13.704527977905274,15.923765562438964,11.246827977905273,15.923765562438964Q8.892867977905274,15.923765562438964,7.228407977905274,14.258815562438965Q5.564062356905273,12.594015562438965,5.564062594905273,10.239695562438964L7.564057977905273,10.239695562438964Q7.564057977905273,11.765745562438966,8.642817977905274,12.844785562438965Q9.721447977905274,13.923715562438964,11.246827977905273,13.923715562438964Q12.839437977905273,13.923715562438964,13.930827977905274,12.762255562438964L15.388317977905274,14.131825562438966Z" fill-rule="evenodd" fill="#666666" fill-opacity="1"/></g><g transform="matrix(-1,-1.2246468525851679e-16,1.2246468525851679e-16,-1,36.6468620300293,22.76746940612793)"><path d="M21.07680101501465,11.720476703063964L22.77960101501465,13.369154703063964C22.908741015014648,13.494174703063965,22.82023101501465,13.712834703063965,22.64048101501465,13.712834703063965L18.81752101501465,13.712834703063965C18.63777801501465,13.712834703063965,18.549269015014648,13.494174703063965,18.678402015014647,13.369154703063964L20.38120101501465,11.720476703063964C20.57508101501465,11.532765703063966,20.88293101501465,11.532765703063966,21.07680101501465,11.720476703063964" fill-rule="evenodd" fill="#666666" fill-opacity="1"/></g><g transform="matrix(1,2.4492937051703357e-16,-2.4492937051703357e-16,1,1.7763568394002505e-15,-1.7763568394002505e-15)"><path d="M6.920036507720948,9.390968875305175L8.622836507720947,11.039646875305175C8.751976507720947,11.164666875305176,8.663466507720948,11.383326875305176,8.483716507720947,11.383326875305176L4.660756507720947,11.383326875305176C4.481013507720947,11.383326875305176,4.392504507720948,11.164666875305176,4.521637507720947,11.039646875305175L6.224436507720947,9.390968875305175C6.418316507720947,9.203257875305177,6.726166507720947,9.203257875305177,6.920036507720948,9.390968875305175" fill-rule="evenodd" fill="#666666" fill-opacity="1"/></g><g transform="matrix(1,0,0,-1,0,8.422822952270508)"><path d="M5.55555534362793,4.950600476135254L5.55555534362793,4.211411476135254L16.66665534362793,4.211411476135254L16.66665534362793,4.950600476135254L14.58333534362793,8.422821476135255L7.63888534362793,8.422821476135255L5.55555534362793,4.950600476135254Z" fill-rule="evenodd" fill="#FFFFFF" fill-opacity="1"/></g></g></svg>