<?xml version="1.0" standalone="no"?><!DOCTYPE svg PUBLIC "-//W3C//DTD SVG 1.1//EN" "http://www.w3.org/Graphics/SVG/1.1/DTD/svg11.dtd"><svg t="1718957526456" class="icon" viewBox="0 0 1024 1024" version="1.1" xmlns="http://www.w3.org/2000/svg" p-id="9890" xmlns:xlink="http://www.w3.org/1999/xlink" width="32" height="32"><path d="M749.7 472.1V315.3L667 398v74c-0.1 55.2-45.7 100.3-102.3 100.1-20.8 0.1-40.1-5.9-56.6-16.3l-58.8 59.9c31.7 24.4 71.7 39.2 115.4 39.2 102.1 0 185-81.7 185-182.8z m0 0" p-id="9891" fill="#000000"></path><path d="M914.1 462.3h-65.3c-4.8 0-8.7 3.9-8.7 8.7 0 152.7-123.8 276.5-276.5 276.5-68.6 0-131.4-25-179.6-66.4l-58.8 58.8c53.2 47 120.6 78.7 194.8 88.2v111H362.2c-15.1 0-27.1 15.6-27.2 34.8v39.2c0.1 4.8 3.2 8.7 6.5 8.7h444.1c3.5 0 6.5-3.9 6.5-8.7v-39.2c0-19.3-12-34.8-27.2-34.8H602.8V828c179.9-19.5 320-171.9 320-357 0-4.8-3.9-8.7-8.7-8.7z m14.3-411.2L881 5.5c-3.4-3.3-8.8-3.3-12.2 0.1L728.4 146.1c-30.6-59.1-93-99.6-164.8-99.6-102.2 0-185.1 82-185.1 182.9v243.8c0 7.3 0.4 14.5 1.3 21.6l-74 74c-11.4-30.4-17.7-63.4-17.6-97.8-0.2-4.8-4.1-8.7-8.7-8.7h-65.3c-4.8 0-8.7 3.9-8.7 8.7 0 57.7 13.6 112.1 37.7 160.4L94 780.6c-3.4 3.4-3.4 8.9 0 12.3l46.5 46.5c3.4 3.4 8.9 3.4 12.3 0L928.5 63.7l0.1-0.1c3.4-3.5 3.3-9.1-0.2-12.5zM461.3 413.3v-184c0-55.1 45.6-100.1 102.3-100.1 50.1 0 91.5 35.2 100.5 81.3L461.3 413.3z m0 0" p-id="9892" fill="#000000"></path></svg>