<svg xmlns="http://www.w3.org/2000/svg" xmlns:xlink="http://www.w3.org/1999/xlink" fill="none" version="1.1" width="25.55029296875" height="9.66790771484375" viewBox="0 0 25.55029296875 9.66790771484375"><g><g><path d="M24.4177,9.556119999999947C26.2557,7.636459999999946,25.7468,4.781929999999947,23.6825,3.2901299999999467C20.1434,0.7326739999999468,16.9482,-5.3290705182007514e-14,12.8088,-5.3290705182007514e-14C8.65963,-5.3290705182007514e-14,5.76478,0.7212829999999467,2.21926,3.2901299999999467C-0.00206584,4.899549999999946,-0.913546,7.512919999999947,1.17481,9.556119999999947C1.78803,10.156099999999947,5.84402,8.168369999999946,6.11344,7.6799499999999465C6.64298,6.719979999999946,7.35554,3.605299999999947,7.81642,3.2901299999999467C9.82293,1.9180199999999468,16.1563,1.9180199999999468,18.2451,3.2901299999999467C18.8639,3.6965599999999466,19.113,7.298519999999947,19.4111,7.6799499999999465C19.8658,8.261669999999947,23.6825,10.069399999999947,24.4177,9.556119999999947Z" fill-rule="evenodd" fill="#FFFFFF" fill-opacity="1"/></g></g></svg>