<?xml version="1.0" standalone="no"?><!DOCTYPE svg PUBLIC "-//W3C//DTD SVG 1.1//EN" "http://www.w3.org/Graphics/SVG/1.1/DTD/svg11.dtd"><svg t="1718957465581" class="icon" viewBox="0 0 1024 1024" version="1.1" xmlns="http://www.w3.org/2000/svg" p-id="8814" xmlns:xlink="http://www.w3.org/1999/xlink" width="32" height="32"><path d="M618.666667 535.893333v274.848a96 96 0 0 1-155.466667 75.36l-2.784-2.282666-102.421333-87.232L618.666667 535.893333z m-22.922667-384.885333a96 96 0 0 1 22.858667 58.656l0.064 3.594667v152.138666l172.405333-172.394666a32 32 0 0 1 46.549333 43.893333l-1.290666 1.365333-603.402667 603.402667a32 32 0 0 1-46.549333-43.893333l1.290666-1.365334L248.074667 736H224c-74.378667 0-135.082667-58.56-138.517333-132.096l-0.106667-3.306667L85.333333 597.333333V426.666667c0-75.488 60.32-136.885333 135.392-138.624L224 288l62.890667-0.010667 173.525333-147.808a96 96 0 0 1 135.328 10.826667zM847.146667 307.445333C904.074667 358.453333 938.666667 432.042667 938.666667 512c0 111.616-67.413333 210.837333-168.928 253.504a32 32 0 0 1-24.8-59.008C822.944 673.717333 874.666667 597.589333 874.666667 512c0-62.517333-27.594667-120-72.885334-159.210667l45.354667-45.333333z m-88.501334 88.501334C790.954667 423.488 810.666667 465.92 810.666667 512c0 59.168-32.522667 112.341333-82.453334 135.658667a32 32 0 0 1-27.093333-57.984C728.138667 577.066667 746.666667 546.741333 746.666667 512c0-29.322667-13.205333-55.498667-33.557334-70.528l45.525334-45.525333z" fill="#000000" p-id="8815"></path></svg>