<?xml version="1.0" standalone="no"?><!DOCTYPE svg PUBLIC "-//W3C//DTD SVG 1.1//EN" "http://www.w3.org/Graphics/SVG/1.1/DTD/svg11.dtd"><svg t="1718957336772" class="icon" viewBox="0 0 1031 1024" version="1.1" xmlns="http://www.w3.org/2000/svg" p-id="7165" xmlns:xlink="http://www.w3.org/1999/xlink" width="32.21875" height="32"><path d="M850.326001 844.267763a46.652079 46.652079 0 0 1-28.8074 9.268167 50.35243 50.35243 0 0 1-32.922742-88.531744 7.642779 7.642779 0 0 1 2.074963-1.556222 7.711945 7.711945 0 0 0 2.04038-1.556222l1.037481-1.037481a308.996537 308.996537 0 0 0 53.534039-46.306253 340.535971 340.535971 0 0 0 43.228391-58.168122 290.702282 290.702282 0 0 0 28.841982-66.917549 272.200531 272.200531 0 0 0-28.841982-214.620315 349.492894 349.492894 0 0 0-97.799911-104.993115 50.456178 50.456178 0 0 1 28.841982-91.609606 46.340835 46.340835 0 0 1 30.882362 11.34313 447.915294 447.915294 0 0 1 71.032892 62.248882 411.741777 411.741777 0 0 1 56.646483 77.188615 399.949072 399.949072 0 0 1 37.038086 89.050485 358.069407 358.069407 0 0 1 13.383509 97.799911 361.873505 361.873505 0 0 1-13.383509 98.837393 396.421635 396.421635 0 0 1-37.556826 89.569226 428.479809 428.479809 0 0 1-129.201015 139.99082z m-57.649382-462.197954a307.129071 307.129071 0 0 1 34.582712 60.208503 188.406618 188.406618 0 0 1 12.86477 73.592012 194.839003 194.839003 0 0 1-13.418093 74.110753 253.387535 253.387535 0 0 1-33.960224 59.689762 142.031201 142.031201 0 0 1-17.498852 20.057974 33.061073 33.061073 0 0 1-23.689158 8.749426 41.914248 41.914248 0 0 1-31.366521-13.38351 44.473368 44.473368 0 0 1-12.864769-31.919843 46.617497 46.617497 0 0 1 3.077861-16.461372h-1.002898a134.146342 134.146342 0 0 1 12.311446-21.614195q7.227787-10.374814 13.833085-21.095455a116.716655 116.716655 0 0 0 11.308547-24.692057 105.892266 105.892266 0 0 0 4.634083-33.476065 102.088168 102.088168 0 0 0-4.634083-32.404002 129.892669 129.892669 0 0 0-11.308547-25.210798q-6.674464-11.308547-13.833085-21.614195a92.820001 92.820001 0 0 1-11.308548-21.614195 41.499255 41.499255 0 0 1-3.077861-16.461372 44.438786 44.438786 0 0 1 12.864769-31.919843 41.879665 41.879665 0 0 1 31.366521-13.38351 33.061073 33.061073 0 0 1 23.689158 8.749426 142.584524 142.584524 0 0 1 17.429687 20.092556z m-332.478199 611.456942q-52.496558-47.343734-111.148839-98.80281t-109.108458-94.72205q-58.790611-49.418696-117.373727-97.799911c-7.573614 0.691654-15.112645 1.037481-22.651677 1.037481a177.478481 177.478481 0 0 1-19.539232 1.037482h-17.498853a62.248883 62.248883 0 0 1-45.303353-16.980112 54.709851 54.709851 0 0 1-17.498853-40.66927v-259.370345h1.002899l-1.002899-1.037481A65.188413 65.188413 0 0 1 18.093021 338.876001a59.966424 59.966424 0 0 1 44.784613-18.536334h58.790612q94.72205-80.266476 171.945247-144.106163 32.922742-27.66617 64.842586-54.05278t57.649382-47.862475q25.729538-21.614195 43.228391-36.035186c11.654374-9.613994 18.882161-15.458473 21.614195-17.498853a79.194412 79.194412 0 0 1 49.902855-20.749627 39.251379 39.251379 0 0 1 29.844881 18.536334 104.716454 104.716454 0 0 1 14.939731 40.150529 255.012923 255.012923 0 0 1 4.115343 43.228391v833.789201a135.149241 135.149241 0 0 1-7.193204 41.706752 75.874472 75.874472 0 0 1-22.167519 34.997705 48.415798 48.415798 0 0 1-37.556826 10.824389 97.14284 97.14284 0 0 1-52.634888-29.741133z" fill="#000000" p-id="7166"></path></svg>