<svg width="73" height="18" viewBox="0 0 73 18" fill="none" xmlns="http://www.w3.org/2000/svg">
<path d="M3.48847 10.355H15.4943V17.8081H14.2287V17.0347H4.75409V17.8081H3.48847V10.355ZM2.9787 5.1167H5.15839V3.81592H6.38886V5.1167H9.21894V6.17139H6.38886V7.48096C7.36737 7.42236 8.29316 7.36084 9.1662 7.29639C9.11933 7.70654 9.08417 8.0874 9.06073 8.43896C8.18769 8.47998 7.29706 8.52686 6.38886 8.57959V9.98584H5.15839V8.6499C3.79316 8.73779 2.38691 8.8374 0.93964 8.94873L0.799015 7.75342C2.34589 7.69482 3.79902 7.62744 5.15839 7.55127V6.17139H1.55487V5.09912C1.96503 4.50732 2.36933 3.85107 2.76777 3.13037H0.922062V2.07568H3.3039C3.57929 1.51318 3.85175 0.915527 4.12128 0.282715L5.33417 0.687012C5.11152 1.15576 4.883 1.61865 4.64862 2.07568H9.39472V3.13037H4.1037C3.74042 3.81006 3.36542 4.47217 2.9787 5.1167ZM10.3264 1.81201C12.6818 1.78857 15.0197 1.5835 17.34 1.19678L17.7443 2.35693C15.5295 2.60303 13.4611 2.77295 11.5392 2.8667V5.09912H18.0256V6.15381H15.5119V9.84521H14.2814V6.15381H11.4514C11.2346 7.75342 10.6603 9.0835 9.7287 10.144C9.44745 9.87451 9.11933 9.58154 8.74433 9.26514C9.79902 8.17529 10.3264 6.62842 10.3264 4.62451V1.81201ZM4.75409 15.9448H14.2287V14.2046H4.75409V15.9448ZM14.2287 11.4448H4.75409V13.1675H14.2287V11.4448ZM19.0627 7.38428H25.9533C26.1994 6.16553 26.3459 4.80615 26.3928 3.30615H20.3986V1.93506H34.6721V3.30615H27.8693C27.7873 4.80615 27.635 6.16553 27.4123 7.38428H36.008V8.75537H27.1135C26.2228 12.7163 23.7736 15.7866 19.7658 17.9663C19.508 17.5679 19.1916 17.1519 18.8166 16.7183C22.3088 14.9722 24.5822 12.3179 25.6369 8.75537H19.0627V7.38428ZM28.0627 10.021H29.4865V14.644C29.4865 15.5698 29.9142 16.0327 30.7697 16.0327H33.1779C33.9748 16.0327 34.426 15.687 34.5314 14.9956C34.6252 14.3276 34.6955 13.4604 34.7424 12.394C35.1877 12.5581 35.6799 12.728 36.2189 12.9038C36.1017 14.064 35.9963 14.937 35.9025 15.5229C35.7502 16.6948 34.9182 17.2808 33.4064 17.2808H30.3654C28.8303 17.2808 28.0627 16.4722 28.0627 14.855V10.021ZM44.8674 8.54443V14.521C44.8674 15.3999 45.2892 15.8394 46.133 15.8394H50.6154C51.6818 15.8394 52.2853 15.4468 52.426 14.6616C52.5549 14.0288 52.6779 13.1147 52.7951 11.9194C53.299 12.1187 53.7912 12.2886 54.2717 12.4292C54.1193 13.519 53.9494 14.4683 53.7619 15.2769C53.5041 16.5425 52.5549 17.1753 50.9142 17.1753H45.6408C44.2111 17.1753 43.4963 16.4253 43.4963 14.9253V7.24365H51.6174V2.72607H42.758V1.42529H52.9885V9.38818H51.6174V8.54443H44.8674ZM42.7053 13.4663C42.7404 14.0757 42.7814 14.5796 42.8283 14.978C41.3049 15.9976 40.1271 16.8413 39.2951 17.5093L38.4689 16.3315C38.8674 16.0269 39.0666 15.4995 39.0666 14.7495V7.87646H36.7814V6.57568H40.4377V15.0659C41.1408 14.5854 41.8967 14.0522 42.7053 13.4663ZM38.7678 0.79248C40.0451 2.10498 40.9709 3.07764 41.5451 3.71045L40.3146 4.74756C39.5764 3.7749 38.7033 2.76709 37.6955 1.72412L38.7678 0.79248ZM69.8283 9.37061L70.8478 10.5308C69.8517 11.187 68.6154 11.9604 67.1389 12.8511C68.51 13.9175 70.2209 14.6851 72.2717 15.1538C71.9084 15.6577 71.5861 16.1382 71.3049 16.5952C68.1174 15.6226 65.7736 13.9702 64.2736 11.6382V15.4526C64.2736 16.8706 63.5471 17.5796 62.0939 17.5796C61.4025 17.5796 60.5822 17.5679 59.633 17.5444C59.5627 17.1108 59.4807 16.6069 59.3869 16.0327C60.2307 16.1265 60.9865 16.1792 61.6545 16.1909C62.4865 16.1909 62.9025 15.8159 62.9025 15.0659V8.77295H54.9924V7.59521H68.1057V5.71436H57.2072V4.58936H68.1057V2.72607H56.8732V1.54834H69.424V7.59521H72.1486V8.77295H64.2736V9.17725C64.7541 10.2319 65.3752 11.1577 66.1369 11.9546C67.4963 11.0757 68.7267 10.2144 69.8283 9.37061ZM54.7463 14.8022C57.0432 14.0874 59.5334 13.2378 62.217 12.2534C62.3107 12.769 62.3986 13.2144 62.4807 13.5894C60.1486 14.3979 57.7521 15.2476 55.2912 16.1382L54.7463 14.8022ZM57.1896 9.24756C58.3146 9.92725 59.4572 10.6655 60.6174 11.4624L59.756 12.6226C58.6896 11.814 57.5646 11.0288 56.381 10.2671L57.1896 9.24756Z" fill="#3B5370"/>
</svg>
