<?xml version="1.0" standalone="no"?><!DOCTYPE svg PUBLIC "-//W3C//DTD SVG 1.1//EN" "http://www.w3.org/Graphics/SVG/1.1/DTD/svg11.dtd"><svg t="1719365572404" class="icon" viewBox="0 0 1024 1024" version="1.1" xmlns="http://www.w3.org/2000/svg" p-id="3229" xmlns:xlink="http://www.w3.org/1999/xlink" width="32" height="32"><path d="M305.8 591.49999999c-20.3 17.7-40.5 35.5-60.8 53.20000001-23.8 20.8-47.6 41.7-71.4 62.5-0.5 0.4-0.9 0.8-1.4 1.2-0.8 0.7-1.5 1.3-2.29999999 1.9-2.9 2.4 4.8-3.6 1.99999999-1.5-1.2 0.8-2.3 1.7-3.50000001 2.5-5.2 3.7-10.7 7.10000001-16.39999999 9.9l-2.4 1.2c-3.5 1.7 1.4-0.7 1.8-0.7-1.5 0-3.6 1.3-5 1.8-1.4 0.4-2.99999999 0.6-4.4 1.1-2.8 0.9 5.2-0.2 2.4-0.3-1 0-2.1 0.20000001-3.1 0.2-1.80000001 0-3.8-0.5-5.5-0.3-0.1 0 5.2 0.9 2.7 0.4-0.9-0.2-1.8-0.3-2.7-0.5-1.5-0.3-3-0.7-4.5-1.2-0.8-0.3-1.7-0.6-2.5-0.9-4.29999999-1.3 3.4 1.9 1.2 0.5-2.8-1.7-5.7-3.1-8.5-4.9-3.1-2 1.4 0.9 1.6 1.2-0.20000001-0.5-1.7-1.4-2-1.69999999-1.5-1.3-2.8-2.7-4.1-4.20000001-3.4-3.6 2.1 3.3-0.1 0.1-1-1.5-1.9-2.9-2.8-4.39999999-0.8-1.3-1.3-2.8-2.1-4.10000001-1.5-2.4 1.6 4.6 0.8 1.79999999-0.3-1.09999999-0.8-2.10000001-1.1-3.09999999-0.5-1.7-1.00000001-3.4-1.3-5.19999999-0.1-0.7-0.2-1.3-0.4-2.00000001-0.6-2.99999999 0.4 5.1 0.3 2-0.1-1.7-0.2-3.3-0.19999999-5-0.2-17.4 0-34.80000001-1e-8-52.2l1e-8-309.3c0-1.39999999 0.1-2.8 0.19999999-4.3 0.2-4.1-1.1 5.5 0 0 0.4-2 0.9-3.9 1.5-5.9 0.3-1.00000001 2.2-5.8 0.70000001-2.2-1.6 3.8 1.00000001-1.9 1.39999999-2.6 0.7-1.3 1.5-2.6 2.4-3.89999999 0.4-0.5 1.2-1.5 1.50000001-2.10000001-0.6 1.5-3.3 3.8-0.70000001 1.1 1.2-1.3 2.4-2.5 3.6-3.7 0.5-0.4 1-0.9 1.4-1.3 2.6-2.5-1.2 0.9-1.6 1.1 3-1.3 6-3.8 8.9-5.4 3.3-1.8-1.4 0.7-1.9 0.7 0.6 0 1.8-0.7 2.5-0.9 1.7-0.6 3.40000001-1.1 5.1-1.5 0.9-0.2 6.5-1.3 2.3-0.5-3.7 0.7-0.6 0.1 0.4 0.09999999 1.2-0.1 2.3-0.1 3.5-0.09999999 0.9 0 1.7 0.1 2.6 0.1 2.1 0 2.3 1.3-2.2-0.3 1.39999999 0.5 3.1 0.7 4.6 1.1 1.5 0.4 2.99999999 1 4.59999999 1.5 3.6 1.3-1.3-0.50000001-1.69999999-0.7 0.9 0.6 2.1 1 3.1 1.5 6 3 11.6 6.6 16.9 10.5l1.2 0.9c2.7 2-2.7-2-2.5-1.9 0.7 0.3 1.7 1.3 2.3 1.79999999l2.1 1.80000001c0.5 0.4 1 0.9 1.6 1.39999999 3.3 2.9 6.6 5.7 9.8 8.60000001 12.9 11.3 25.8 22.5 38.7 33.8 26.2 22.9 52.5 45.9 78.7 68.8l4.8 4.2c9.1 7.9 23.69999999 9.6 32.5 0 8-8.70000001 9.7-24.1 0-32.5-21.1-18.5-42.3-37-63.4-55.5-23.3-20.3-46.4-40.8-69.8-61-18.9-16.3-43.5-32.3-69.59999999-29.8-18.9 1.9-36.8 9.4-50.00000001 23.4-13.2 13.9-20.7 31.8-21.6 51-0.9 17.5-0.1 35.3-0.1 52.9L63.9 497.39999999 63.9 619.5l0 70.7c0 21.8 7.5 43.1 23.5 58.4 13.8 13.2 31.8 20.7 50.9 21.7 17.3 0.9 34.4-6.9 48.6-16.1 9.6-6.2 18.1-13.59999999 26.6-21 12.6-11.1 25.3-22.1 37.9-33.2 27.2-23.8 54.5-47.7 81.7-71.5l5.1-4.5c9.1-8 8.70000001-24.5 0-32.50000001-9.5-8.9-22.7-8.5-32.4 0zM793.8 650.6c-1.39999999 0-2.8-0.1-4.2-0.2-5-0.1 5.5 1.1 0.7 0.1-2.2-0.5-4.4-0.9-6.5-1.6-1.2-0.4-2.5-1.1-3.69999999-1.3 4.4 0.8 3.7 1.7 1.89999999 0.70000001-2.2-1.2-5.5-4.1-7.8-4.70000001 0.4 0.1 4.3 3.7 1.6 1.2-1-0.9-2-1.7-2.9-2.6-1.5-1.4-2.8-3.5-4.4-4.79999999 4 3.3 1.9 2.60000001 0.5 0.39999999-0.6-0.9-1.2-1.8-1.7-2.8-0.5-0.9-1.00000001-1.9-1.5-2.89999999-1-2.2-0.8-1.59999999 0.7 1.89999999-0.3-0.8-0.6-1.6-0.9-2.5-0.7-2.1-1.3-4.29999999-1.8-6.4-0.5-2.2 0.1-5.4 0 0.8 0-0.9-0.2-1.8-0.2-2.7-0.1-2.5 0.7-5.9 0.2-8.3 0.8 3.3-0.8 4.6-0.2 2.1 0.4-1.8 0.7-3.5 1.2-5.2 0.4-1.3 0.8-2.5 1.20000001-3.8 0.8-2.3 1.5-0.7-0.8 1.8 1.6-1.7 2.5-4.8 3.79999999-6.90000001 0.4-0.6 1.30000001-1.6 1.5-2.09999999-0.7 0.9-1.3 1.7-2.00000001 2.6 0.5-0.7 1.09999999-1.3 1.70000001-2 1.7-2 3.6-3.7 5.6-5.4 3.49999999-3.2-4.5 2.9-0.5 0.4 0.7-0.5 1.39999999-1 2.2-1.4 1.1-0.7 2.19999999-1.3 3.40000001-1.9 2.4-1.2 4.3-0.7-0.70000001 0.1 2.1-0.29999999 4.3-1.5 6.3-2.1l3.9-0.9c4.7-1.1-5.5 0.2-0.7 0.1 2.8-0.1 5.5-0.1 8.3 0 2.2 0.1 2.1 1.30000001-2-0.3 1.2 0.5 2.7 0.5 4 0.8 2.2 0.5 4.2 1.2 6.4 1.9 4.6 1.5-4.8-2.6-0.7-0.2 1.3 0.7 2.7 1.39999999 4 2.19999999l2.7 1.80000001c4 2.5-4-3.6-0.5-0.4 1.6 1.5 3.2 2.90000001 4.7 4.5 0.8 0.9 1.6 2.2 2.5 2.9-3.4-2.8-2.3-3.3-1.3-1.5 1.30000001 2.1 2.8 6.3 4.5 7.9-0.3-0.3-2-5.4-0.8-1.8 0.4 1.3 0.9 2.5 1.2 3.80000001 0.6 2.2 0.9 4.4 1.4 6.59999999-1.6-6.4-0.4-2.6-0.30000001-0.7 0.1 1.4 0.1 2.8 0.10000001 4.2 0 0.9-0.1 1.8-0.1 2.8-0.2 2.5-0.1 1.8 0.3-2-0.1 0.9-0.3 1.8-0.5 2.7-0.5 2.6-1.4 5.1-2.2 7.7-1.5 4.6 2.6-4.8 0.2-0.7-0.6 1.1-1.2 2.3-1.9 3.5l-2.09999999 3.3c-2.3 3.7 3.8-4 0 0-1.89999999 2.1-3.9 4-6.00000001 5.9-1.80000001 1.6-1.6-0.1 1.6-1.2-1.39999999 0.5-2.99999999 2.1-4.4 2.8-0.9 0.6-1.9 1.00000001-2.9 1.59999999-4.8 2.7 4.20000001-1.3 0.1 0.10000001-2.5 0.8-5.1 1.7-7.70000001 2.2-0.4 0.1-0.9 0.2-1.29999999 0.3-2.5 0.4-1.8 0.3 2.1-0.2-1.3-0.9-3.7-0.29999999-5.3-0.2-12 0.2-23.6 10.5-23 23 0.6 12.3 10.1 23.2 23 23 32.9-0.4 60.7-21 72.1-51.5 10.5-28.2 0.9-62.9-21.99999999-82.1-24.9-20.9-60.8-25.1-89.10000001-8.1-28.2 17-41.3 49.3-35.5 81.20000001 6.4 35.2 39.7 60.1 74.5 60.49999999 12 0.2 23.6-10.69999999 23.00000001-23-0.5-12.6-10.1-22.9-23.00000001-23z" fill="#000000" p-id="3230"></path><path d="M375.99999999 271.5L892.9 271.5c0.9 0 1.9 0.1 2.8 0.1 2 0 2.69999999 1.3-2-0.3 1.2 0.4 2.7 0.5 3.9 0.9 0.9 0.2 1.7 0.6 2.5 0.8 4.29999999 1.3-3.5-2.19999999-1.19999999-0.5 1.5 1.1 3.5 2 5.09999999 2.99999999 3.2 2-1.4-0.8-1.5-1.19999999 0.1 0.3 1.6 1.39999999 1.9 1.8 0.7 0.7 1.4 1.8 2.3 2.4 1.5 1.1-2.9-4.7-0.4-0.5 0.7 1.2 1.9 4.29999999 2.9 5.1-2-1.6-1.6-4.50000001-0.8-1.8 0.3 1.09999999 0.7 2.1 1 3.2 0.2 0.8 0.3 2.69999999 0.7 3.3-0.3-0.4-0.4-5.9-0.3-2 0 0.9 0.1 1.9 0.1 2.8 0.1 5.6 0 11.2 0 16.69999999L909.9 407.6 909.9 552.5 909.89999999 681l1e-8 39.6 0 10.5 0 2.4 0 0.5 0 0.1c0 0.9-0.1 1.9-0.1 2.79999999-0.1 4.8 1.2-5.3 0.1-0.69999999-0.5 2-1.1 3.9-1.7 5.8-0.9 2.9 2.8-5.1 0.4-1.3-0.5 0.7-0.8 1.5-1.3 2.3-0.50000001 0.8-1 1.5-1.4 2.2-2.3 3.8 3-2.8 0.8-1-0.8 0.59999999-1.5 1.7-2.3 2.4-0.3 0.3-0.6 0.6-0.99999999 0.9-1.80000001 1.6-1.3 1.2 1.6-1.1-1.5 0.6-2.9 2-4.40000002 2.9-0.7 0.4-4.5 1.8-0.79999999 0.6 3.9-1.3-0.4 0.1-1 0.3-1.5 0.5-4 0.50000001-5.2 1.29999999 2.6-1.7 4.8-0.5 1.30000001-0.29999999-1 0.1-0.7 0-2.10000001 0.1L375.9 751.3c-1.2 0-3.2-0.6-4.2-0.2 0.5-0.20000001 5.8 1.1 2.1 0.2-1.3-0.3-2.6-0.6-3.9-1-0.59999999-0.2-1.8-0.8-2.5-0.90000001 4.29999999 0.3 3.6 1.9 1.3 0.40000001-1.5-0.9-3.4-2.5-5-3.19999999 3.8 1.6 3.1 2.6 1.6 1.1-0.7-0.8-1.5-1.6-2.3-2.30000001-1.9-1.7-1.1-3.1 0.7 1.1-0.5-1.1-1.6-2.2-2.2-3.3-0.50000001-0.8-0.8-1.59999999-1.3-2.3-1.9-3.1 0.7 1.3 0.7 1.9 0-1.7-1.5-4.7-1.9-6.4-0.7-2.5 1.1-1.2 0.2 2.09999999 0.2-0.59999999-0.2-2.3-0.2-2.79999999L359 288.7c0-1.2 0.1-2.3 0.2-3.5 0.1-3.1-1.39999999 5.9-0.1 1.4 0.5-1.7 1.00000001-3.4 1.5-5.2 1.3-4.29999999-2.19999999 3.5-0.5 1.2 0.59999999-0.8 1-2 1.6-2.9 0.50000001-0.8 1-1.5 1.4-2.2 2-3.2-0.8 1.4-1.2 1.5 0.8-0.2 3.5-3.4 4.1-4.2 1.9-2.19999999-4.9 3.1-1 0.8 0.7-0.5 1.5-1 2.2-1.4 0.8-0.50000001 1.59999999-0.8 2.3-1.3 3.9-2.4-4.1 1.4-1.3 0.40000001 1.9-0.59999999 3.8-1.2 5.8-1.70000001 3.7-0.9-1.6 0.29999999-2.1 0.19999999 0.9 0.2 3.1-0.3 4.09999999-0.29999999 12-0.2 23.6-10.4 23.00000001-23-0.6-12.3-10.1-23.2-23-23-35.4 0.59999999-62.9 29.3-63 64.5l-1e-8 24.8 0 113.8 1e-8 148.7 0 121.20000001 0 30.99999999 0 4.6c0.29999999 22.3 12.1 43.3 31.4 54.5 12.5 7.2 25.9 8.5 39.8 8.5L889.7 797.1c24.9 0 49.10000001-12.2 59.9-35.6 5.8-12.6 6.4-24.9 6.4-38.2l0-375.5c0-19.7 0.3-39.5 0-59.2-0.5-35.2-29.2-62.9-64.2-63L376 225.6c-11.99999999 0-23.60000001 10.6-22.99999999 23 0.6 12.4 10.1 22.9 22.99999998 22.9z" fill="#000000" p-id="3231"></path></svg>