<?xml version="1.0" standalone="no"?><!DOCTYPE svg PUBLIC "-//W3C//DTD SVG 1.1//EN" "http://www.w3.org/Graphics/SVG/1.1/DTD/svg11.dtd"><svg t="1719198313363" class="icon" viewBox="0 0 1024 1024" version="1.1" xmlns="http://www.w3.org/2000/svg" p-id="2515" xmlns:xlink="http://www.w3.org/1999/xlink" width="32" height="32"><path d="M1014.848 721.728a14.336 14.336 0 0 1-3.84 11.648c-3.84 7.744-7.744 11.648-15.488 11.648a35.008 35.008 0 0 1-19.2-3.84l-186.176-108.8v-275.2l186.048-108.8a27.584 27.584 0 0 1 38.72 23.232v449.792z" fill="#666666" p-id="2516"></path><path d="M803.584 251.456A60.352 60.352 0 0 0 740.928 192H126.656A60.352 60.352 0 0 0 64 251.456v490.816a60.352 60.352 0 0 0 62.656 59.456h618.24a60.352 60.352 0 0 0 62.656-59.456zM192 381.568a51.2 51.2 0 1 1 51.2-51.2 51.2 51.2 0 0 1-51.2 51.2z" fill="#666666" p-id="2517"></path></svg>