<?xml version="1.0" encoding="UTF-8"?>
<svg width="16px" height="16px" viewBox="0 0 16 16" version="1.1" xmlns="http://www.w3.org/2000/svg" xmlns:xlink="http://www.w3.org/1999/xlink">
    <title>icon-添加</title>
    <defs>
        <polygon id="path-1" points="-2.27373675e-13 0 16 0 16 16 -2.27373675e-13 16"></polygon>
    </defs>
    <g id="页面-1" stroke="none" stroke-width="1" fill="none" fill-rule="evenodd">
        <g id="4弹窗" transform="translate(-584.000000, -368.000000)">
            <g id="编组-5" transform="translate(253.000000, 136.000000)">
                <g id="编组-18" transform="translate(46.000000, 61.000000)">
                    <g id="编组-2" transform="translate(77.000000, 163.000000)">
                        <g id="icon-添加" transform="translate(208.000000, 8.000000)">
                            <mask id="mask-2" fill="white">
                                <use xlink:href="#path-1"></use>
                            </mask>
                            <use id="矩形" fill="#D8D8D8" opacity="0" xlink:href="#path-1"></use>
                            <g id="Group-15" mask="url(#mask-2)" fill="#0096FF" fill-rule="nonzero">
                                <g transform="translate(8.072989, 7.503179) rotate(-315.000000) translate(-8.072989, -7.503179) translate(0.072989, -0.496821)">
                                    <path d="M8.39395828,0.902289828 C12.5665713,0.902289828 15.9605418,4.27925229 15.9605418,8.4312381 C15.9605418,12.5047592 12.6934146,15.8323275 8.62929348,15.9564459 L8.39395828,15.960035 L8.15861592,15.956446 C4.09437263,15.8323284 0.827222689,12.5047823 0.827222689,8.4312381 C0.827222689,4.27922871 4.22121682,0.902289828 8.39395828,0.902289828 Z M8.39395828,2.14632648 L8.17252329,2.15013446 C4.79136142,2.26659139 2.07706701,5.03941262 2.07706701,8.4312381 C2.07706701,11.8966854 4.91069499,14.716074 8.39395828,14.716074 C11.8771572,14.716074 14.7107735,11.8966738 14.7107735,8.4312381 C14.7107735,5.039424 11.9964903,2.26659188 8.61538923,2.15013447 L8.39395828,2.14632648 Z" id="Fill-1"></path>
                                    <path d="M5.70678066,11.7581258 C5.5578844,11.7347392 5.41901029,11.6652769 5.30920433,11.5553204 C5.05265494,11.2988588 5.02933226,10.8960203 5.23922403,10.6129571 L5.30918798,10.5318975 L10.5325172,5.30864603 C10.8145693,5.02640069 11.2718329,5.02640069 11.5558445,5.30857766 C11.8124801,5.56503757 11.8358106,5.96781166 11.6258617,6.25099368 L11.5558787,6.33209462 L6.33270418,11.5552691 C6.22291513,11.6651334 6.08304829,11.7346838 5.93359842,11.7581094 L5.82003443,11.7669394 L5.70678066,11.7581258 Z" id="Fill-4"></path>
                                    <path d="M5.70678066,11.7581258 C5.5578844,11.7347392 5.41901029,11.6652769 5.30920433,11.5553204 C5.05265494,11.2988588 5.02933226,10.8960203 5.23922403,10.6129571 L5.30918798,10.5318975 L10.5325172,5.30864603 C10.8145693,5.02640069 11.2718329,5.02640069 11.5558445,5.30857766 C11.8124801,5.56503757 11.8358106,5.96781166 11.6258617,6.25099368 L11.5558787,6.33209462 L6.33270418,11.5552691 C6.22291513,11.6651334 6.08304829,11.7346838 5.93359842,11.7581094 L5.82003443,11.7669394 L5.70678066,11.7581258 Z" id="Fill-4备份" transform="translate(8.432561, 8.431946) rotate(-270.000000) translate(-8.432561, -8.431946) "></path>
                                </g>
                            </g>
                        </g>
                    </g>
                </g>
            </g>
        </g>
    </g>
</svg>