<svg width="22" height="23" viewBox="0 0 22 23" fill="none" xmlns="http://www.w3.org/2000/svg">
<g filter="url(#filter0_i_115_4743)">
<path d="M3.1543 2.76807C3.1543 2.21578 3.60201 1.76807 4.1543 1.76807H17.8466C18.3989 1.76807 18.8466 2.21578 18.8466 2.76807V15.5373C18.8466 16.0896 18.3989 16.5373 17.8466 16.5373H4.1543C3.60201 16.5373 3.1543 16.0896 3.1543 15.5373V2.76807Z" fill="url(#paint0_linear_115_4743)"/>
</g>
<g filter="url(#filter1_ddi_115_4743)">
<path d="M4.53857 4.21328C4.53857 3.88191 4.8072 3.61328 5.13857 3.61328H16.8617C17.193 3.61328 17.4617 3.88191 17.4617 4.21328V14.0902C17.4617 14.4216 17.193 14.6902 16.8617 14.6902H5.13857C4.8072 14.6902 4.53857 14.4216 4.53857 14.0902V4.21328Z" fill="url(#paint1_linear_115_4743)"/>
</g>
<path d="M8.89096 8.59863H12.1866C12.5511 8.59863 12.8466 8.89412 12.8466 9.25863C12.8466 9.62314 12.5511 9.91863 12.1866 9.91863H8.89096C8.52645 9.91863 8.23096 9.62314 8.23096 9.25863C8.23096 8.89412 8.52645 8.59863 8.89096 8.59863Z" fill="url(#paint2_linear_115_4743)"/>
<path d="M8.89096 5.45996L15.4171 5.45996C15.7816 5.45996 16.0771 5.75545 16.0771 6.11996C16.0771 6.48447 15.7816 6.77996 15.4171 6.77996L8.89096 6.77996C8.52645 6.77996 8.23096 6.48447 8.23096 6.11996C8.23096 5.75545 8.52645 5.45996 8.89096 5.45996Z" fill="url(#paint3_linear_115_4743)"/>
<circle cx="6.56949" cy="6.10611" r="0.646154" fill="url(#paint4_linear_115_4743)"/>
<path d="M7.21565 9.24381C7.21565 9.60067 6.92635 9.88996 6.56949 9.88996C6.21263 9.88996 5.92334 9.60067 5.92334 9.24381C5.92334 8.88695 6.21263 8.59766 6.56949 8.59766C6.92635 8.59766 7.21565 8.88695 7.21565 9.24381Z" fill="url(#paint5_linear_115_4743)"/>
<path d="M7.03103 11.5509C7.03103 11.8568 6.78307 12.1048 6.47719 12.1048C6.17131 12.1048 5.92334 11.8568 5.92334 11.5509C5.92334 11.245 6.17131 10.9971 6.47719 10.9971C6.78307 10.9971 7.03103 11.245 7.03103 11.5509Z" fill="url(#paint6_linear_115_4743)"/>
<g filter="url(#filter2_i_115_4743)">
<path d="M2.23108 11.9981C2.23109 11.4458 2.6788 10.9981 3.23107 10.9981L6.98435 10.998C7.20414 10.998 7.41782 11.0705 7.59232 11.2041L8.86238 12.1766C9.03689 12.3103 9.25056 12.3827 9.47035 12.3827H18.7694C19.3217 12.3827 19.7694 12.8304 19.7694 13.3827L19.7693 19.2263C19.7693 19.7795 19.3201 20.2276 18.7669 20.2263L3.22855 20.1887C2.67721 20.1873 2.23096 19.74 2.23097 19.1887L2.23108 11.9981Z" fill="url(#paint7_linear_115_4743)"/>
</g>
<path opacity="0.68" d="M2.23096 18.8457H19.7694V19.2303C19.7694 19.7826 19.3217 20.2303 18.7694 20.2303H3.23096C2.67867 20.2303 2.23096 19.7826 2.23096 19.2303V18.8457Z" fill="#7AAAFF"/>
<g filter="url(#filter3_di_115_4743)">
<path d="M14.463 19.4504C14.6001 19.5553 14.7443 19.6508 14.8947 19.7363C15.0451 19.8218 15.2013 19.8971 15.3621 19.9616C15.458 19.9999 15.563 20.0102 15.6647 19.9913C15.7663 19.9724 15.8603 19.9251 15.9354 19.8551C16.1684 19.6428 16.4743 19.5249 16.7917 19.5252C17.1081 19.525 17.4129 19.6419 17.6458 19.8528C17.7208 19.9225 17.8145 19.9696 17.9158 19.9884C18.0171 20.0073 18.1218 19.9972 18.2175 19.9593C18.5404 19.8311 18.8437 19.6596 19.119 19.4497C19.2001 19.3865 19.2614 19.302 19.2958 19.2059C19.3302 19.1098 19.3362 19.0061 19.3132 18.9068C19.2434 18.6022 19.2929 18.2829 19.4517 18.0127C19.61 17.7425 19.8659 17.5409 20.1684 17.4481C20.2673 17.4181 20.3555 17.3612 20.4229 17.2838C20.4902 17.2064 20.5339 17.1118 20.5489 17.011C20.5956 16.6729 20.5948 16.3284 20.5463 15.9872C20.5171 15.7825 20.3718 15.6158 20.1669 15.5523C19.865 15.4594 19.6097 15.258 19.4517 14.9881C19.2929 14.7176 19.2435 14.3981 19.3136 14.0933C19.361 13.8863 19.287 13.6782 19.1205 13.5508C18.8462 13.3412 18.543 13.1685 18.2213 13.0393C18.1253 13.0011 18.0203 12.9908 17.9185 13.0098C17.8168 13.0287 17.7228 13.076 17.6477 13.1461C17.4136 13.3587 17.11 13.4757 16.7913 13.4757C16.4751 13.476 16.1703 13.359 15.9377 13.148C15.7795 13.0045 15.5602 12.9645 15.3659 13.0419C15.0431 13.1701 14.7398 13.3415 14.4645 13.5511C14.3833 13.6144 14.3219 13.6989 14.2875 13.7951C14.2531 13.8913 14.2471 13.995 14.2702 14.0944C14.34 14.3988 14.2907 14.718 14.1321 14.9881C13.9728 15.259 13.7186 15.4597 13.415 15.5531C13.3162 15.5831 13.2279 15.6401 13.1606 15.7174C13.0932 15.7948 13.0495 15.8894 13.0345 15.9902C12.9876 16.33 12.9885 16.6745 13.0372 17.014C13.0517 17.1145 13.0951 17.2088 13.1624 17.2857C13.2296 17.3627 13.3178 17.419 13.4166 17.4481C13.7186 17.5413 13.9739 17.743 14.1317 18.0131C14.2907 18.2836 14.34 18.6032 14.2698 18.9079C14.2458 19.0071 14.2512 19.1109 14.2855 19.2071C14.3197 19.3033 14.3813 19.3878 14.463 19.4504Z" fill="url(#paint8_linear_115_4743)"/>
</g>
<g filter="url(#filter4_d_115_4743)">
<ellipse cx="16.7917" cy="16.4981" rx="1.16278" ry="1.15" fill="url(#paint9_linear_115_4743)"/>
</g>
<defs>
<filter id="filter0_i_115_4743" x="3.1543" y="1.76807" width="15.6924" height="15.769" filterUnits="userSpaceOnUse" color-interpolation-filters="sRGB">
<feFlood flood-opacity="0" result="BackgroundImageFix"/>
<feBlend mode="normal" in="SourceGraphic" in2="BackgroundImageFix" result="shape"/>
<feColorMatrix in="SourceAlpha" type="matrix" values="0 0 0 0 0 0 0 0 0 0 0 0 0 0 0 0 0 0 127 0" result="hardAlpha"/>
<feOffset dy="1"/>
<feGaussianBlur stdDeviation="1"/>
<feComposite in2="hardAlpha" operator="arithmetic" k2="-1" k3="1"/>
<feColorMatrix type="matrix" values="0 0 0 0 0.725 0 0 0 0 0.840675 0 0 0 0 1 0 0 0 0.3 0"/>
<feBlend mode="lighten" in2="shape" result="effect1_innerShadow_115_4743"/>
</filter>
<filter id="filter1_ddi_115_4743" x="0.538574" y="2.61328" width="20.9229" height="20.0771" filterUnits="userSpaceOnUse" color-interpolation-filters="sRGB">
<feFlood flood-opacity="0" result="BackgroundImageFix"/>
<feColorMatrix in="SourceAlpha" type="matrix" values="0 0 0 0 0 0 0 0 0 0 0 0 0 0 0 0 0 0 127 0" result="hardAlpha"/>
<feOffset dy="1"/>
<feGaussianBlur stdDeviation="1"/>
<feColorMatrix type="matrix" values="0 0 0 0 0 0 0 0 0 0 0 0 0 0 0 0 0 0 0.05 0"/>
<feBlend mode="normal" in2="BackgroundImageFix" result="effect1_dropShadow_115_4743"/>
<feColorMatrix in="SourceAlpha" type="matrix" values="0 0 0 0 0 0 0 0 0 0 0 0 0 0 0 0 0 0 127 0" result="hardAlpha"/>
<feOffset dy="4"/>
<feGaussianBlur stdDeviation="2"/>
<feComposite in2="hardAlpha" operator="out"/>
<feColorMatrix type="matrix" values="0 0 0 0 0 0 0 0 0 0 0 0 0 0 0 0 0 0 0.25 0"/>
<feBlend mode="normal" in2="effect1_dropShadow_115_4743" result="effect2_dropShadow_115_4743"/>
<feBlend mode="normal" in="SourceGraphic" in2="effect2_dropShadow_115_4743" result="shape"/>
<feColorMatrix in="SourceAlpha" type="matrix" values="0 0 0 0 0 0 0 0 0 0 0 0 0 0 0 0 0 0 127 0" result="hardAlpha"/>
<feOffset dy="0.5"/>
<feGaussianBlur stdDeviation="0.5"/>
<feComposite in2="hardAlpha" operator="arithmetic" k2="-1" k3="1"/>
<feColorMatrix type="matrix" values="0 0 0 0 1 0 0 0 0 1 0 0 0 0 1 0 0 0 0.5 0"/>
<feBlend mode="normal" in2="shape" result="effect3_innerShadow_115_4743"/>
</filter>
<filter id="filter2_i_115_4743" x="2.23096" y="10.998" width="17.5386" height="10.228" filterUnits="userSpaceOnUse" color-interpolation-filters="sRGB">
<feFlood flood-opacity="0" result="BackgroundImageFix"/>
<feBlend mode="normal" in="SourceGraphic" in2="BackgroundImageFix" result="shape"/>
<feColorMatrix in="SourceAlpha" type="matrix" values="0 0 0 0 0 0 0 0 0 0 0 0 0 0 0 0 0 0 127 0" result="hardAlpha"/>
<feOffset dy="1"/>
<feGaussianBlur stdDeviation="1"/>
<feComposite in2="hardAlpha" operator="arithmetic" k2="-1" k3="1"/>
<feColorMatrix type="matrix" values="0 0 0 0 0.725 0 0 0 0 0.840675 0 0 0 0 1 0 0 0 0.3 0"/>
<feBlend mode="lighten" in2="shape" result="effect1_innerShadow_115_4743"/>
</filter>
<filter id="filter3_di_115_4743" x="12" y="13.0005" width="9.5835" height="9" filterUnits="userSpaceOnUse" color-interpolation-filters="sRGB">
<feFlood flood-opacity="0" result="BackgroundImageFix"/>
<feColorMatrix in="SourceAlpha" type="matrix" values="0 0 0 0 0 0 0 0 0 0 0 0 0 0 0 0 0 0 127 0" result="hardAlpha"/>
<feOffset dy="1"/>
<feGaussianBlur stdDeviation="0.5"/>
<feComposite in2="hardAlpha" operator="out"/>
<feColorMatrix type="matrix" values="0 0 0 0 0.770833 0 0 0 0 0.519956 0 0 0 0 0.295486 0 0 0 0.22 0"/>
<feBlend mode="normal" in2="BackgroundImageFix" result="effect1_dropShadow_115_4743"/>
<feBlend mode="normal" in="SourceGraphic" in2="effect1_dropShadow_115_4743" result="shape"/>
<feColorMatrix in="SourceAlpha" type="matrix" values="0 0 0 0 0 0 0 0 0 0 0 0 0 0 0 0 0 0 127 0" result="hardAlpha"/>
<feOffset dy="1"/>
<feGaussianBlur stdDeviation="0.5"/>
<feComposite in2="hardAlpha" operator="arithmetic" k2="-1" k3="1"/>
<feColorMatrix type="matrix" values="0 0 0 0 1 0 0 0 0 1 0 0 0 0 1 0 0 0 0.3 0"/>
<feBlend mode="normal" in2="shape" result="effect2_innerShadow_115_4743"/>
</filter>
<filter id="filter4_d_115_4743" x="13.6289" y="14.3481" width="6.32568" height="6.2998" filterUnits="userSpaceOnUse" color-interpolation-filters="sRGB">
<feFlood flood-opacity="0" result="BackgroundImageFix"/>
<feColorMatrix in="SourceAlpha" type="matrix" values="0 0 0 0 0 0 0 0 0 0 0 0 0 0 0 0 0 0 127 0" result="hardAlpha"/>
<feOffset dy="1"/>
<feGaussianBlur stdDeviation="1"/>
<feColorMatrix type="matrix" values="0 0 0 0 0 0 0 0 0 0 0 0 0 0 0 0 0 0 0.05 0"/>
<feBlend mode="normal" in2="BackgroundImageFix" result="effect1_dropShadow_115_4743"/>
<feBlend mode="normal" in="SourceGraphic" in2="effect1_dropShadow_115_4743" result="shape"/>
</filter>
<linearGradient id="paint0_linear_115_4743" x1="5.5685" y1="4.53802" x2="20.6933" y2="9.59135" gradientUnits="userSpaceOnUse">
<stop stop-color="#4B89F3"/>
<stop offset="1" stop-color="#0053E0"/>
</linearGradient>
<linearGradient id="paint1_linear_115_4743" x1="13.827" y1="16.645" x2="12.3138" y2="2.7911" gradientUnits="userSpaceOnUse">
<stop stop-color="#F8FBFF"/>
<stop offset="0.958925" stop-color="#F9FCFF"/>
</linearGradient>
<linearGradient id="paint2_linear_115_4743" x1="19.0317" y1="10.0653" x2="8.69533" y2="8.74048" gradientUnits="userSpaceOnUse">
<stop stop-color="#8CBCFF"/>
<stop offset="1" stop-color="#4F94F4"/>
</linearGradient>
<linearGradient id="paint3_linear_115_4743" x1="26.5914" y1="6.92663" x2="9.54111" y2="3.21173" gradientUnits="userSpaceOnUse">
<stop stop-color="#8CBCFF"/>
<stop offset="1" stop-color="#4F94F4"/>
</linearGradient>
<linearGradient id="paint4_linear_115_4743" x1="7.30796" y1="6.38304" x2="5.05475" y2="4.9148" gradientUnits="userSpaceOnUse">
<stop stop-color="#FA601D"/>
<stop offset="1" stop-color="#FF8E17"/>
</linearGradient>
<linearGradient id="paint5_linear_115_4743" x1="7.29583" y1="9.67718" x2="6.05177" y2="9.62547" gradientUnits="userSpaceOnUse">
<stop stop-color="#FA601D"/>
<stop offset="1" stop-color="#FF8E17"/>
</linearGradient>
<linearGradient id="paint6_linear_115_4743" x1="7.09976" y1="11.9224" x2="6.03343" y2="11.8781" gradientUnits="userSpaceOnUse">
<stop stop-color="#FA601D"/>
<stop offset="1" stop-color="#FF8E17"/>
</linearGradient>
<linearGradient id="paint7_linear_115_4743" x1="4.90333" y1="6.94552" x2="21.6172" y2="12.769" gradientUnits="userSpaceOnUse">
<stop stop-color="#4B89F3"/>
<stop offset="1" stop-color="#0053E0"/>
</linearGradient>
<linearGradient id="paint8_linear_115_4743" x1="21.0538" y1="18.8479" x2="13.7558" y2="18.5193" gradientUnits="userSpaceOnUse">
<stop stop-color="#FA601D"/>
<stop offset="1" stop-color="#FFAA51"/>
</linearGradient>
<linearGradient id="paint9_linear_115_4743" x1="15.7143" y1="17.7285" x2="16.1735" y2="16.8124" gradientUnits="userSpaceOnUse">
<stop stop-color="#F5F5F7" stop-opacity="0.66"/>
<stop offset="0.958925" stop-color="#F5F5F7"/>
</linearGradient>
</defs>
</svg>
