<svg width="22" height="23" viewBox="0 0 22 23" fill="none" xmlns="http://www.w3.org/2000/svg">
<g filter="url(#filter0_i_115_4772)">
<path d="M2.23096 4.0459C2.23096 3.49361 2.67867 3.0459 3.23096 3.0459H18.7694C19.3217 3.0459 19.7694 3.49361 19.7694 4.0459V19.501C19.7694 20.0533 19.3217 20.501 18.7694 20.501H3.23096C2.67867 20.501 2.23096 20.0533 2.23096 19.501L2.23096 4.0459Z" fill="url(#paint0_linear_115_4772)"/>
</g>
<g filter="url(#filter1_d_115_4772)">
<path d="M3.61572 8.66211C3.61572 8.10983 4.06344 7.66211 4.61572 7.66211H17.385C17.9372 7.66211 18.385 8.10982 18.385 8.66211V18.6006C18.385 18.9319 18.1163 19.2006 17.785 19.2006H4.21572C3.88435 19.2006 3.61572 18.9319 3.61572 18.6006V8.66211Z" fill="url(#paint1_linear_115_4772)"/>
</g>
<g filter="url(#filter2_d_115_4772)">
<path d="M3.61572 8.66211C3.61572 8.10982 4.06344 7.66211 4.61572 7.66211H17.385C17.9372 7.66211 18.385 8.10982 18.385 8.66211V17.6775C18.385 18.0089 18.1163 18.2775 17.785 18.2775H4.21572C3.88435 18.2775 3.61572 18.0089 3.61572 17.6775V8.66211Z" fill="url(#paint2_linear_115_4772)"/>
</g>
<g filter="url(#filter3_d_115_4772)">
<path d="M3.61572 8.06211C3.61572 7.8412 3.79481 7.66211 4.01572 7.66211H17.985C18.2059 7.66211 18.385 7.83943 18.385 8.06035C18.385 9.20037 18.385 12.4432 18.385 13.2006C18.385 14.1236 18.385 15.9698 17.0003 16.8929C15.6157 17.816 12.8465 17.816 11.0003 17.816C9.52869 17.816 5.71083 17.8709 4.22242 17.8933C3.88742 17.8983 3.61572 17.6281 3.61572 17.293V8.06211Z" fill="url(#paint3_linear_115_4772)"/>
</g>
<g filter="url(#filter4_di_115_4772)">
<path d="M7.98535 12.3704C7.81478 12.5241 7.80126 12.7866 7.95482 12.957L10.1793 15.4258C10.3328 15.5962 10.5954 15.61 10.7659 15.4563L15.0862 11.5635C15.2568 11.4098 15.2703 11.1473 15.1167 10.9768L14.5606 10.3597C14.4071 10.1892 14.1445 10.1754 13.974 10.3291L10.5795 13.3878L9.18918 11.8448C9.03562 11.6744 8.7731 11.6606 8.60253 11.8143L7.98535 12.3704Z" fill="url(#paint4_linear_115_4772)"/>
</g>
<circle cx="6.3851" cy="5.35483" r="1.38462" fill="#C6DAFF"/>
<circle cx="6.38499" cy="5.35716" r="0.923077" fill="white"/>
<circle cx="15.6156" cy="5.35483" r="1.38462" fill="#C6DAFF"/>
<circle cx="15.6155" cy="5.35716" r="0.923077" fill="white"/>
<g filter="url(#filter5_i_115_4772)">
<rect x="5.46191" y="1.2002" width="1.84615" height="4.61538" rx="0.923077" fill="url(#paint5_linear_115_4772)"/>
</g>
<g filter="url(#filter6_i_115_4772)">
<rect x="14.6929" y="1.2002" width="1.84615" height="4.61538" rx="0.923077" fill="url(#paint6_linear_115_4772)"/>
</g>
<defs>
<filter id="filter0_i_115_4772" x="2.23096" y="3.0459" width="17.5386" height="18.4551" filterUnits="userSpaceOnUse" color-interpolation-filters="sRGB">
<feFlood flood-opacity="0" result="BackgroundImageFix"/>
<feBlend mode="normal" in="SourceGraphic" in2="BackgroundImageFix" result="shape"/>
<feColorMatrix in="SourceAlpha" type="matrix" values="0 0 0 0 0 0 0 0 0 0 0 0 0 0 0 0 0 0 127 0" result="hardAlpha"/>
<feOffset dy="1"/>
<feGaussianBlur stdDeviation="1"/>
<feComposite in2="hardAlpha" operator="arithmetic" k2="-1" k3="1"/>
<feColorMatrix type="matrix" values="0 0 0 0 0.725 0 0 0 0 0.840675 0 0 0 0 1 0 0 0 0.3 0"/>
<feBlend mode="lighten" in2="shape" result="effect1_innerShadow_115_4772"/>
</filter>
<filter id="filter1_d_115_4772" x="1.61572" y="6.66211" width="18.769" height="15.5386" filterUnits="userSpaceOnUse" color-interpolation-filters="sRGB">
<feFlood flood-opacity="0" result="BackgroundImageFix"/>
<feColorMatrix in="SourceAlpha" type="matrix" values="0 0 0 0 0 0 0 0 0 0 0 0 0 0 0 0 0 0 127 0" result="hardAlpha"/>
<feOffset dy="1"/>
<feGaussianBlur stdDeviation="1"/>
<feColorMatrix type="matrix" values="0 0 0 0 0 0 0 0 0 0 0 0 0 0 0 0 0 0 0.1 0"/>
<feBlend mode="normal" in2="BackgroundImageFix" result="effect1_dropShadow_115_4772"/>
<feBlend mode="normal" in="SourceGraphic" in2="effect1_dropShadow_115_4772" result="shape"/>
</filter>
<filter id="filter2_d_115_4772" x="1.61572" y="6.66211" width="18.769" height="14.6152" filterUnits="userSpaceOnUse" color-interpolation-filters="sRGB">
<feFlood flood-opacity="0" result="BackgroundImageFix"/>
<feColorMatrix in="SourceAlpha" type="matrix" values="0 0 0 0 0 0 0 0 0 0 0 0 0 0 0 0 0 0 127 0" result="hardAlpha"/>
<feOffset dy="1"/>
<feGaussianBlur stdDeviation="1"/>
<feColorMatrix type="matrix" values="0 0 0 0 0 0 0 0 0 0 0 0 0 0 0 0 0 0 0.1 0"/>
<feBlend mode="normal" in2="BackgroundImageFix" result="effect1_dropShadow_115_4772"/>
<feBlend mode="normal" in="SourceGraphic" in2="effect1_dropShadow_115_4772" result="shape"/>
</filter>
<filter id="filter3_d_115_4772" x="1.61572" y="6.66211" width="18.769" height="14.2314" filterUnits="userSpaceOnUse" color-interpolation-filters="sRGB">
<feFlood flood-opacity="0" result="BackgroundImageFix"/>
<feColorMatrix in="SourceAlpha" type="matrix" values="0 0 0 0 0 0 0 0 0 0 0 0 0 0 0 0 0 0 127 0" result="hardAlpha"/>
<feOffset dy="1"/>
<feGaussianBlur stdDeviation="1"/>
<feColorMatrix type="matrix" values="0 0 0 0 0 0 0 0 0 0 0 0 0 0 0 0 0 0 0.1 0"/>
<feBlend mode="normal" in2="BackgroundImageFix" result="effect1_dropShadow_115_4772"/>
<feBlend mode="normal" in="SourceGraphic" in2="effect1_dropShadow_115_4772" result="shape"/>
</filter>
<filter id="filter4_di_115_4772" x="6.84814" y="10.2222" width="9.37549" height="7.34082" filterUnits="userSpaceOnUse" color-interpolation-filters="sRGB">
<feFlood flood-opacity="0" result="BackgroundImageFix"/>
<feColorMatrix in="SourceAlpha" type="matrix" values="0 0 0 0 0 0 0 0 0 0 0 0 0 0 0 0 0 0 127 0" result="hardAlpha"/>
<feOffset dy="1"/>
<feGaussianBlur stdDeviation="0.5"/>
<feComposite in2="hardAlpha" operator="out"/>
<feColorMatrix type="matrix" values="0 0 0 0 0.770833 0 0 0 0 0.519956 0 0 0 0 0.295486 0 0 0 0.22 0"/>
<feBlend mode="normal" in2="BackgroundImageFix" result="effect1_dropShadow_115_4772"/>
<feBlend mode="normal" in="SourceGraphic" in2="effect1_dropShadow_115_4772" result="shape"/>
<feColorMatrix in="SourceAlpha" type="matrix" values="0 0 0 0 0 0 0 0 0 0 0 0 0 0 0 0 0 0 127 0" result="hardAlpha"/>
<feOffset dy="1"/>
<feGaussianBlur stdDeviation="0.5"/>
<feComposite in2="hardAlpha" operator="arithmetic" k2="-1" k3="1"/>
<feColorMatrix type="matrix" values="0 0 0 0 1 0 0 0 0 1 0 0 0 0 1 0 0 0 0.3 0"/>
<feBlend mode="normal" in2="shape" result="effect2_innerShadow_115_4772"/>
</filter>
<filter id="filter5_i_115_4772" x="5.46191" y="1.2002" width="1.84619" height="5.61523" filterUnits="userSpaceOnUse" color-interpolation-filters="sRGB">
<feFlood flood-opacity="0" result="BackgroundImageFix"/>
<feBlend mode="normal" in="SourceGraphic" in2="BackgroundImageFix" result="shape"/>
<feColorMatrix in="SourceAlpha" type="matrix" values="0 0 0 0 0 0 0 0 0 0 0 0 0 0 0 0 0 0 127 0" result="hardAlpha"/>
<feOffset dy="1"/>
<feGaussianBlur stdDeviation="0.5"/>
<feComposite in2="hardAlpha" operator="arithmetic" k2="-1" k3="1"/>
<feColorMatrix type="matrix" values="0 0 0 0 1 0 0 0 0 1 0 0 0 0 1 0 0 0 0.1 0"/>
<feBlend mode="normal" in2="shape" result="effect1_innerShadow_115_4772"/>
</filter>
<filter id="filter6_i_115_4772" x="14.6929" y="1.2002" width="1.84619" height="5.61523" filterUnits="userSpaceOnUse" color-interpolation-filters="sRGB">
<feFlood flood-opacity="0" result="BackgroundImageFix"/>
<feBlend mode="normal" in="SourceGraphic" in2="BackgroundImageFix" result="shape"/>
<feColorMatrix in="SourceAlpha" type="matrix" values="0 0 0 0 0 0 0 0 0 0 0 0 0 0 0 0 0 0 127 0" result="hardAlpha"/>
<feOffset dy="1"/>
<feGaussianBlur stdDeviation="0.5"/>
<feComposite in2="hardAlpha" operator="arithmetic" k2="-1" k3="1"/>
<feColorMatrix type="matrix" values="0 0 0 0 1 0 0 0 0 1 0 0 0 0 1 0 0 0 0.1 0"/>
<feBlend mode="normal" in2="shape" result="effect1_innerShadow_115_4772"/>
</filter>
<linearGradient id="paint0_linear_115_4772" x1="4.92918" y1="2.58538" x2="22.4983" y2="7.219" gradientUnits="userSpaceOnUse">
<stop stop-color="#4B89F3"/>
<stop offset="1" stop-color="#0053E0"/>
</linearGradient>
<linearGradient id="paint1_linear_115_4772" x1="12.385" y1="19.2006" x2="16.1733" y2="9.6219" gradientUnits="userSpaceOnUse">
<stop stop-color="#6D96FF" stop-opacity="0.9"/>
<stop offset="0.958925" stop-color="#FEFEFF"/>
</linearGradient>
<linearGradient id="paint2_linear_115_4772" x1="17.4619" y1="18.2775" x2="12.3689" y2="10.601" gradientUnits="userSpaceOnUse">
<stop stop-color="#AAC2FF" stop-opacity="0.9"/>
<stop offset="0.958925" stop-color="#EEEEFF"/>
</linearGradient>
<linearGradient id="paint3_linear_115_4772" x1="18.7777" y1="19.1874" x2="13.7358" y2="6.01642" gradientUnits="userSpaceOnUse">
<stop stop-color="#F5F5F7" stop-opacity="0.9"/>
<stop offset="0.958925" stop-color="#FEFEFF"/>
</linearGradient>
<linearGradient id="paint4_linear_115_4772" x1="15.2433" y1="10.5013" x2="10.2189" y2="14.4573" gradientUnits="userSpaceOnUse">
<stop stop-color="#FA601D"/>
<stop offset="1" stop-color="#FF8E17"/>
</linearGradient>
<linearGradient id="paint5_linear_115_4772" x1="6.51686" y1="1.2002" x2="8.12482" y2="1.61367" gradientUnits="userSpaceOnUse">
<stop stop-color="#FA601D"/>
<stop offset="1" stop-color="#FFCE9B"/>
</linearGradient>
<linearGradient id="paint6_linear_115_4772" x1="15.7478" y1="1.2002" x2="17.3558" y2="1.61367" gradientUnits="userSpaceOnUse">
<stop stop-color="#FA601D"/>
<stop offset="1" stop-color="#FFCE9B"/>
</linearGradient>
</defs>
</svg>
