<svg width="22" height="23" viewBox="0 0 22 23" fill="none" xmlns="http://www.w3.org/2000/svg">
<g filter="url(#filter0_i_272_11266)">
<path d="M2.5 4.17651C2.5 3.62423 2.94772 3.17651 3.5 3.17651H18.2647C18.817 3.17651 19.2647 3.62423 19.2647 4.17651V19.5C19.2647 20.0523 18.817 20.5 18.2647 20.5H3.5C2.94772 20.5 2.5 20.0523 2.5 19.5V4.17651Z" fill="url(#paint0_linear_272_11266)"/>
</g>
<g filter="url(#filter1_d_272_11266)">
<path d="M17.5471 4.29407H4.21768C3.8863 4.29407 3.61768 4.5627 3.61768 4.89407V18.7823C3.61768 19.1137 3.88631 19.3823 4.21768 19.3823H14.0134C14.1566 19.3823 14.2951 19.3311 14.4038 19.2379L17.9376 16.209C18.0705 16.095 18.1471 15.9286 18.1471 15.7534V4.89407C18.1471 4.5627 17.8785 4.29407 17.5471 4.29407Z" fill="url(#paint1_linear_272_11266)"/>
</g>
<g filter="url(#filter2_d_272_11266)">
<path d="M18.1471 16.0294H15.6413C15.1525 16.0294 14.7353 16.3828 14.6549 16.865L14.2354 19.3824L18.1471 16.0294Z" fill="url(#paint2_linear_272_11266)"/>
</g>
<g filter="url(#filter3_i_272_11266)">
<path fill-rule="evenodd" clip-rule="evenodd" d="M10.8825 1.5C9.95666 1.5 9.20608 2.25058 9.20608 3.17647V3.17647H7.9707C7.41842 3.17647 6.9707 3.62419 6.9707 4.17647V4.91177C6.9707 5.18791 7.19456 5.41177 7.4707 5.41177H14.2942C14.5704 5.41177 14.7942 5.18791 14.7942 4.91177V4.17647C14.7942 3.62419 14.3465 3.17647 13.7942 3.17647L12.559 3.17647C12.559 2.25058 11.8084 1.5 10.8825 1.5Z" fill="url(#paint3_linear_272_11266)"/>
</g>
<g filter="url(#filter4_d_272_11266)">
<path d="M11.7209 3.17649C11.7209 3.63944 11.3456 4.01473 10.8827 4.01473C10.4197 4.01473 10.0444 3.63944 10.0444 3.17649C10.0444 2.71355 10.4197 2.33826 10.8827 2.33826C11.3456 2.33826 11.7209 2.71355 11.7209 3.17649Z" fill="url(#paint4_linear_272_11266)"/>
</g>
<g filter="url(#filter5_i_272_11266)">
<path d="M6.97039 11L10.2117 11C10.582 11 10.8823 11.3002 10.8823 11.6706C10.8823 12.0409 10.582 12.3412 10.2117 12.3412L6.97039 12.3412C6.60004 12.3412 6.2998 12.0409 6.2998 11.6706C6.2998 11.3002 6.60004 11 6.97039 11Z" fill="url(#paint5_linear_272_11266)"/>
</g>
<g filter="url(#filter6_i_272_11266)">
<path d="M12.6706 11L14.6825 11C15.0528 11 15.353 11.3002 15.353 11.6706C15.353 12.0409 15.0528 12.3412 14.6825 12.3412L12.6706 12.3412C12.3002 12.3412 12 12.0409 12 11.6706C12 11.3002 12.3002 11 12.6706 11Z" fill="url(#paint6_linear_272_11266)"/>
</g>
<g filter="url(#filter7_i_272_11266)">
<path d="M6.97039 14.3529L9.54098 14.3529C9.91134 14.3529 10.2116 14.6531 10.2116 15.0235C10.2116 15.3938 9.91134 15.6941 9.54098 15.6941L6.97039 15.6941C6.60004 15.6941 6.2998 15.3938 6.2998 15.0235C6.2998 14.6531 6.60004 14.3529 6.97039 14.3529Z" fill="url(#paint7_linear_272_11266)"/>
</g>
<g filter="url(#filter8_i_272_11266)">
<path d="M6.97039 7.64709L14.6823 7.64709C15.0526 7.64709 15.3529 7.94733 15.3529 8.31768C15.3529 8.68804 15.0526 8.98827 14.6823 8.98827L6.97039 8.98827C6.60004 8.98827 6.2998 8.68804 6.2998 8.31768C6.2998 7.94733 6.60004 7.64709 6.97039 7.64709Z" fill="url(#paint8_linear_272_11266)"/>
</g>
<g filter="url(#filter9_i_272_11266)">
<path d="M11.479 14.667L17.418 8.56414C17.6106 8.36624 17.9272 8.36193 18.1251 8.55452L19.1706 9.57193C19.3685 9.76452 19.3728 10.0811 19.1802 10.279L13.2411 16.3818L11.479 14.667Z" fill="url(#paint9_linear_272_11266)"/>
</g>
<path d="M15.6288 11.276C15.4726 11.4322 15.4726 11.6855 15.6288 11.8417C15.785 11.9979 16.0383 11.9979 16.1945 11.8416L15.6288 11.276ZM17.871 10.1649C18.0272 10.0087 18.0271 9.75541 17.8709 9.59921C17.7147 9.44302 17.4614 9.44304 17.3052 9.59926L17.871 10.1649ZM16.1945 11.8416L17.871 10.1649L17.3052 9.59926L15.6288 11.276L16.1945 11.8416Z" fill="#FAFBFF"/>
<path d="M17.305 9.59951C17.1488 9.75572 17.1488 10.009 17.3051 10.1652C17.4613 10.3214 17.7145 10.3214 17.8707 10.1652L17.305 9.59951ZM18.4296 9.60632C18.5858 9.45011 18.5858 9.19684 18.4295 9.04063C18.2733 8.88443 18.0201 8.88444 17.8639 9.04065L18.4296 9.60632ZM17.8707 10.1652L18.4296 9.60632L17.8639 9.04065L17.305 9.59951L17.8707 10.1652Z" fill="#D78C59"/>
<g filter="url(#filter10_i_272_11266)">
<path d="M13.2416 16.3819L11.4795 14.6671L10.8884 16.5243C10.7884 16.8384 11.0899 17.1318 11.4012 17.0233L13.2416 16.3819Z" fill="url(#paint10_linear_272_11266)"/>
</g>
<defs>
<filter id="filter0_i_272_11266" x="2.5" y="3.17651" width="16.7646" height="18.3235" filterUnits="userSpaceOnUse" color-interpolation-filters="sRGB">
<feFlood flood-opacity="0" result="BackgroundImageFix"/>
<feBlend mode="normal" in="SourceGraphic" in2="BackgroundImageFix" result="shape"/>
<feColorMatrix in="SourceAlpha" type="matrix" values="0 0 0 0 0 0 0 0 0 0 0 0 0 0 0 0 0 0 127 0" result="hardAlpha"/>
<feOffset dy="1"/>
<feGaussianBlur stdDeviation="1"/>
<feComposite in2="hardAlpha" operator="arithmetic" k2="-1" k3="1"/>
<feColorMatrix type="matrix" values="0 0 0 0 0.725 0 0 0 0 0.840675 0 0 0 0 1 0 0 0 0.3 0"/>
<feBlend mode="lighten" in2="shape" result="effect1_innerShadow_272_11266"/>
</filter>
<filter id="filter1_d_272_11266" x="1.61768" y="3.29407" width="18.5293" height="19.0883" filterUnits="userSpaceOnUse" color-interpolation-filters="sRGB">
<feFlood flood-opacity="0" result="BackgroundImageFix"/>
<feColorMatrix in="SourceAlpha" type="matrix" values="0 0 0 0 0 0 0 0 0 0 0 0 0 0 0 0 0 0 127 0" result="hardAlpha"/>
<feOffset dy="1"/>
<feGaussianBlur stdDeviation="1"/>
<feColorMatrix type="matrix" values="0 0 0 0 0 0 0 0 0 0 0 0 0 0 0 0 0 0 0.1 0"/>
<feBlend mode="normal" in2="BackgroundImageFix" result="effect1_dropShadow_272_11266"/>
<feBlend mode="normal" in="SourceGraphic" in2="effect1_dropShadow_272_11266" result="shape"/>
</filter>
<filter id="filter2_d_272_11266" x="12.2354" y="15.0294" width="7.91162" height="7.35291" filterUnits="userSpaceOnUse" color-interpolation-filters="sRGB">
<feFlood flood-opacity="0" result="BackgroundImageFix"/>
<feColorMatrix in="SourceAlpha" type="matrix" values="0 0 0 0 0 0 0 0 0 0 0 0 0 0 0 0 0 0 127 0" result="hardAlpha"/>
<feOffset dy="1"/>
<feGaussianBlur stdDeviation="1"/>
<feColorMatrix type="matrix" values="0 0 0 0 0 0 0 0 0 0 0 0 0 0 0 0 0 0 0.1 0"/>
<feBlend mode="normal" in2="BackgroundImageFix" result="effect1_dropShadow_272_11266"/>
<feBlend mode="normal" in="SourceGraphic" in2="effect1_dropShadow_272_11266" result="shape"/>
</filter>
<filter id="filter3_i_272_11266" x="6.9707" y="1.5" width="7.82373" height="4.91174" filterUnits="userSpaceOnUse" color-interpolation-filters="sRGB">
<feFlood flood-opacity="0" result="BackgroundImageFix"/>
<feBlend mode="normal" in="SourceGraphic" in2="BackgroundImageFix" result="shape"/>
<feColorMatrix in="SourceAlpha" type="matrix" values="0 0 0 0 0 0 0 0 0 0 0 0 0 0 0 0 0 0 127 0" result="hardAlpha"/>
<feOffset dy="1"/>
<feGaussianBlur stdDeviation="1"/>
<feComposite in2="hardAlpha" operator="arithmetic" k2="-1" k3="1"/>
<feColorMatrix type="matrix" values="0 0 0 0 0.725 0 0 0 0 0.840675 0 0 0 0 1 0 0 0 0.3 0"/>
<feBlend mode="lighten" in2="shape" result="effect1_innerShadow_272_11266"/>
</filter>
<filter id="filter4_d_272_11266" x="8.04443" y="1.33826" width="5.67627" height="5.67651" filterUnits="userSpaceOnUse" color-interpolation-filters="sRGB">
<feFlood flood-opacity="0" result="BackgroundImageFix"/>
<feColorMatrix in="SourceAlpha" type="matrix" values="0 0 0 0 0 0 0 0 0 0 0 0 0 0 0 0 0 0 127 0" result="hardAlpha"/>
<feOffset dy="1"/>
<feGaussianBlur stdDeviation="1"/>
<feColorMatrix type="matrix" values="0 0 0 0 0 0 0 0 0 0 0 0 0 0 0 0 0 0 0.05 0"/>
<feBlend mode="normal" in2="BackgroundImageFix" result="effect1_dropShadow_272_11266"/>
<feBlend mode="normal" in="SourceGraphic" in2="effect1_dropShadow_272_11266" result="shape"/>
</filter>
<filter id="filter5_i_272_11266" x="6.2998" y="11" width="4.58252" height="3.34119" filterUnits="userSpaceOnUse" color-interpolation-filters="sRGB">
<feFlood flood-opacity="0" result="BackgroundImageFix"/>
<feBlend mode="normal" in="SourceGraphic" in2="BackgroundImageFix" result="shape"/>
<feColorMatrix in="SourceAlpha" type="matrix" values="0 0 0 0 0 0 0 0 0 0 0 0 0 0 0 0 0 0 127 0" result="hardAlpha"/>
<feOffset dy="2"/>
<feGaussianBlur stdDeviation="1"/>
<feComposite in2="hardAlpha" operator="arithmetic" k2="-1" k3="1"/>
<feColorMatrix type="matrix" values="0 0 0 0 0.408333 0 0 0 0 0.680087 0 0 0 0 1 0 0 0 0.3 0"/>
<feBlend mode="normal" in2="shape" result="effect1_innerShadow_272_11266"/>
</filter>
<filter id="filter6_i_272_11266" x="12" y="11" width="3.35303" height="3.34119" filterUnits="userSpaceOnUse" color-interpolation-filters="sRGB">
<feFlood flood-opacity="0" result="BackgroundImageFix"/>
<feBlend mode="normal" in="SourceGraphic" in2="BackgroundImageFix" result="shape"/>
<feColorMatrix in="SourceAlpha" type="matrix" values="0 0 0 0 0 0 0 0 0 0 0 0 0 0 0 0 0 0 127 0" result="hardAlpha"/>
<feOffset dy="2"/>
<feGaussianBlur stdDeviation="1"/>
<feComposite in2="hardAlpha" operator="arithmetic" k2="-1" k3="1"/>
<feColorMatrix type="matrix" values="0 0 0 0 0.408333 0 0 0 0 0.680087 0 0 0 0 1 0 0 0 0.3 0"/>
<feBlend mode="normal" in2="shape" result="effect1_innerShadow_272_11266"/>
</filter>
<filter id="filter7_i_272_11266" x="6.2998" y="14.3529" width="3.91162" height="3.34119" filterUnits="userSpaceOnUse" color-interpolation-filters="sRGB">
<feFlood flood-opacity="0" result="BackgroundImageFix"/>
<feBlend mode="normal" in="SourceGraphic" in2="BackgroundImageFix" result="shape"/>
<feColorMatrix in="SourceAlpha" type="matrix" values="0 0 0 0 0 0 0 0 0 0 0 0 0 0 0 0 0 0 127 0" result="hardAlpha"/>
<feOffset dy="2"/>
<feGaussianBlur stdDeviation="1"/>
<feComposite in2="hardAlpha" operator="arithmetic" k2="-1" k3="1"/>
<feColorMatrix type="matrix" values="0 0 0 0 0.408333 0 0 0 0 0.680087 0 0 0 0 1 0 0 0 0.3 0"/>
<feBlend mode="normal" in2="shape" result="effect1_innerShadow_272_11266"/>
</filter>
<filter id="filter8_i_272_11266" x="6.2998" y="7.64709" width="9.05322" height="3.34119" filterUnits="userSpaceOnUse" color-interpolation-filters="sRGB">
<feFlood flood-opacity="0" result="BackgroundImageFix"/>
<feBlend mode="normal" in="SourceGraphic" in2="BackgroundImageFix" result="shape"/>
<feColorMatrix in="SourceAlpha" type="matrix" values="0 0 0 0 0 0 0 0 0 0 0 0 0 0 0 0 0 0 127 0" result="hardAlpha"/>
<feOffset dy="2"/>
<feGaussianBlur stdDeviation="1"/>
<feComposite in2="hardAlpha" operator="arithmetic" k2="-1" k3="1"/>
<feColorMatrix type="matrix" values="0 0 0 0 0.408333 0 0 0 0 0.680087 0 0 0 0 1 0 0 0 0.3 0"/>
<feBlend mode="normal" in2="shape" result="effect1_innerShadow_272_11266"/>
</filter>
<filter id="filter9_i_272_11266" x="11.479" y="8.41284" width="7.84277" height="8.96899" filterUnits="userSpaceOnUse" color-interpolation-filters="sRGB">
<feFlood flood-opacity="0" result="BackgroundImageFix"/>
<feBlend mode="normal" in="SourceGraphic" in2="BackgroundImageFix" result="shape"/>
<feColorMatrix in="SourceAlpha" type="matrix" values="0 0 0 0 0 0 0 0 0 0 0 0 0 0 0 0 0 0 127 0" result="hardAlpha"/>
<feOffset dy="1"/>
<feGaussianBlur stdDeviation="0.5"/>
<feComposite in2="hardAlpha" operator="arithmetic" k2="-1" k3="1"/>
<feColorMatrix type="matrix" values="0 0 0 0 1 0 0 0 0 1 0 0 0 0 1 0 0 0 0.1 0"/>
<feBlend mode="normal" in2="shape" result="effect1_innerShadow_272_11266"/>
</filter>
<filter id="filter10_i_272_11266" x="10.8687" y="14.6671" width="2.37305" height="3.37927" filterUnits="userSpaceOnUse" color-interpolation-filters="sRGB">
<feFlood flood-opacity="0" result="BackgroundImageFix"/>
<feBlend mode="normal" in="SourceGraphic" in2="BackgroundImageFix" result="shape"/>
<feColorMatrix in="SourceAlpha" type="matrix" values="0 0 0 0 0 0 0 0 0 0 0 0 0 0 0 0 0 0 127 0" result="hardAlpha"/>
<feOffset dy="1"/>
<feGaussianBlur stdDeviation="0.5"/>
<feComposite in2="hardAlpha" operator="arithmetic" k2="-1" k3="1"/>
<feColorMatrix type="matrix" values="0 0 0 0 1 0 0 0 0 1 0 0 0 0 1 0 0 0 0.1 0"/>
<feBlend mode="normal" in2="shape" result="effect1_innerShadow_272_11266"/>
</filter>
<linearGradient id="paint0_linear_272_11266" x1="5.07918" y1="3.17755" x2="22.0065" y2="7.36289" gradientUnits="userSpaceOnUse">
<stop stop-color="#4B89F3"/>
<stop offset="1" stop-color="#0053E0"/>
</linearGradient>
<linearGradient id="paint1_linear_272_11266" x1="17.6834" y1="18.8281" x2="7.50962" y2="4.7715" gradientUnits="userSpaceOnUse">
<stop stop-color="#F5F5F7" stop-opacity="0.9"/>
<stop offset="0.958925" stop-color="white"/>
</linearGradient>
<linearGradient id="paint2_linear_272_11266" x1="16.4706" y1="18.2647" x2="15.6348" y2="16.4579" gradientUnits="userSpaceOnUse">
<stop stop-color="#F5F5F7" stop-opacity="0.79"/>
<stop offset="0.958925" stop-color="white"/>
</linearGradient>
<linearGradient id="paint3_linear_272_11266" x1="8.17432" y1="1.50023" x2="14.7321" y2="4.95928" gradientUnits="userSpaceOnUse">
<stop stop-color="#4B89F3"/>
<stop offset="1" stop-color="#0053E0"/>
</linearGradient>
<linearGradient id="paint4_linear_272_11266" x1="11.549" y1="3.38605" x2="11.1697" y2="2.21723" gradientUnits="userSpaceOnUse">
<stop stop-color="#F5F5F7" stop-opacity="0.8"/>
<stop offset="0.958925" stop-color="#F5F5F7"/>
</linearGradient>
<linearGradient id="paint5_linear_272_11266" x1="7.76672" y1="12.3412" x2="7.76672" y2="11.2235" gradientUnits="userSpaceOnUse">
<stop stop-color="#BFDAFF"/>
<stop offset="1" stop-color="#4F94F4"/>
</linearGradient>
<linearGradient id="paint6_linear_272_11266" x1="12.3493" y1="12.3412" x2="12.3493" y2="11.2235" gradientUnits="userSpaceOnUse">
<stop stop-color="#BFDAFF"/>
<stop offset="1" stop-color="#4F94F4"/>
</linearGradient>
<linearGradient id="paint7_linear_272_11266" x1="7.76672" y1="15.6941" x2="7.76672" y2="14.5764" gradientUnits="userSpaceOnUse">
<stop stop-color="#BFDAFF"/>
<stop offset="1" stop-color="#4F94F4"/>
</linearGradient>
<linearGradient id="paint8_linear_272_11266" x1="9.6947" y1="8.98828" x2="9.6947" y2="7.87064" gradientUnits="userSpaceOnUse">
<stop stop-color="#BFDAFF"/>
<stop offset="1" stop-color="#4F94F4"/>
</linearGradient>
<linearGradient id="paint9_linear_272_11266" x1="13.6761" y1="12.1176" x2="15.9114" y2="14.3529" gradientUnits="userSpaceOnUse">
<stop stop-color="#FA601D"/>
<stop offset="1" stop-color="#FFCE9B"/>
</linearGradient>
<linearGradient id="paint10_linear_272_11266" x1="10.1544" y1="16.0287" x2="11.9165" y2="17.7436" gradientUnits="userSpaceOnUse">
<stop stop-color="#FA996F"/>
<stop offset="1" stop-color="#FFDD9B"/>
</linearGradient>
</defs>
</svg>
