<svg width="7" height="12" viewBox="0 0 7 12" fill="none" xmlns="http://www.w3.org/2000/svg">
<path d="M3.39591 2.90047L5.11994 4.62457C5.45845 4.9632 6.00951 4.9632 6.34804 4.62455C6.51298 4.45984 6.60199 4.24063 6.60199 4.01156C6.60199 3.78212 6.51278 3.56104 6.34798 3.39635L4.07325 1.12162C3.81369 0.862066 3.42951 0.801403 3.11163 0.939804C2.91066 0.964068 2.71743 1.05832 2.57148 1.22053L0.41873 3.61129C0.0982827 3.96706 0.127124 4.51738 0.483022 4.83772C0.656137 4.99381 0.879707 5.07122 1.10847 5.05923C1.33759 5.04723 1.5537 4.94657 1.70954 4.77338L3.39591 2.90047Z" fill="#FC561F"/>
<path d="M2.87509 1.00527C3.02127 0.898767 3.19805 0.839869 3.38453 0.839997C3.81983 0.839922 4.18144 1.16195 4.24353 1.58024L4.25294 1.70839L4.25288 10.5726C4.25304 11.0514 3.86504 11.4394 3.38461 11.441C2.94924 11.4411 2.58768 11.1192 2.52554 10.7007L2.5161 10.5725L2.5161 1.70851C2.51604 1.52213 2.5757 1.34443 2.68264 1.19774L2.77151 1.09389L2.87509 1.00527Z" fill="#FC561F"/>
</svg>
