<svg width="7" height="12" viewBox="0 0 7 12" fill="none" xmlns="http://www.w3.org/2000/svg">
<path d="M3.40414 9.37734L1.68011 7.65324C1.3416 7.31462 0.790535 7.31462 0.452006 7.65326C0.287071 7.81797 0.198063 8.03718 0.198063 8.26626C0.198063 8.4957 0.287271 8.71678 0.452067 8.88146L2.7268 11.1562C2.98635 11.4158 3.37054 11.4764 3.68842 11.338C3.88939 11.3137 4.08262 11.2195 4.22857 11.0573L6.38132 8.66652C6.70177 8.31075 6.67293 7.76044 6.31703 7.4401C6.14391 7.28401 5.92034 7.20659 5.69158 7.21858C5.46245 7.23059 5.24635 7.33125 5.09051 7.50444L3.40414 9.37734Z" fill="#2EB658"/>
<path d="M3.92496 11.2726C3.77878 11.379 3.602 11.4379 3.41552 11.4378C2.98022 11.4379 2.61861 11.1159 2.55652 10.6976L2.5471 10.5694L2.54717 1.70521C2.54701 1.22639 2.93501 0.838389 3.41544 0.836833C3.85081 0.836683 4.21237 1.15865 4.27451 1.57709L4.28395 1.70529L4.28395 10.5693C4.28401 10.7557 4.22435 10.9334 4.11741 11.0801L4.02854 11.1839L3.92496 11.2726Z" fill="#2EB658"/>
</svg>
