<svg width="22" height="22" viewBox="0 0 22 22" fill="none" xmlns="http://www.w3.org/2000/svg">
<g filter="url(#filter0_i_664_7569)">
<path d="M3.15393 1.76794C3.15393 1.21566 3.60165 0.767944 4.15393 0.767944H17.8462C18.3985 0.767944 18.8462 1.21566 18.8462 1.76794V14.5372C18.8462 15.0895 18.3985 15.5372 17.8462 15.5372H4.15393C3.60164 15.5372 3.15393 15.0895 3.15393 14.5372V1.76794Z" fill="url(#paint0_linear_664_7569)"/>
</g>
<g filter="url(#filter1_ddi_664_7569)">
<path d="M4.53833 3.21316C4.53833 2.88179 4.80696 2.61316 5.13833 2.61316H16.8614C17.1928 2.61316 17.4614 2.88179 17.4614 3.21316V13.0901C17.4614 13.4215 17.1928 13.6901 16.8614 13.6901H5.13833C4.80696 13.6901 4.53833 13.4215 4.53833 13.0901V3.21316Z" fill="url(#paint1_linear_664_7569)"/>
</g>
<path d="M8.89059 7.59827L12.1862 7.59827C12.5507 7.59827 12.8462 7.89376 12.8462 8.25827C12.8462 8.62277 12.5507 8.91827 12.1862 8.91827H8.89059C8.52608 8.91827 8.23059 8.62277 8.23059 8.25827C8.23059 7.89376 8.52608 7.59827 8.89059 7.59827Z" fill="url(#paint2_linear_664_7569)"/>
<path d="M8.89059 4.45972L15.4167 4.45972C15.7813 4.45972 16.0767 4.75521 16.0767 5.11972C16.0767 5.48422 15.7813 5.77972 15.4167 5.77972L8.89059 5.77972C8.52608 5.77972 8.23059 5.48422 8.23059 5.11972C8.23059 4.75521 8.52608 4.45972 8.89059 4.45972Z" fill="url(#paint3_linear_664_7569)"/>
<circle cx="6.56925" cy="5.10587" r="0.646154" fill="url(#paint4_linear_664_7569)"/>
<path d="M7.2154 8.24369C7.2154 8.60055 6.92611 8.88984 6.56925 8.88984C6.21239 8.88984 5.9231 8.60055 5.9231 8.24369C5.9231 7.88683 6.21239 7.59753 6.56925 7.59753C6.92611 7.59753 7.2154 7.88683 7.2154 8.24369Z" fill="url(#paint5_linear_664_7569)"/>
<path d="M7.03079 10.5506C7.03079 10.8564 6.78282 11.1044 6.47694 11.1044C6.17106 11.1044 5.9231 10.8564 5.9231 10.5506C5.9231 10.2447 6.17106 9.9967 6.47694 9.9967C6.78282 9.9967 7.03079 10.2447 7.03079 10.5506Z" fill="url(#paint6_linear_664_7569)"/>
<g filter="url(#filter2_i_664_7569)">
<path d="M2.23096 10.9981C2.23097 10.4458 2.67868 9.99808 3.23095 9.99808L6.98423 9.99805C7.20402 9.99805 7.41769 10.0705 7.5922 10.2041L8.86226 11.1766C9.03677 11.3103 9.25044 11.3827 9.47023 11.3827H18.7693C19.3216 11.3827 19.7693 11.8304 19.7693 12.3827L19.7692 18.2263C19.7692 18.7795 19.32 19.2276 18.7668 19.2263L3.22843 19.1887C2.67708 19.1873 2.23084 18.74 2.23085 18.1887L2.23096 10.9981Z" fill="url(#paint7_linear_664_7569)"/>
</g>
<path opacity="0.68" d="M2.23083 17.8453H19.7693V18.23C19.7693 18.7822 19.3216 19.23 18.7693 19.23H3.23084C2.67855 19.23 2.23083 18.7822 2.23083 18.23V17.8453Z" fill="#7AAAFF"/>
<g filter="url(#filter3_di_664_7569)">
<path d="M16.5013 19C18.4062 19 19.9544 17.5883 20.0004 15.8289V15.6929C19.9385 13.8777 16.9161 10.2164 16.9161 10.2164C16.6867 9.92789 16.3123 9.92789 16.0863 10.2164C16.0863 10.2164 13.0004 13.9532 13.0004 15.7486C13.0004 17.544 14.5682 19 16.5013 19Z" fill="url(#paint8_linear_664_7569)"/>
</g>
<g filter="url(#filter4_d_664_7569)">
<path d="M16.3121 17.7342C16.2221 17.8161 16.0896 17.8473 15.9678 17.8128C15.7401 17.7571 15.5723 17.6586 15.4117 17.5325C15.2457 17.4029 15.1433 17.2685 15.0886 17.1652C15.0039 17.0028 15.078 16.8094 15.2528 16.7306C15.4276 16.652 15.6358 16.7208 15.7206 16.8831C15.7577 16.9421 15.8071 16.993 15.8636 17.0356C15.9554 17.106 16.0349 17.1585 16.1496 17.1864C16.2731 17.2143 16.3702 17.3028 16.4038 17.416C16.4392 17.5308 16.404 17.6522 16.3121 17.7342ZM14.6915 14.7927C14.815 14.4598 14.9669 14.1368 15.1452 13.8253C15.3341 13.4907 15.5424 13.1677 15.7719 12.8546C15.8831 12.707 16.102 12.6726 16.2591 12.7759C16.418 12.8793 16.455 13.0826 16.3438 13.2285C16.132 13.517 15.9395 13.8171 15.7647 14.1253C15.5935 14.4286 15.454 14.7238 15.3551 14.996C15.1962 15.4403 15.1591 15.7994 15.2527 16.0306C15.3126 16.1962 15.2191 16.3766 15.0426 16.4372C14.866 16.4979 14.6701 16.4192 14.5977 16.2585C14.4337 15.8601 14.4849 15.3665 14.6915 14.7927Z" fill="url(#paint9_linear_664_7569)"/>
</g>
<defs>
<filter id="filter0_i_664_7569" x="3.15393" y="0.767944" width="15.6923" height="15.7693" filterUnits="userSpaceOnUse" color-interpolation-filters="sRGB">
<feFlood flood-opacity="0" result="BackgroundImageFix"/>
<feBlend mode="normal" in="SourceGraphic" in2="BackgroundImageFix" result="shape"/>
<feColorMatrix in="SourceAlpha" type="matrix" values="0 0 0 0 0 0 0 0 0 0 0 0 0 0 0 0 0 0 127 0" result="hardAlpha"/>
<feOffset dy="1"/>
<feGaussianBlur stdDeviation="1"/>
<feComposite in2="hardAlpha" operator="arithmetic" k2="-1" k3="1"/>
<feColorMatrix type="matrix" values="0 0 0 0 0.725 0 0 0 0 0.840675 0 0 0 0 1 0 0 0 0.3 0"/>
<feBlend mode="lighten" in2="shape" result="effect1_innerShadow_664_7569"/>
</filter>
<filter id="filter1_ddi_664_7569" x="0.53833" y="1.61316" width="20.9231" height="20.0769" filterUnits="userSpaceOnUse" color-interpolation-filters="sRGB">
<feFlood flood-opacity="0" result="BackgroundImageFix"/>
<feColorMatrix in="SourceAlpha" type="matrix" values="0 0 0 0 0 0 0 0 0 0 0 0 0 0 0 0 0 0 127 0" result="hardAlpha"/>
<feOffset dy="1"/>
<feGaussianBlur stdDeviation="1"/>
<feColorMatrix type="matrix" values="0 0 0 0 0 0 0 0 0 0 0 0 0 0 0 0 0 0 0.05 0"/>
<feBlend mode="normal" in2="BackgroundImageFix" result="effect1_dropShadow_664_7569"/>
<feColorMatrix in="SourceAlpha" type="matrix" values="0 0 0 0 0 0 0 0 0 0 0 0 0 0 0 0 0 0 127 0" result="hardAlpha"/>
<feOffset dy="4"/>
<feGaussianBlur stdDeviation="2"/>
<feComposite in2="hardAlpha" operator="out"/>
<feColorMatrix type="matrix" values="0 0 0 0 0 0 0 0 0 0 0 0 0 0 0 0 0 0 0.25 0"/>
<feBlend mode="normal" in2="effect1_dropShadow_664_7569" result="effect2_dropShadow_664_7569"/>
<feBlend mode="normal" in="SourceGraphic" in2="effect2_dropShadow_664_7569" result="shape"/>
<feColorMatrix in="SourceAlpha" type="matrix" values="0 0 0 0 0 0 0 0 0 0 0 0 0 0 0 0 0 0 127 0" result="hardAlpha"/>
<feOffset dy="0.5"/>
<feGaussianBlur stdDeviation="0.5"/>
<feComposite in2="hardAlpha" operator="arithmetic" k2="-1" k3="1"/>
<feColorMatrix type="matrix" values="0 0 0 0 1 0 0 0 0 1 0 0 0 0 1 0 0 0 0.5 0"/>
<feBlend mode="normal" in2="shape" result="effect3_innerShadow_664_7569"/>
</filter>
<filter id="filter2_i_664_7569" x="2.23083" y="9.99805" width="17.5385" height="10.2283" filterUnits="userSpaceOnUse" color-interpolation-filters="sRGB">
<feFlood flood-opacity="0" result="BackgroundImageFix"/>
<feBlend mode="normal" in="SourceGraphic" in2="BackgroundImageFix" result="shape"/>
<feColorMatrix in="SourceAlpha" type="matrix" values="0 0 0 0 0 0 0 0 0 0 0 0 0 0 0 0 0 0 127 0" result="hardAlpha"/>
<feOffset dy="1"/>
<feGaussianBlur stdDeviation="1"/>
<feComposite in2="hardAlpha" operator="arithmetic" k2="-1" k3="1"/>
<feColorMatrix type="matrix" values="0 0 0 0 0.725 0 0 0 0 0.840675 0 0 0 0 1 0 0 0 0.3 0"/>
<feBlend mode="lighten" in2="shape" result="effect1_innerShadow_664_7569"/>
</filter>
<filter id="filter3_di_664_7569" x="12.0004" y="10" width="9" height="11" filterUnits="userSpaceOnUse" color-interpolation-filters="sRGB">
<feFlood flood-opacity="0" result="BackgroundImageFix"/>
<feColorMatrix in="SourceAlpha" type="matrix" values="0 0 0 0 0 0 0 0 0 0 0 0 0 0 0 0 0 0 127 0" result="hardAlpha"/>
<feOffset dy="1"/>
<feGaussianBlur stdDeviation="0.5"/>
<feComposite in2="hardAlpha" operator="out"/>
<feColorMatrix type="matrix" values="0 0 0 0 0.770833 0 0 0 0 0.519956 0 0 0 0 0.295486 0 0 0 0.22 0"/>
<feBlend mode="normal" in2="BackgroundImageFix" result="effect1_dropShadow_664_7569"/>
<feBlend mode="normal" in="SourceGraphic" in2="effect1_dropShadow_664_7569" result="shape"/>
<feColorMatrix in="SourceAlpha" type="matrix" values="0 0 0 0 0 0 0 0 0 0 0 0 0 0 0 0 0 0 127 0" result="hardAlpha"/>
<feOffset dy="1"/>
<feGaussianBlur stdDeviation="0.5"/>
<feComposite in2="hardAlpha" operator="arithmetic" k2="-1" k3="1"/>
<feColorMatrix type="matrix" values="0 0 0 0 1 0 0 0 0 1 0 0 0 0 1 0 0 0 0.3 0"/>
<feBlend mode="normal" in2="shape" result="effect2_innerShadow_664_7569"/>
</filter>
<filter id="filter4_d_664_7569" x="12.5004" y="11.7164" width="5.91699" height="9.11023" filterUnits="userSpaceOnUse" color-interpolation-filters="sRGB">
<feFlood flood-opacity="0" result="BackgroundImageFix"/>
<feColorMatrix in="SourceAlpha" type="matrix" values="0 0 0 0 0 0 0 0 0 0 0 0 0 0 0 0 0 0 127 0" result="hardAlpha"/>
<feOffset dy="1"/>
<feGaussianBlur stdDeviation="1"/>
<feColorMatrix type="matrix" values="0 0 0 0 0 0 0 0 0 0 0 0 0 0 0 0 0 0 0.05 0"/>
<feBlend mode="normal" in2="BackgroundImageFix" result="effect1_dropShadow_664_7569"/>
<feBlend mode="normal" in="SourceGraphic" in2="effect1_dropShadow_664_7569" result="shape"/>
</filter>
<linearGradient id="paint0_linear_664_7569" x1="5.56813" y1="3.5379" x2="20.693" y2="8.59123" gradientUnits="userSpaceOnUse">
<stop stop-color="#4B89F3"/>
<stop offset="1" stop-color="#0053E0"/>
</linearGradient>
<linearGradient id="paint1_linear_664_7569" x1="13.8268" y1="15.6448" x2="12.3135" y2="1.79098" gradientUnits="userSpaceOnUse">
<stop stop-color="#F8FBFF"/>
<stop offset="0.958925" stop-color="#F9FCFF"/>
</linearGradient>
<linearGradient id="paint2_linear_664_7569" x1="19.0314" y1="9.06493" x2="8.69497" y2="7.74011" gradientUnits="userSpaceOnUse">
<stop stop-color="#8CBCFF"/>
<stop offset="1" stop-color="#4F94F4"/>
</linearGradient>
<linearGradient id="paint3_linear_664_7569" x1="26.591" y1="5.92638" x2="9.54074" y2="2.21148" gradientUnits="userSpaceOnUse">
<stop stop-color="#8CBCFF"/>
<stop offset="1" stop-color="#4F94F4"/>
</linearGradient>
<linearGradient id="paint4_linear_664_7569" x1="7.30771" y1="5.38279" x2="5.05451" y2="3.91456" gradientUnits="userSpaceOnUse">
<stop stop-color="#FA601D"/>
<stop offset="1" stop-color="#FF8E17"/>
</linearGradient>
<linearGradient id="paint5_linear_664_7569" x1="7.29558" y1="8.67706" x2="6.05153" y2="8.62535" gradientUnits="userSpaceOnUse">
<stop stop-color="#FA601D"/>
<stop offset="1" stop-color="#FF8E17"/>
</linearGradient>
<linearGradient id="paint6_linear_664_7569" x1="7.09951" y1="10.922" x2="6.03318" y2="10.8777" gradientUnits="userSpaceOnUse">
<stop stop-color="#FA601D"/>
<stop offset="1" stop-color="#FF8E17"/>
</linearGradient>
<linearGradient id="paint7_linear_664_7569" x1="4.90321" y1="5.94552" x2="21.617" y2="11.769" gradientUnits="userSpaceOnUse">
<stop stop-color="#4B89F3"/>
<stop offset="1" stop-color="#0053E0"/>
</linearGradient>
<linearGradient id="paint8_linear_664_7569" x1="20.4347" y1="17.5181" x2="13.6914" y2="17.3001" gradientUnits="userSpaceOnUse">
<stop stop-color="#FA601D"/>
<stop offset="1" stop-color="#FFAA51"/>
</linearGradient>
<linearGradient id="paint9_linear_664_7569" x1="14.5708" y1="18.0052" x2="15.7887" y2="17.1037" gradientUnits="userSpaceOnUse">
<stop stop-color="#F5F5F7" stop-opacity="0.66"/>
<stop offset="0.958925" stop-color="#F5F5F7"/>
</linearGradient>
</defs>
</svg>
