<svg width="80" height="80" viewBox="0 0 80 80" fill="none" xmlns="http://www.w3.org/2000/svg">
<g filter="url(#filter0_d_137_22808)">
<circle cx="40" cy="36" r="30" fill="url(#paint0_linear_137_22808)"/>
<circle cx="40" cy="36" r="29.5" stroke="white"/>
</g>
<g filter="url(#filter1_d_137_22808)">
<path d="M54.1165 17.0541C54.1165 17.5957 54.5691 18.0397 55.1255 18.0397C55.686 18.0434 56.1423 17.6029 56.1463 17.0578V17.0504C56.1425 16.5052 55.6896 16.0649 55.1295 16.0649H55.1257C54.5691 16.0612 54.1125 16.5018 54.1125 17.0432V17.0504H54.1163V17.0541H54.1165ZM53.0219 17.0541C53.0219 15.9205 53.9642 15.0035 55.1255 15C56.2907 14.9963 57.237 15.9131 57.2406 17.0469V17.0541C57.2406 18.1878 56.2983 19.1083 55.1369 19.1083H55.1293C53.9644 19.112 53.0219 18.195 53.0183 17.0613V17.0539H53.0219V17.0541ZM29.4002 32.3213C28.0571 31.9062 27.6081 31.0252 27.8124 29.2635C29.4561 28.7798 29.9052 28.9423 30.2242 30.1698H32.6658V26.5127C31.8789 26.4767 31.133 26.4477 30.2648 26.4079V24.3034L32.6692 24.1625V20.5415H30.2426C29.894 21.7581 29.8123 21.787 27.9051 21.5199C27.3857 19.5415 28.3912 18.2598 30.4729 18.2563C31.1591 18.2563 31.8381 18.231 32.5134 18.2671C33.8344 18.1768 34.9809 19.148 35.0738 20.4332C35.0812 20.5353 35.0812 20.6379 35.0738 20.74C35.1333 21.74 35.1257 22.74 35.0516 23.74C34.9373 24.2849 34.7501 24.8129 34.4949 25.3105C34.7356 25.9747 34.9254 26.6553 35.0628 27.3467C35.1445 28.1878 35.1479 29.0399 35.07 29.8809C35.0531 30.3773 34.932 30.8652 34.714 31.3143C34.2685 32.1158 32.8066 32.5886 31.289 32.5886C30.6545 32.5995 30.0127 32.5054 29.4004 32.3213H29.4002ZM39.1481 30.2382H41.6268V26.6283H39.1481V30.2382ZM39.3113 32.5812C37.6823 32.5487 36.9254 31.7077 36.7247 30.1336C36.2015 26.0651 37.6116 22.4441 39.4225 18.9169C39.8157 18.1406 40.4242 18.2131 41.1257 18.2852C41.5077 18.3393 41.8975 18.3358 42.2794 18.2744C41.3483 20.4044 40.554 22.2455 39.66 24.3141C40.3796 24.3141 40.9549 24.2962 41.5261 24.3141C42.814 24.2095 43.9457 25.1409 44.0533 26.3972C44.0643 26.5272 44.0643 26.6608 44.0533 26.7907C44.0681 27.9495 44.0605 29.112 44.0274 30.2707C44.0905 31.4838 43.1294 32.5126 41.8825 32.5738C41.786 32.5775 41.6895 32.5775 41.5932 32.5705C41.2108 32.5812 40.8323 32.5849 40.4501 32.5849C40.0704 32.5889 39.6908 32.5877 39.3111 32.5812H39.3113ZM47.8046 30.2888H50.2314V20.6605H47.8046V30.2888ZM47.7974 32.5705C46.5245 32.5812 45.4857 31.5884 45.4747 30.3502C45.4747 30.3033 45.4747 30.2563 45.4781 30.2094C45.4559 27.0397 45.4709 23.8882 45.4781 20.7293C45.4781 20.4585 45.5266 20.1914 45.6193 19.935C46.1166 18.4837 47.7716 17.9567 50.4651 18.3791C51.7678 18.5199 52.7065 19.657 52.5653 20.9241C52.5653 20.9387 52.5615 20.9531 52.5615 20.9639C52.5767 22.4694 52.5615 23.9712 52.5615 25.4765C52.5615 27.0181 52.5841 28.556 52.5615 30.0975C52.6731 31.3502 51.7194 32.4513 50.4319 32.5596C50.3281 32.5668 50.2242 32.5705 50.1165 32.5668C49.7008 32.5777 49.2853 32.5849 48.866 32.5849C48.4986 32.5921 48.1424 32.5849 47.7974 32.5705ZM43.7603 38.8846C43.7073 38.748 43.6688 38.6065 43.6454 38.4623C43.4115 36.4695 43.5527 36.4442 45.571 36.076C48.2288 35.5987 50.8584 34.9829 53.4484 34.2313C54.5811 33.8378 55.6201 33.2249 56.5025 32.4296C57.6414 31.6716 57.931 30.1552 57.1519 29.0469C56.9809 28.8019 56.7644 28.5901 56.5135 28.4225C55.7084 27.7005 54.7102 27.1771 53.8308 26.5235C55.7002 27.1256 57.3151 28.3075 58.428 29.8881C58.8297 30.4345 59.03 31.0969 58.9964 31.7679C58.9627 32.4388 58.6972 33.0791 58.2427 33.5849C57.385 34.5513 56.3801 35.3841 55.2631 36.0544C51.9033 37.7339 48.2183 38.7081 44.4469 38.9136C44.2176 38.9188 43.9881 38.9091 43.7601 38.8848V38.8846H43.7603ZM37.6378 40.3286C37.7974 39.3107 37.3114 39.0506 36.3429 38.9894C32.5697 38.8709 28.8616 37.9997 25.4486 36.4298C24.2048 35.8163 23.0699 35.0131 22.0869 34.0507C20.6953 32.7801 20.6322 30.65 21.9424 29.2998L22.0054 29.2382C23.2638 27.8661 24.8966 26.8696 26.7141 26.3647C25.7319 26.8773 24.7805 27.4438 23.8644 28.0615C21.9272 29.5125 21.9234 31.314 23.8384 32.776C26.2948 34.657 29.2705 35.3032 32.2612 35.8122C33.9681 36.1046 35.7084 36.2237 37.5377 36.4296C37.6006 35.4764 37.6452 34.7111 37.7045 33.7217C39.3632 35.1298 40.8659 36.4115 42.5097 37.7978C40.8799 39.1866 39.2511 40.5766 37.6234 41.9677C37.5893 41.4217 37.5942 40.874 37.6382 40.3286H37.6378Z" fill="white"/>
</g>
<path d="M31.6406 52.8496V52.0293L30.9023 52.8848C30.5898 52.5566 30.3086 52.2676 30.0586 52.0176V56.623H28.582V52.6211C28.2891 52.9492 27.9766 53.2793 27.6445 53.6113C27.5039 53.002 27.3477 52.416 27.1758 51.8535C28.1523 50.8457 28.8594 49.9004 29.2969 49.0176H27.3047V47.5059H29.2266C28.8945 47.0059 28.4688 46.4355 27.9492 45.7949L29.2148 44.9863C29.6289 45.4395 30.0938 46.0059 30.6094 46.6855L29.3789 47.5059H31.043V48.8535C30.8438 49.3613 30.582 49.8789 30.2578 50.4062C30.7578 50.8047 31.2188 51.1934 31.6406 51.5723V45.502H38.0508V52.7559H36.457V47.0137H33.2344V52.8496H31.6406ZM37.2773 53.166C37.918 53.4551 38.4336 53.6738 38.8242 53.8223C38.6484 55.123 38.4277 55.8789 38.1621 56.0898C37.9004 56.3047 37.5859 56.4121 37.2188 56.4121H36.0703C35.1328 56.4121 34.6641 55.9863 34.6641 55.1348V53.7402C34.0664 54.9355 33.0352 55.9043 31.5703 56.6465C31.2734 56.2559 30.8984 55.8105 30.4453 55.3105C31.8477 54.7051 32.7949 53.9375 33.2871 53.0078C33.7832 52.0781 34.0234 50.3223 34.0078 47.7402H35.6367C35.6094 49.4355 35.4824 50.8301 35.2559 51.9238H36.1289V54.5957C36.1289 54.9004 36.2617 55.0527 36.5273 55.0527H36.7031C36.8867 55.0527 37.0137 54.9727 37.084 54.8125C37.1543 54.6484 37.2188 54.0996 37.2773 53.166ZM42.6914 56.5762V45.4902H53.2852V56.5645H51.668V56.1074H44.3086V56.5762H42.6914ZM51.1406 47.541V48.502C50.7305 49.0566 50.1875 49.5488 49.5117 49.9785C50.1445 50.1504 50.8633 50.2852 51.668 50.3828V46.9082H48.1055C47.9609 47.123 47.8066 47.334 47.6426 47.541H51.1406ZM46.4883 46.9082H44.3086V48.9414C45.2891 48.2969 46.0156 47.6191 46.4883 46.9082ZM48.0527 49.4512C48.5996 49.1973 49.0312 48.9121 49.3477 48.5957H46.8281C47.1445 48.9199 47.5527 49.2051 48.0527 49.4512ZM45.082 49.8496C44.8789 49.627 44.6211 49.377 44.3086 49.0996V50.5C45.207 50.3477 46 50.168 46.6875 49.9609C46.3945 49.7422 46.1309 49.5078 45.8965 49.2578C45.6387 49.4609 45.3672 49.6582 45.082 49.8496ZM45.1289 52.5566C47.1914 52.8301 49.1328 53.1191 50.9531 53.4238L50.625 54.6895H51.668V50.5234C51.4961 50.8086 51.2891 51.1621 51.0469 51.584C49.8867 51.3887 48.8828 51.1055 48.0352 50.7344C47.6016 50.9102 47.1348 51.0703 46.6348 51.2148C47.9316 51.3789 49.1992 51.5645 50.4375 51.7715L50.2031 52.8848C48.9141 52.6582 47.4688 52.4355 45.8672 52.2168L46.0488 51.373C45.6699 51.4668 45.2734 51.5527 44.8594 51.6309C44.7148 51.3027 44.5312 50.959 44.3086 50.5996V54.6895H50.5664C48.9766 54.3652 47.0547 54.0645 44.8008 53.7871L45.1289 52.5566Z" fill="white"/>
<defs>
<filter id="filter0_d_137_22808" x="0" y="0" width="80" height="80" filterUnits="userSpaceOnUse" color-interpolation-filters="sRGB">
<feFlood flood-opacity="0" result="BackgroundImageFix"/>
<feColorMatrix in="SourceAlpha" type="matrix" values="0 0 0 0 0 0 0 0 0 0 0 0 0 0 0 0 0 0 127 0" result="hardAlpha"/>
<feOffset dy="4"/>
<feGaussianBlur stdDeviation="5"/>
<feComposite in2="hardAlpha" operator="out"/>
<feColorMatrix type="matrix" values="0 0 0 0 0 0 0 0 0 0.458824 0 0 0 0 1 0 0 0 0.2 0"/>
<feBlend mode="normal" in2="BackgroundImageFix" result="effect1_dropShadow_137_22808"/>
<feBlend mode="normal" in="SourceGraphic" in2="effect1_dropShadow_137_22808" result="shape"/>
</filter>
<filter id="filter1_d_137_22808" x="11" y="9" width="58" height="46.9678" filterUnits="userSpaceOnUse" color-interpolation-filters="sRGB">
<feFlood flood-opacity="0" result="BackgroundImageFix"/>
<feColorMatrix in="SourceAlpha" type="matrix" values="0 0 0 0 0 0 0 0 0 0 0 0 0 0 0 0 0 0 127 0" result="hardAlpha"/>
<feOffset dy="4"/>
<feGaussianBlur stdDeviation="5"/>
<feComposite in2="hardAlpha" operator="out"/>
<feColorMatrix type="matrix" values="0 0 0 0 0 0 0 0 0 0 0 0 0 0 0 0 0 0 0.1 0"/>
<feBlend mode="normal" in2="BackgroundImageFix" result="effect1_dropShadow_137_22808"/>
<feBlend mode="normal" in="SourceGraphic" in2="effect1_dropShadow_137_22808" result="shape"/>
</filter>
<linearGradient id="paint0_linear_137_22808" x1="40" y1="6" x2="40" y2="66" gradientUnits="userSpaceOnUse">
<stop stop-color="#00A2FF"/>
<stop offset="1" stop-color="#0075FF"/>
</linearGradient>
</defs>
</svg>
