<svg width="18" height="18" viewBox="0 0 18 18" fill="none" xmlns="http://www.w3.org/2000/svg">
<path fill-rule="evenodd" clip-rule="evenodd" d="M0 0L18 0V18H0L0 0Z" fill="#EDF6FF"/>
<mask id="mask0_326_3637" style="mask-type:alpha" maskUnits="userSpaceOnUse" x="0" y="0" width="18" height="18">
<path fill-rule="evenodd" clip-rule="evenodd" d="M0 0L18 0V18H0L0 0Z" fill="white"/>
</mask>
<g mask="url(#mask0_326_3637)">
<path fill-rule="evenodd" clip-rule="evenodd" d="M5.63514 6.15705C5.6771 5.30079 5.82717 4.87939 5.9988 4.44415C6.38158 3.47351 7.67555 2.69995 9.08578 2.69995C10.496 2.69995 11.7998 3.44296 12.1177 5.09666C12.2364 5.7142 12.2455 6.0491 12.2594 6.84862C12.2733 7.64814 13.4539 11.1259 12.2349 13.1155L6.081 13.3914C4.50862 12.3409 5.55482 8.00148 5.63514 7.11156C5.67396 6.68154 5.63514 6.15705 5.63514 6.15705Z" fill="#283246"/>
<path fill-rule="evenodd" clip-rule="evenodd" d="M8.99771 8.82227H7.48096L7.48096 12.1532L8.9647 13.2877L10.5072 11.8402L10.5145 8.82227H8.99771Z" fill="#FFC0BF"/>
<mask id="mask1_326_3637" style="mask-type:alpha" maskUnits="userSpaceOnUse" x="7" y="8" width="4" height="6">
<path fill-rule="evenodd" clip-rule="evenodd" d="M8.99771 8.82227H7.48096L7.48096 12.1532L8.9647 13.2877L10.5072 11.8402L10.5145 8.82227H8.99771Z" fill="white"/>
</mask>
<g mask="url(#mask1_326_3637)">
<path fill-rule="evenodd" clip-rule="evenodd" d="M11.8603 6.91701C11.7552 7.27453 11.5475 7.30192 11.5475 7.30192C11.6872 6.60316 11.1797 5.93282 11.1797 5.93282C11.1797 5.93282 10.5971 4.73909 10.5318 4.75305C8.6474 5.2492 7.61016 6.32608 6.8288 5.93282C6.78292 5.99278 6.77038 5.93316 6.72913 5.99703C6.51384 6.43502 6.19317 6.91029 6.30693 7.3706C6.30693 7.3706 6.08924 7.2841 5.97879 6.95079C5.86999 7.01213 5.78281 7.10983 5.73057 7.22832C5.69653 7.30541 5.677 7.39106 5.677 7.48174V7.9919C5.677 8.3242 5.93205 8.59364 6.24653 8.59364C6.25389 8.59364 6.26104 8.59274 6.26825 8.59247C6.27705 8.5921 6.28586 8.59184 6.29455 8.5911C6.29562 8.60664 6.29695 8.62182 6.29818 8.6372C6.44619 10.5613 8.02083 11.0055 8.97338 11.0405C9.92593 11.0755 11.515 10.5093 11.6515 8.5929C11.9797 8.59364 12.2348 8.3242 12.2348 7.9919V7.48174C12.2348 7.29589 12.1549 7.12977 12.0295 7.01937C11.9797 6.97549 11.9224 6.94101 11.8603 6.91701Z" fill="#F9B3B2"/>
</g>
<path fill-rule="evenodd" clip-rule="evenodd" d="M11.8604 6.49855C11.7554 6.85607 11.5476 6.88346 11.5476 6.88346C11.6873 6.1847 11.1798 5.51436 11.1798 5.51436C11.1798 5.51436 10.5972 4.32064 10.5319 4.33459C8.64752 4.83075 7.61028 5.90763 6.82892 5.51436C6.78304 5.57432 6.7705 5.51471 6.72926 5.57858C6.51396 6.01657 6.1933 6.49184 6.30705 6.95214C6.30705 6.95214 6.08936 6.86564 5.97891 6.53234C5.87012 6.59367 5.78293 6.69138 5.73069 6.80986C5.69665 6.88695 5.67712 6.9726 5.67712 7.06328V7.57344C5.67712 7.90574 5.93217 8.17518 6.24665 8.17518C6.25402 8.17518 6.26117 8.17428 6.26837 8.17402C6.27717 8.17365 6.28598 8.17338 6.29467 8.17264C6.29574 8.18819 6.29708 8.20336 6.2983 8.21875C6.44631 10.1428 8.02095 10.587 8.9735 10.622C9.92605 10.6571 11.5151 10.0908 11.6516 8.17444C11.9798 8.17518 12.2349 7.90574 12.2349 7.57344V7.06328C12.2349 6.87743 12.1551 6.71131 12.0296 6.60091C11.9798 6.55703 11.9225 6.52256 11.8604 6.49855Z" fill="#FFD6D6"/>
<path fill-rule="evenodd" clip-rule="evenodd" d="M8.95924 6.15554C9.84966 6.12109 10.7171 5.31101 10.5772 4.95159C10.9283 5.12145 11.392 5.8837 11.392 6.5952C11.3943 6.65929 11.4153 6.80386 11.5531 6.89691C11.5852 6.88997 11.6143 6.83786 11.6439 6.84678C11.8157 4.93424 10.8371 3.97437 8.99724 3.97437C7.08698 3.97437 5.92693 5.25706 6.29604 6.9525C6.32889 6.93503 6.52368 6.84901 6.53801 6.79931C6.69574 6.30201 7.59398 6.2084 8.95924 6.15554Z" fill="#283246"/>
<path fill-rule="evenodd" clip-rule="evenodd" d="M9.05402 13.5092L7.4734 11.9119C6.32523 12.1802 4.88861 12.4676 3.94599 13.533C3.36798 14.1862 3.02836 19.9437 2.52002 19.9437L8.95375 20.1731L9.05402 13.5092Z" fill="#FFBEBE"/>
<path fill-rule="evenodd" clip-rule="evenodd" d="M7.67149 12.3717L10.4926 11.9399C11.6407 12.2083 13.0048 12.4675 13.9474 13.5329C14.5254 14.1861 14.8651 19.9437 15.3734 19.9437L4.69519 19.737C4.69519 19.737 6.30123 19.2428 6.78441 19.1285C6.70545 18.1605 6.1025 13.6834 6.1025 13.6834L7.67149 12.3717Z" fill="#FFD8D6"/>
<ellipse cx="7.23115" cy="13.9542" rx="0.381176" ry="0.381175" fill="#F7D4D4"/>
<path fill-rule="evenodd" clip-rule="evenodd" d="M7.48111 11.5134C8.3692 11.8927 9.6736 11.8927 10.5146 11.5134C10.574 11.7647 10.7309 12.1923 10.771 12.3864C10.1092 12.8913 7.83857 12.8434 7.25525 12.4317C7.29742 12.1855 7.454 11.6844 7.48111 11.5134Z" fill="#FEFEFF"/>
<path fill-rule="evenodd" clip-rule="evenodd" d="M10.3393 14.9072C10.8852 14.9072 11.807 14.9072 12.3319 14.9072C12.4254 15.1335 12.4101 15.9142 12.1973 16.427C11.9845 16.9397 10.8029 16.9397 10.512 16.427C10.2211 15.9142 10.2958 15.1335 10.3393 14.9072Z" fill="#FEFEFF"/>
<rect x="10.2806" y="15.1101" width="2.28706" height="0.190589" fill="#FFEDEC"/>
</g>
</svg>
