<svg width="18" height="18" viewBox="0 0 18 18" fill="none" xmlns="http://www.w3.org/2000/svg">
<path fill-rule="evenodd" clip-rule="evenodd" d="M0 0L18 0V18H0L0 0Z" fill="#EDF6FF"/>
<mask id="mask0_326_4031" style="mask-type:alpha" maskUnits="userSpaceOnUse" x="0" y="0" width="18" height="18">
<path fill-rule="evenodd" clip-rule="evenodd" d="M0 0L18 0V18H0L0 0Z" fill="white"/>
</mask>
<g mask="url(#mask0_326_4031)">
<path fill-rule="evenodd" clip-rule="evenodd" d="M9.31736 9.79517H7.52601L7.51611 13.0376L9.27838 14.5928L11.1001 13.0376L11.1087 9.79517H9.31736Z" fill="#FFC0BF"/>
<mask id="mask1_326_4031" style="mask-type:alpha" maskUnits="userSpaceOnUse" x="7" y="9" width="5" height="6">
<path fill-rule="evenodd" clip-rule="evenodd" d="M9.31736 9.79517H7.52601L7.51611 13.0376L9.27838 14.5928L11.1001 13.0376L11.1087 9.79517H9.31736Z" fill="white"/>
</mask>
<g mask="url(#mask1_326_4031)">
<path fill-rule="evenodd" clip-rule="evenodd" d="M12.5477 8.05497C12.4338 8.43909 12.2087 8.46851 12.2087 8.46851C12.36 7.71777 11.4111 7.07121 11.4111 7.07121C11.4111 7.07121 11.3266 6.99962 11.2558 7.01461C9.21302 7.54768 7.94028 7.42008 7.09324 6.99756C7.04349 7.06198 7.0299 6.99793 6.98519 7.06655C6.75179 7.53712 6.40417 8.04775 6.52749 8.5423C6.52749 8.5423 6.29149 8.44937 6.17176 8.09127C6.05382 8.15716 5.95931 8.26214 5.90268 8.38944C5.86577 8.47226 5.8446 8.56429 5.8446 8.66171V9.20983C5.8446 9.56685 6.12109 9.85633 6.46201 9.85633C6.47 9.85633 6.47775 9.85537 6.48556 9.85508C6.4951 9.85468 6.50464 9.8544 6.51407 9.8536C6.51523 9.87031 6.51667 9.88661 6.51801 9.90314C6.67846 11.9704 8.38547 12.4476 9.4181 12.4852C10.4507 12.5229 12.1734 11.9145 12.3214 9.85554C12.6772 9.85633 12.9537 9.56685 12.9537 9.20983V8.66171C12.9537 8.46204 12.8671 8.28355 12.7311 8.16494C12.6771 8.11779 12.6151 8.08076 12.5477 8.05497Z" fill="#F9B3B2"/>
</g>
<mask id="mask2_326_4031" style="mask-type:alpha" maskUnits="userSpaceOnUse" x="5" y="3" width="8" height="6">
<path fill-rule="evenodd" clip-rule="evenodd" d="M12.7753 3.06177L5.62915 3.06177V8.03695H12.7753V3.06177V3.06177Z" fill="white"/>
</mask>
<g mask="url(#mask2_326_4031)">
<path fill-rule="evenodd" clip-rule="evenodd" d="M6.52734 8.03701C6.40408 7.54246 9.20046 7.43131 11.2432 6.89824C11.314 6.88324 12.3599 7.21254 12.2085 7.96328C12.2085 7.96328 12.4337 7.9338 12.5476 7.54973C12.615 7.57547 12.677 7.61256 12.731 7.65965C12.7597 7.44993 12.7753 7.23355 12.7753 7.01196C12.7753 6.27098 12.6065 5.58613 12.3209 5.0287C12.3468 4.64072 12.2078 4.183 11.2808 3.79512C9.78311 3.16848 5.68666 4.62027 6.21714 5.27529C5.96801 5.74519 5.8219 6.33074 5.8219 7.01196C5.8219 7.31359 5.85018 7.6058 5.90259 7.88415C5.95916 7.75685 6.05373 7.65193 6.17161 7.58598C6.29135 7.94414 6.52734 8.03701 6.52734 8.03701Z" fill="#283246"/>
</g>
<path fill-rule="evenodd" clip-rule="evenodd" d="M5.971 3.67171C6.36448 2.88727 7.45044 2.52002 9.28548 2.52002C11.0556 2.52002 12.0739 2.73513 12.6003 3.67171C13.1267 4.60829 12.7437 6.79563 12.7437 6.79563C12.7437 6.79563 11.7217 5.64913 9.28548 5.64913C6.83475 5.64913 5.82762 6.79217 5.82762 6.79217C5.82762 6.79217 5.57751 4.45614 5.971 3.67171Z" fill="#FFFEFF"/>
<path fill-rule="evenodd" clip-rule="evenodd" d="M10.2261 4.47367V4.11095H9.55076V3.44116H9.19191V4.11095H8.51965V4.47367H9.19191V5.14286H9.55076V4.47367H10.2261Z" fill="#72ACEB"/>
<path fill-rule="evenodd" clip-rule="evenodd" d="M12.5476 7.5496C12.4337 7.93372 12.2085 7.96314 12.2085 7.96314C12.3599 7.2124 11.411 6.56584 11.411 6.56584C11.411 6.56584 11.3265 6.49425 11.2557 6.50924C9.2129 7.04231 7.94016 6.91471 7.09311 6.49219C7.04337 6.55661 7.02978 6.49255 6.98507 6.56118C6.75167 7.03175 6.40405 7.54238 6.52737 8.03693C6.52737 8.03693 6.29137 7.944 6.17164 7.58589C6.0537 7.65179 5.95918 7.75677 5.90256 7.88407C5.86565 7.96689 5.84448 8.05892 5.84448 8.15634V8.70445C5.84448 9.06148 6.12097 9.35096 6.46189 9.35096C6.46987 9.35096 6.47762 9.34999 6.48543 9.34971C6.49498 9.34931 6.50452 9.34903 6.51395 9.34823C6.51511 9.36493 6.51655 9.38124 6.51788 9.39777C6.67834 11.465 8.38535 11.9423 9.41798 11.9799C10.4506 12.0175 12.1733 11.4091 12.3213 9.35016C12.6771 9.35096 12.9536 9.06148 12.9536 8.70445V8.15634C12.9536 7.95667 12.867 7.77818 12.731 7.65957C12.677 7.61242 12.6149 7.57539 12.5476 7.5496Z" fill="#FFD6D6"/>
<path fill-rule="evenodd" clip-rule="evenodd" d="M9.26963 14.0539L7.52076 12.6824C6.43639 12.9335 5.34191 13.3511 4.2151 13.8549C3.6117 14.1246 3.09863 20.0768 3.09863 20.0768L9.17493 20.2914L9.26963 14.0539Z" fill="#FFFEFF"/>
<mask id="mask3_326_4031" style="mask-type:alpha" maskUnits="userSpaceOnUse" x="9" y="12" width="7" height="9">
<path fill-rule="evenodd" clip-rule="evenodd" d="M15.2513 20.2914V12.5708L9.12012 12.5708V20.2914H15.2513Z" fill="white"/>
</mask>
<g mask="url(#mask3_326_4031)">
<path fill-rule="evenodd" clip-rule="evenodd" d="M11.1688 12.6824C12.251 13.0509 12.9753 13.3365 14.1348 13.8549C14.7382 14.1246 15.2513 20.0767 15.2513 20.0767L9.17498 20.2914L9.12012 19.5542L9.19527 14.1917L11.1688 12.6824Z" fill="#FFFEFF"/>
</g>
<path fill-rule="evenodd" clip-rule="evenodd" d="M11.1087 12.5708L9.64503 18.726H8.60298C8.60298 18.726 7.92756 14.5659 7.48291 12.6463C7.48291 12.6463 8.37527 13.3684 9.19489 13.3513C10.0145 13.3342 10.1806 13.2631 10.5248 13.0394C10.8691 12.8158 11.1087 12.5708 11.1087 12.5708Z" fill="#72ACEB"/>
<g filter="url(#filter0_d_326_4031)">
<path fill-rule="evenodd" clip-rule="evenodd" d="M8.99495 19.2312C7.82603 18.0505 6.42403 15.3971 6.42403 15.3971L7.15632 14.4839L5.63489 14.2419L6.63727 12.7684L7.46236 12.3845L8.99495 19.2312Z" fill="#C1DFFF"/>
</g>
<g filter="url(#filter1_d_326_4031)">
<path fill-rule="evenodd" clip-rule="evenodd" d="M9.3158 19.2753C10.4847 18.0947 11.9596 15.4686 11.9853 15.3964C12.0111 15.3241 11.315 14.6488 11.315 14.6488L12.7846 14.1675L11.9338 12.7684L11.1087 12.3845L9.3158 19.2753Z" fill="#C1DFFF"/>
</g>
<ellipse cx="12.0794" cy="15.6505" rx="0.606942" ry="0.597736" fill="#304166"/>
<ellipse cx="12.0823" cy="15.6795" rx="0.202315" ry="0.199242" fill="#FFFEFF"/>
<path fill-rule="evenodd" clip-rule="evenodd" d="M11.1688 12.3056C11.5695 12.4415 11.812 12.6936 11.9657 13.1455C12.1063 13.5589 12.0732 14.6163 12.0737 15.0528C12.0738 15.1589 12.2182 15.1589 12.2181 15.0528C12.2175 14.5667 12.2417 13.4688 12.0737 13.0137C11.9024 12.5497 11.5821 12.2721 11.1688 12.1318V12.3056Z" fill="#304166" stroke="#304166" stroke-width="0.735294"/>
<path fill-rule="evenodd" clip-rule="evenodd" d="M7.48308 12.1909C6.62014 12.348 6.41386 13.2293 6.40309 14.013C6.40157 14.1191 6.56318 14.119 6.56461 14.013C6.57445 13.3008 6.69327 12.504 7.48308 12.3602V12.1909Z" fill="#304166" stroke="#304166" stroke-width="0.735294"/>
<path fill-rule="evenodd" clip-rule="evenodd" d="M5.48067 17.1604C5.28009 17.0469 5.28035 16.7639 5.28893 16.5689C5.29922 16.3346 5.33264 16.1095 5.39307 15.8829C5.46087 15.6286 5.55165 15.378 5.6767 15.1451C5.76941 14.9726 5.93902 14.6099 6.17799 14.6734C6.26658 14.6969 6.30595 14.6469 6.21765 14.6235C5.64902 14.4726 5.37102 15.4407 5.26551 15.8116C5.18072 16.1096 5.13883 16.4205 5.14456 16.73C5.14819 16.9224 5.20962 17.1092 5.35592 17.2418C5.50628 17.3783 5.74176 17.3805 5.92484 17.4486C6.01067 17.4804 6.04741 17.3461 5.96263 17.3146C5.80394 17.2556 5.62918 17.2445 5.48067 17.1604Z" fill="#304166" stroke="#304166" stroke-width="0.735294"/>
<path fill-rule="evenodd" clip-rule="evenodd" d="M5.86401 17.3815C5.86401 17.4998 5.9639 17.5956 6.08718 17.5956C6.21038 17.5956 6.31023 17.4998 6.31023 17.3815C6.31023 17.2633 6.21038 17.1675 6.08718 17.1675C5.9639 17.1675 5.86401 17.2633 5.86401 17.3815Z" fill="#162037"/>
<path fill-rule="evenodd" clip-rule="evenodd" d="M7.61415 17.2527C7.76589 17.1443 7.81751 16.9558 7.83679 16.7831C7.87084 16.4783 7.80737 16.1415 7.72855 15.8459C7.62818 15.4694 7.34336 14.4706 6.76689 14.6234C6.67855 14.6469 6.71311 14.7006 6.80167 14.6771C7.03108 14.6163 7.19367 14.9487 7.28967 15.1124C7.42345 15.3407 7.51031 15.5961 7.58207 15.8486C7.64509 16.0702 7.67377 16.2867 7.69217 16.5156C7.70882 16.7223 7.70804 16.944 7.56427 17.1108C7.44184 17.2528 7.18882 17.2526 7.02184 17.3146C6.93701 17.3461 6.9738 17.4804 7.05962 17.4485C7.24551 17.3794 7.4495 17.3703 7.61415 17.2527Z" fill="#304166" stroke="#304166" stroke-width="0.735294"/>
<path fill-rule="evenodd" clip-rule="evenodd" d="M6.97248 14.8701L7.16955 14.6227C7.16955 14.6227 6.93059 14.4477 6.69155 14.4477V13.8667H6.2932V14.4477C6.0542 14.4477 5.81494 14.6227 5.81494 14.6227L5.99236 14.8701C5.99236 14.8701 6.42861 14.5145 6.97248 14.8701Z" fill="#304166"/>
<path fill-rule="evenodd" clip-rule="evenodd" d="M6.72351 17.3815C6.72351 17.4998 6.82332 17.5956 6.94656 17.5956C7.06987 17.5956 7.16954 17.4998 7.16954 17.3815C7.16954 17.2633 7.06987 17.1675 6.94656 17.1675C6.82332 17.1675 6.72351 17.2633 6.72351 17.3815Z" fill="#162037"/>
</g>
<defs>
<filter id="filter0_d_326_4031" x="2.63489" y="11.3845" width="9.36011" height="12.8467" filterUnits="userSpaceOnUse" color-interpolation-filters="sRGB">
<feFlood flood-opacity="0" result="BackgroundImageFix"/>
<feColorMatrix in="SourceAlpha" type="matrix" values="0 0 0 0 0 0 0 0 0 0 0 0 0 0 0 0 0 0 127 0" result="hardAlpha"/>
<feOffset dy="2"/>
<feGaussianBlur stdDeviation="1.5"/>
<feColorMatrix type="matrix" values="0 0 0 0 0.689438 0 0 0 0 0.750942 0 0 0 0 0.786086 0 0 0 0.109007 0"/>
<feBlend mode="normal" in2="BackgroundImageFix" result="effect1_dropShadow_326_4031"/>
<feBlend mode="normal" in="SourceGraphic" in2="effect1_dropShadow_326_4031" result="shape"/>
</filter>
<filter id="filter1_d_326_4031" x="6.3158" y="11.3845" width="9.46887" height="12.8909" filterUnits="userSpaceOnUse" color-interpolation-filters="sRGB">
<feFlood flood-opacity="0" result="BackgroundImageFix"/>
<feColorMatrix in="SourceAlpha" type="matrix" values="0 0 0 0 0 0 0 0 0 0 0 0 0 0 0 0 0 0 127 0" result="hardAlpha"/>
<feOffset dy="2"/>
<feGaussianBlur stdDeviation="1.5"/>
<feColorMatrix type="matrix" values="0 0 0 0 0.689438 0 0 0 0 0.750942 0 0 0 0 0.786086 0 0 0 0.109007 0"/>
<feBlend mode="normal" in2="BackgroundImageFix" result="effect1_dropShadow_326_4031"/>
<feBlend mode="normal" in="SourceGraphic" in2="effect1_dropShadow_326_4031" result="shape"/>
</filter>
</defs>
</svg>
