<svg width="13" height="12" viewBox="0 0 13 12" fill="none" xmlns="http://www.w3.org/2000/svg">
<rect width="12" height="12" transform="translate(0.800049)" fill="white"/>
<path d="M6.80417 9.37733L5.08014 7.65323C4.74163 7.3146 4.19056 7.3146 3.85203 7.65325C3.6871 7.81796 3.59809 8.03717 3.59809 8.26624C3.59809 8.49568 3.6873 8.71676 3.85209 8.88145L6.12683 11.1562C6.38638 11.4157 6.77056 11.4764 7.08845 11.338C7.28941 11.3137 7.48265 11.2195 7.6286 11.0573L9.78134 8.66651C10.1018 8.31074 10.0729 7.76042 9.71705 7.44008C9.54394 7.28399 9.32037 7.20658 9.09161 7.21857C8.86248 7.23058 8.64637 7.33123 8.49054 7.50442L6.80417 9.37733Z" fill="#2EB658"/>
<path d="M7.32499 11.2725C7.1788 11.379 7.00202 11.4379 6.81555 11.4378C6.38024 11.4379 6.01863 11.1158 5.95654 10.6976L5.94713 10.5694L5.9472 1.7052C5.94703 1.22638 6.33503 0.838374 6.81546 0.836817C7.25084 0.836668 7.6124 1.15864 7.67454 1.57707L7.68397 1.70527L7.68397 10.5693C7.68403 10.7557 7.62437 10.9334 7.51743 11.0801L7.42856 11.1839L7.32499 11.2725Z" fill="#2EB658"/>
</svg>
