<svg width="16" height="16" viewBox="0 0 16 16" fill="none" xmlns="http://www.w3.org/2000/svg">
<rect x="0.5" y="0.5" width="15" height="15" rx="1.5" stroke="#0075FF"/>
<path d="M2.32812 6.7207H3.93359V2.02148H5.5625V6.7207H13.6133V8.23242H9.17188C10.0938 9.83398 11.6484 10.9551 13.8359 11.5957C13.4844 12.0566 13.0898 12.5957 12.6523 13.2129C10.1914 12.1895 8.49609 10.5293 7.56641 8.23242H5.5625V11.502L8.58594 10.5059C8.5625 11.0527 8.55859 11.5645 8.57422 12.041C6.25781 12.748 4.85938 13.2988 4.37891 13.6934L3.48828 12.1934C3.78516 11.8965 3.93359 11.4395 3.93359 10.8223V8.23242H2.32812V6.7207ZM11.3867 2.11523L12.6172 3.58008C10.9609 4.50977 9.21094 5.38477 7.36719 6.20508L6.40625 4.93945C8.48438 3.96289 10.1445 3.02148 11.3867 2.11523Z" fill="#0075FF"/>
</svg>
