<svg width="108" height="19" viewBox="0 0 108 19" fill="none" xmlns="http://www.w3.org/2000/svg">
<path d="M2.98828 10.876H14.9941V18.3291H13.7285V17.5557H4.25391V18.3291H2.98828V10.876ZM2.47852 5.6377H4.6582V4.33691H5.88867V5.6377H8.71875V6.69238H5.88867V8.00195C6.86719 7.94336 7.79297 7.88184 8.66602 7.81738C8.61914 8.22754 8.58398 8.6084 8.56055 8.95996C7.6875 9.00098 6.79688 9.04785 5.88867 9.10059V10.5068H4.6582V9.1709C3.29297 9.25879 1.88672 9.3584 0.439453 9.46973L0.298828 8.27441C1.8457 8.21582 3.29883 8.14844 4.6582 8.07227V6.69238H1.05469V5.62012C1.46484 5.02832 1.86914 4.37207 2.26758 3.65137H0.421875V2.59668H2.80371C3.0791 2.03418 3.35156 1.43652 3.62109 0.803711L4.83398 1.20801C4.61133 1.67676 4.38281 2.13965 4.14844 2.59668H8.89453V3.65137H3.60352C3.24023 4.33105 2.86523 4.99316 2.47852 5.6377ZM9.82617 2.33301C12.1816 2.30957 14.5195 2.10449 16.8398 1.71777L17.2441 2.87793C15.0293 3.12402 12.9609 3.29395 11.0391 3.3877V5.62012H17.5254V6.6748H15.0117V10.3662H13.7812V6.6748H10.9512C10.7344 8.27441 10.1602 9.60449 9.22852 10.665C8.94727 10.3955 8.61914 10.1025 8.24414 9.78613C9.29883 8.69629 9.82617 7.14941 9.82617 5.14551V2.33301ZM4.25391 16.4658H13.7285V14.7256H4.25391V16.4658ZM13.7285 11.9658H4.25391V13.6885H13.7285V11.9658ZM18.5625 7.90527H25.4531C25.6992 6.68652 25.8457 5.32715 25.8926 3.82715H19.8984V2.45605H34.1719V3.82715H27.3691C27.2871 5.32715 27.1348 6.68652 26.9121 7.90527H35.5078V9.27637H26.6133C25.7227 13.2373 23.2734 16.3076 19.2656 18.4873C19.0078 18.0889 18.6914 17.6729 18.3164 17.2393C21.8086 15.4932 24.082 12.8389 25.1367 9.27637H18.5625V7.90527ZM27.5625 10.542H28.9863V15.165C28.9863 16.0908 29.4141 16.5537 30.2695 16.5537H32.6777C33.4746 16.5537 33.9258 16.208 34.0312 15.5166C34.125 14.8486 34.1953 13.9814 34.2422 12.915C34.6875 13.0791 35.1797 13.249 35.7188 13.4248C35.6016 14.585 35.4961 15.458 35.4023 16.0439C35.25 17.2158 34.418 17.8018 32.9062 17.8018H29.8652C28.3301 17.8018 27.5625 16.9932 27.5625 15.376V10.542ZM43.6992 2.24512H52.9453V18.3115H51.6094V17.1162H45.0352V18.3115H43.6992V2.24512ZM36.2637 12.0361C37.5586 10.2314 38.5283 8.15723 39.1729 5.81348H36.4746V4.63574H39.1992V1.1377H40.4824V4.63574H43.0488V5.81348H40.4824V8.87207L41.1855 8.15137C41.9941 8.93652 42.7383 9.69238 43.418 10.4189L42.4688 11.3506C41.8242 10.5889 41.1621 9.84766 40.4824 9.12695V18.2764H39.1992V9.12695C38.5664 10.8672 37.7988 12.3467 36.8965 13.5654C36.7207 13.0615 36.5098 12.5518 36.2637 12.0361ZM45.0352 15.9209H51.6094V12.5107H45.0352V15.9209ZM51.6094 3.44043H45.0352V6.81543H51.6094V3.44043ZM45.0352 11.3506H51.6094V7.97559H45.0352V11.3506ZM54.3691 17.1162C58.5703 15.6221 61.0752 13.4717 61.8838 10.665H54.7207V9.3291H62.1387C62.1621 9.07715 62.1738 7.95801 62.1738 5.97168H55.7578V4.63574H59.9766C58.9688 3.52832 58.1074 2.6377 57.3926 1.96387L58.4121 1.0498C59.4199 1.95215 60.3398 2.81348 61.1719 3.63379L60.0469 4.63574H64.2393C65.1475 3.35254 65.9473 2.15137 66.6387 1.03223L68.0977 1.84082C67.2891 2.87207 66.5449 3.80371 65.8652 4.63574H70.3125V5.97168H63.668C63.668 7.69434 63.6592 8.81348 63.6416 9.3291H71.3496V10.665H63.8877C65.2646 13.6123 67.8574 15.6338 71.666 16.7295C71.1855 17.2217 70.752 17.6963 70.3652 18.1533C66.7559 16.7471 64.3037 14.6318 63.0088 11.8076C62.0537 14.5498 59.5137 16.7412 55.3887 18.3818C55.084 17.9834 54.7441 17.5615 54.3691 17.1162ZM73.793 4.23145H80.2793V1.20801H81.7207V4.23145H88.1719V15.833C88.1719 17.3213 87.4395 18.0596 85.9746 18.0479C85.2012 18.0479 84.252 18.0361 83.127 18.0127C83.0918 17.6143 83.0039 17.1045 82.8633 16.4834C83.9766 16.5771 84.9023 16.6299 85.6406 16.6416C86.3789 16.665 86.748 16.2959 86.748 15.5342V5.56738H81.6855C81.6387 6.63379 81.5098 7.58301 81.2988 8.41504C83.373 10.0791 85.0488 11.5439 86.3262 12.8096L85.2539 13.9521C84 12.5811 82.541 11.1572 80.877 9.68066C80.0801 11.4033 78.5625 12.9033 76.3242 14.1807C75.832 13.501 75.5039 13.0791 75.3398 12.915C77.25 11.9072 78.5566 10.7881 79.2598 9.55762C79.8223 8.65527 80.1504 7.3252 80.2441 5.56738H75.2168V18.2061H73.793V4.23145ZM99.9844 7.14941C99.8906 7.25488 99.791 7.37207 99.6855 7.50098C101.936 9.65723 104.625 11.1338 107.754 11.9307C107.367 12.5166 107.08 13.0146 106.893 13.4248C106.119 13.1436 105.387 12.833 104.695 12.4932V18.417H103.289V17.626H94.6934V18.417H93.2871V12.6514C92.5254 13.0615 91.7461 13.4307 90.9492 13.7588C90.7383 13.3252 90.4805 12.9092 90.1758 12.5107C93.8086 10.9756 96.5859 9.1123 98.5078 6.9209L99.9844 7.14941ZM91.0195 3.1416H98.543C98.2852 2.67285 97.9922 2.16895 97.6641 1.62988L99.0176 1.01465C99.4512 1.68262 99.8613 2.3916 100.248 3.1416H106.963V6.09473H105.539V4.40723H92.4258V6.16504H91.0195V3.1416ZM103.289 13.3721H94.6934V16.3604H103.289V13.3721ZM98.8945 8.4502C97.4531 9.86816 95.8887 11.0869 94.2012 12.1064H103.922C101.895 11.04 100.219 9.82129 98.8945 8.4502ZM96.5742 5.18066L97.418 6.32324C95.2617 7.64746 93.4512 8.66113 91.9863 9.36426C91.7754 8.97754 91.5059 8.57324 91.1777 8.15137C93.1934 7.27246 94.9922 6.28223 96.5742 5.18066ZM101.268 5.19824C103.025 6.00684 104.836 6.92676 106.699 7.95801L105.891 9.20605C104.438 8.31543 102.65 7.34277 100.529 6.28809L101.268 5.19824Z" fill="#3B5370"/>
</svg>
