<svg width="16" height="16" viewBox="0 0 16 16" fill="none" xmlns="http://www.w3.org/2000/svg">
<rect width="16" height="16" rx="2" fill="#00982D"/>
<path d="M2.22266 7.08398H4.94141V4.21289H2.86719V2.68945H13.332V4.21289H11.4453V7.08398H13.8242V8.60742H11.4453V13.4121H9.74609V8.60742H6.60547C6.52734 10.0293 6.25977 11.0977 5.80273 11.8125C5.34961 12.5234 4.65625 13.1348 3.72266 13.6465C3.28516 13.2637 2.79297 12.8652 2.24609 12.4512C2.96875 12.0645 3.56836 11.6016 4.04492 11.0625C4.52539 10.5234 4.80273 9.70508 4.87695 8.60742H2.22266V7.08398ZM6.64062 7.08398H9.74609V4.21289H6.64062V7.08398Z" fill="white"/>
</svg>
