<svg width="15" height="15" viewBox="0 0 15 15" fill="none" xmlns="http://www.w3.org/2000/svg">
<path d="M12.5 6V2.16C12.5 1.51935 11.9807 1 11.34 1H2.66C2.01935 1 1.5 1.51935 1.5 2.16V12.34C1.5 12.9807 2.01935 13.5 2.66 13.5H6.54167" stroke="#0075FF" stroke-width="1.1" stroke-linecap="round"/>
<path d="M4 7H6" stroke="#0075FF" stroke-width="1.1" stroke-linecap="round"/>
<path d="M4 4H10" stroke="#0075FF" stroke-width="1.1" stroke-linecap="round"/>
<path d="M11.7249 11.3096C12.2025 10.8543 12.5 10.2119 12.5 9.5C12.5 8.11929 11.3807 7 10 7C8.61929 7 7.5 8.11929 7.5 9.5C7.5 10.8807 8.61929 12 10 12C10.6688 12 11.2763 11.7374 11.7249 11.3096ZM11.7249 11.3096L13.5 13" stroke="#0075FF" stroke-width="1.1" stroke-linecap="round"/>
</svg>
