<svg width="170" height="107" viewBox="0 0 170 107" fill="none" xmlns="http://www.w3.org/2000/svg">
<rect opacity="0.01" x="2.39436" width="167.606" height="82.6056" fill="#D8D8D8"/>
<path fill-rule="evenodd" clip-rule="evenodd" d="M158.387 50.0386L135.886 89.7767L0 56.0923L79.7447 27.595L158.387 50.0386Z" fill="url(#paint0_linear_2_10565)"/>
<path opacity="0.627813" fill-rule="evenodd" clip-rule="evenodd" d="M112.582 64.4281L148.471 49.868L107.629 38.1902L85.672 54.1795L112.582 64.4281Z" fill="url(#paint1_linear_2_10565)"/>
<path fill-rule="evenodd" clip-rule="evenodd" d="M64.4304 3.33744L64.2443 2.90601L63.8054 3.07388L62.2825 3.65643L60.7194 4.25434L62.3582 4.59389L63.4711 4.82451C63.3588 5.06441 63.2952 5.33402 63.2952 5.62278V45.88L111.043 65.0148L112.582 64.4281V22.4698C112.582 20.8582 111.556 19.4254 110.03 18.9059L65.7843 3.84085C65.3925 3.70744 64.9959 3.7103 64.6379 3.81833L64.4304 3.33744Z" fill="url(#paint2_linear_2_10565)"/>
<mask id="mask0_2_10565" style="mask-type:alpha" maskUnits="userSpaceOnUse" x="60" y="2" width="53" height="64">
<path fill-rule="evenodd" clip-rule="evenodd" d="M64.4304 3.33744L64.2443 2.90601L63.8054 3.07388L62.2825 3.65643L60.7194 4.25434L62.3582 4.59389L63.4711 4.82451C63.3588 5.06441 63.2952 5.33402 63.2952 5.62278V45.88L111.043 65.0148L112.582 64.4281V22.4698C112.582 20.8582 111.556 19.4254 110.03 18.9059L65.7843 3.84085C65.3925 3.70744 64.9959 3.7103 64.6379 3.81833L64.4304 3.33744Z" fill="white"/>
</mask>
<g mask="url(#mask0_2_10565)">
<path fill-rule="evenodd" clip-rule="evenodd" d="M62.4575 4.11397L64.4059 3.19385L112.792 19.6854L110.05 21.1281L62.4575 4.11397Z" fill="url(#paint3_linear_2_10565)"/>
</g>
<path fill-rule="evenodd" clip-rule="evenodd" d="M61.7564 6.20932C61.7564 4.91939 63.0244 4.01162 64.2455 4.42738L108.492 19.4925C110.017 20.0119 111.043 21.4447 111.043 23.0563V65.0147L61.7564 46.4665V6.20932ZM63.4465 10.904L63.4509 44.9391L109.081 62.1724L109.072 26.6901L63.4465 10.904Z" fill="url(#paint4_linear_2_10565)"/>
<path fill-rule="evenodd" clip-rule="evenodd" d="M63.4464 10.9041L63.4508 44.9392L109.081 62.1725L109.072 26.6902L63.4464 10.9041Z" fill="url(#paint5_linear_2_10565)"/>
<ellipse opacity="0.663714" cx="99.3846" cy="19.9222" rx="0.803492" ry="0.839922" fill="#BABFC6"/>
<ellipse opacity="0.663714" cx="102.945" cy="21.1281" rx="0.803492" ry="0.831982" fill="#BABFC6"/>
<ellipse cx="106.666" cy="22.364" rx="0.803492" ry="0.823689" fill="#BABFC6"/>
<path opacity="0.841076" fill-rule="evenodd" clip-rule="evenodd" d="M86.6097 42.3721V45.506L83.4207 44.1115V40.9616L86.6097 42.3721ZM85.4249 26.1719C87.172 26.9853 88.5965 28.0928 89.6717 29.534C90.7468 30.9437 91.2844 32.4456 91.2844 34.0438C91.2844 35.3539 90.935 36.2726 90.2899 36.8251C90.048 36.98 89.2685 37.3428 87.9783 37.8743C87.4945 38.0544 87.1451 38.3473 86.9032 38.7147C86.6344 39.1233 86.5 39.6184 86.5 40.2524V40.6223L83.409 39.2463V38.8746C83.409 37.8657 83.5702 37.0623 83.9465 36.5158C84.296 35.9576 85.3442 35.319 87.0913 34.5755L87.4139 34.3518C87.8977 33.9903 88.1396 33.4672 88.1396 32.8086C88.1396 31.9391 87.8708 31.1314 87.387 30.409C86.8763 29.673 86.1506 29.1009 85.2367 28.6784C84.0541 28.1299 83.2208 28.0874 82.7101 28.5937C82.2532 28.9928 82.0382 29.7707 82.0382 30.8882L78.974 29.4644C78.974 27.4869 79.5385 26.2032 80.7211 25.6397C81.8769 25.0655 83.4359 25.2405 85.4249 26.1719Z" fill="url(#paint6_linear_2_10565)"/>
<mask id="mask1_2_10565" style="mask-type:alpha" maskUnits="userSpaceOnUse" x="51" y="18" width="24" height="34">
<path fill-rule="evenodd" clip-rule="evenodd" d="M60.859 18.8717C61.0182 18.8643 61.178 18.8606 61.3386 18.8606C68.6178 18.8606 74.5188 26.5161 74.5188 35.9597C74.5188 43.2289 71.0223 49.4388 66.0921 51.9129C65.8338 51.9318 65.5736 51.9414 65.3116 51.9414C57.9321 51.9414 51.9498 44.3219 51.9498 34.9227C51.9498 27.512 55.6686 21.2075 60.859 18.8717Z" fill="#D8D8D8"/>
</mask>
<g mask="url(#mask1_2_10565)">
<path fill-rule="evenodd" clip-rule="evenodd" d="M59.984 1.23463C59.984 -0.186239 61.3823 -1.18497 62.7264 -0.72399L111.688 16.0693C113.362 16.6433 114.486 18.2172 114.486 19.9865V66.9183L59.984 46.2825V1.23463ZM62.2553 6.63262L62.2601 44.0472L112.333 62.9917L112.323 23.9862L62.2553 6.63262Z" fill="url(#paint7_linear_2_10565)"/>
<path fill-rule="evenodd" clip-rule="evenodd" d="M60.859 18.8717C61.0182 18.8643 61.178 18.8606 61.3386 18.8606C68.6178 18.8606 74.5188 26.5161 74.5188 35.9597C74.5188 43.2289 71.0223 49.4388 66.0921 51.9129C65.8338 51.9318 65.5736 51.9414 65.3116 51.9414C57.9321 51.9414 51.9498 44.3219 51.9498 34.9227C51.9498 27.512 55.6686 21.2075 60.859 18.8717Z" fill="url(#paint8_linear_2_10565)"/>
</g>
<path fill-rule="evenodd" clip-rule="evenodd" d="M65.8539 51.9276C65.674 51.9368 65.4931 51.9414 65.3114 51.9414C57.9319 51.9414 51.9497 44.3218 51.9497 34.9226C51.9497 27.3997 55.7819 21.0168 61.0956 18.7683C53.9491 18.856 48.1765 26.4944 48.1765 35.904C48.1765 45.3683 54.0163 53.0405 61.22 53.0405C62.852 53.0405 64.414 52.6468 65.8539 51.9276Z" fill="url(#paint9_linear_2_10565)"/>
<path fill-rule="evenodd" clip-rule="evenodd" d="M63.8111 54.5121C72.5215 54.5121 79.5826 46.0104 79.5826 35.5231C79.5826 25.0358 72.5215 16.5342 63.8111 16.5342C55.1007 16.5342 48.0395 25.0358 48.0395 35.5231C48.0395 46.0104 55.1007 54.5121 63.8111 54.5121ZM61.3386 53.0586C68.6179 53.0586 74.5189 45.4031 74.5189 35.9595C74.5189 26.516 68.6179 18.8605 61.3386 18.8605C54.0594 18.8605 48.1584 26.516 48.1584 35.9595C48.1584 45.4031 54.0594 53.0586 61.3386 53.0586Z" fill="url(#paint10_linear_2_10565)"/>
<path fill-rule="evenodd" clip-rule="evenodd" d="M61.2627 54.2267C69.0048 54.2267 75.2809 45.9961 75.2809 35.843C75.2809 25.6899 69.0048 17.4592 61.2627 17.4592C53.5207 17.4592 47.2445 25.6899 47.2445 35.843C47.2445 45.9961 53.5207 54.2267 61.2627 54.2267ZM61.2205 53.0405C68.424 53.0405 74.2636 45.3906 74.2636 35.9539C74.2636 26.5173 68.424 18.8674 61.2205 18.8674C54.0169 18.8674 48.1773 26.5173 48.1773 35.9539C48.1773 45.3906 54.0169 53.0405 61.2205 53.0405Z" fill="url(#paint11_linear_2_10565)"/>
<path fill-rule="evenodd" clip-rule="evenodd" d="M73.4446 49.6653C74.1799 50.5875 76.1241 52.6803 76.1241 52.6803L78.6733 50.4968C78.6733 50.4968 76.8325 48.3639 76.0589 47.5353C74.6208 47.4972 73.6821 48.4707 73.4446 49.6653Z" fill="url(#paint12_linear_2_10565)"/>
<path fill-rule="evenodd" clip-rule="evenodd" d="M75.9663 52.4951C76.0589 53.3435 76.3581 55.6208 76.3581 55.6208L91.2364 72.3084L96.3336 67.6961L81.6965 51.0675C81.6965 51.0675 79.8259 50.6066 78.504 50.3123C77.0769 50.6678 76.4745 51.2379 75.9663 52.4951Z" fill="url(#paint13_linear_2_10565)"/>
<path fill-rule="evenodd" clip-rule="evenodd" d="M94.3052 69.5273L96.3336 67.6961L81.6965 51.0675C81.6965 51.0675 79.8259 50.6066 78.5041 50.3123C78.0561 50.4239 77.6559 50.5585 77.2861 50.7819C77.3516 50.8549 94.3052 69.5273 94.3052 69.5273Z" fill="url(#paint14_linear_2_10565)"/>
<path fill-rule="evenodd" clip-rule="evenodd" d="M81.6965 51.0675C80.4494 50.7603 79.3853 50.5085 78.504 50.3123C77.0769 50.6678 76.4745 51.2379 75.9663 52.4951C76.028 53.0607 76.1586 54.1026 76.3581 55.6208C76.8446 53.0607 79.2884 50.9795 81.6965 51.0675Z" fill="url(#paint15_linear_2_10565)"/>
<ellipse cx="93.869" cy="70.0915" rx="2.73952" ry="2.54289" fill="url(#paint16_linear_2_10565)"/>
<path d="M60.6614 92.8537C59.8794 92.9217 59.0464 92.9897 58.1624 93.0577V91.7147H60.8144V90.7117H58.1624V89.5897H57.0404V90.7117H55.0684C55.4934 90.1507 55.9014 89.5047 56.2754 88.7907H60.9334V87.7027H56.7854C56.9214 87.3967 57.0404 87.0907 57.1594 86.7847L55.9354 86.5807C55.7994 86.9547 55.6464 87.3287 55.4934 87.7027H53.1304V88.7907H54.9494C54.5414 89.5557 54.0824 90.2017 53.6064 90.7457L53.8784 91.7147H57.0404V93.1257C55.8844 93.1937 54.6434 93.2447 53.3514 93.3127L53.5044 94.4007C54.7284 94.3327 55.9184 94.2477 57.0404 94.1797V95.4037H58.1624V94.0947C59.0294 94.0097 59.8624 93.9247 60.6614 93.8567V92.8537ZM63.0414 91.7317H65.2514V95.4207H66.4244V91.7317H68.2264V90.6607H63.1264V88.8927C64.9624 88.6887 66.4924 88.2977 67.7504 87.7537L66.9684 86.8357C65.7784 87.3797 64.1124 87.7537 62.0044 87.9577V90.6267C61.9704 92.1567 61.5624 93.4657 60.8144 94.5707L61.6644 95.4547C62.3954 94.4007 62.8544 93.1597 63.0414 91.7317ZM66.3224 95.9137H55.1704V102.306H56.4284V101.643H65.0644V102.306H66.3224V95.9137ZM56.4284 100.589V99.2627H65.0644V100.589H56.4284ZM56.4284 98.2767V96.9507H65.0644V98.2767H56.4284ZM71.4054 87.6347V88.8247H76.2844V89.9637C76.2674 91.0177 76.1994 92.0207 76.0634 92.9387H70.2664V94.1117H75.8594C75.6384 95.1827 75.3324 96.1517 74.9244 97.0017C74.0064 98.7357 72.3914 100.113 70.0454 101.167L70.7254 102.255C73.0884 101.235 74.7884 99.7897 75.8424 97.9537C76.4204 96.8657 76.8454 95.5907 77.1174 94.1117H78.4944V100.3C78.4944 101.456 79.0384 102.034 80.1604 102.034H82.9144C83.6284 102.034 84.1384 101.881 84.4614 101.575C84.8354 101.201 85.0904 100.198 85.2264 98.5317L84.0704 98.1577C83.9854 99.4837 83.8324 100.266 83.5944 100.538C83.4074 100.759 83.1014 100.878 82.6934 100.878H80.5344C79.9904 100.878 79.7184 100.589 79.7184 100.045V94.1117H84.9884V92.9387H77.3044C77.4234 92.0207 77.4914 91.0177 77.5254 89.9637V88.8247H83.6114V87.6347H71.4054ZM97.3304 90.4907H99.8464C99.7784 92.7857 99.4214 94.7917 98.7584 96.5087C98.0784 95.0807 97.5344 93.3637 97.1094 91.3747L97.3304 90.4907ZM98.1974 97.7327C97.4154 99.1777 96.3784 100.351 95.0524 101.269L95.6814 102.289C96.9564 101.371 98.0104 100.232 98.8264 98.8717C99.6764 100.3 100.696 101.456 101.886 102.306L102.549 101.303C101.325 100.47 100.288 99.2967 99.4044 97.7667C100.356 95.7607 100.883 93.3297 100.968 90.4907H102.073V89.3177H97.5854C97.7214 88.5697 97.8574 87.7537 97.9594 86.8867L96.7694 86.6827C96.4294 89.9127 95.7494 92.4797 94.7464 94.3837L95.5114 95.3187C95.8684 94.7067 96.2084 94.0097 96.5144 93.2277C96.9734 94.9277 97.5344 96.4237 98.1974 97.7327ZM90.1394 94.6217C90.0204 94.9617 89.8844 95.3187 89.7314 95.6927H87.2494V96.7637H89.2554C88.9154 97.4437 88.5244 98.1407 88.0824 98.8887C88.9154 99.1947 89.6974 99.5177 90.4454 99.8407C89.4594 100.402 88.2524 100.861 86.8584 101.235L87.4364 102.255C89.1364 101.779 90.5474 101.15 91.6694 100.368C92.6724 100.81 93.5394 101.269 94.2874 101.711L94.9504 100.759C94.2024 100.351 93.4204 99.9767 92.6044 99.6027C93.4884 98.7867 94.1174 97.8177 94.4914 96.6957V95.6927H90.9384C91.0404 95.3867 91.1594 95.0807 91.2784 94.7577L90.1394 94.6217ZM91.4824 99.1267C90.8704 98.8717 90.2244 98.6337 89.5444 98.3957C89.8844 97.8857 90.1904 97.3417 90.4624 96.7637H93.3864C92.9784 97.6477 92.3324 98.4467 91.4824 99.1267ZM88.5924 87.0397L87.6234 87.3627C88.0314 88.0087 88.4054 88.7397 88.7624 89.5727L89.6464 89.1647C89.3404 88.4167 89.0004 87.7027 88.5924 87.0397ZM93.7604 86.9887C93.4544 87.7027 93.0124 88.4167 92.4684 89.1477L93.3354 89.5897C93.8794 88.8757 94.3044 88.1447 94.6444 87.3967L93.7604 86.9887ZM87.2834 89.9807V91.0517H89.6974C89.1874 91.9867 88.2694 92.8367 86.9604 93.6017L87.5554 94.5877C89.0174 93.6017 90.0374 92.4457 90.5984 91.1027V94.3327H91.7374V92.1227C92.3494 92.5307 93.0804 93.0747 93.9304 93.7547L94.5594 92.8027C93.6074 92.2247 92.6554 91.6977 91.7374 91.2387V91.0517H94.8314V89.9807H91.7374V86.7337H90.5984V89.9807H87.2834ZM105.932 102.153C106.884 102.153 107.36 101.643 107.36 100.657V95.6927C107.887 95.4547 108.414 95.2167 108.941 94.9447V93.7377C108.431 94.0097 107.904 94.2647 107.36 94.5027V91.1537H108.992V89.9807H107.36V86.7677H106.17V89.9807H104.13V91.1537H106.17V94.9957C105.422 95.2677 104.64 95.5057 103.858 95.6927L104.164 96.8827C104.827 96.6787 105.49 96.4407 106.17 96.1857V100.351C106.17 100.827 105.949 101.082 105.524 101.082C105.116 101.082 104.674 101.048 104.232 100.997L104.487 102.153H105.932ZM111.015 94.6387H114.483V96.7297H111.644V102.306H112.783V101.473H117.39V102.306H118.529V96.7297H115.673V94.6387H119.311V93.5337H115.673V91.5277H118.869V87.3967H109.91V92.7177C109.893 96.2877 109.281 99.2117 108.074 101.456L109.026 102.306C110.148 100.096 110.811 97.5457 111.015 94.6387ZM114.483 91.5277V93.5337H111.083C111.083 93.2617 111.1 92.9897 111.1 92.7177V91.5277H114.483ZM112.783 100.385V97.8177H117.39V100.385H112.783ZM117.679 88.5357V90.4227H111.1V88.5357H117.679Z" fill="#868E97"/>
<defs>
<linearGradient id="paint0_linear_2_10565" x1="37.7111" y1="27.595" x2="37.7111" y2="61.2164" gradientUnits="userSpaceOnUse">
<stop stop-color="#F1F1F2"/>
<stop offset="1" stop-color="#F7F7F8" stop-opacity="0.01"/>
</linearGradient>
<linearGradient id="paint1_linear_2_10565" x1="127.86" y1="64.3999" x2="130.839" y2="41.8908" gradientUnits="userSpaceOnUse">
<stop stop-color="#808893" stop-opacity="0.8"/>
<stop offset="0.296005" stop-color="#C4CCD5"/>
<stop offset="0.378036" stop-color="#C9D0D9"/>
<stop offset="0.625293" stop-color="#C7CED8" stop-opacity="0.4"/>
<stop offset="0.831" stop-color="#C7CED7" stop-opacity="0.1"/>
<stop offset="1" stop-color="#E5ECF6" stop-opacity="0.01"/>
</linearGradient>
<linearGradient id="paint2_linear_2_10565" x1="116.071" y1="-5.27141" x2="50.3284" y2="-11.1179" gradientUnits="userSpaceOnUse">
<stop stop-color="#ACB6C1"/>
<stop offset="1" stop-color="#C3CBD5"/>
</linearGradient>
<linearGradient id="paint3_linear_2_10565" x1="8.07364" y1="16.6932" x2="32.1043" y2="65.8013" gradientUnits="userSpaceOnUse">
<stop stop-color="#F2F1F1"/>
<stop offset="1" stop-color="#E6E6E8" stop-opacity="0.05"/>
</linearGradient>
<linearGradient id="paint4_linear_2_10565" x1="114.359" y1="-3.66508" x2="51.8549" y2="-9.07108" gradientUnits="userSpaceOnUse">
<stop stop-color="#D3D8DD"/>
<stop offset="1" stop-color="#F1F7FC"/>
</linearGradient>
<linearGradient id="paint5_linear_2_10565" x1="120.64" y1="41.5303" x2="88.7262" y2="11.0853" gradientUnits="userSpaceOnUse">
<stop stop-color="#F9F9FA"/>
<stop offset="1" stop-color="#FEFEFF"/>
</linearGradient>
<linearGradient id="paint6_linear_2_10565" x1="91.7667" y1="29.6082" x2="80.0373" y2="25.8181" gradientUnits="userSpaceOnUse">
<stop stop-color="#B6BDC6"/>
<stop offset="1" stop-color="#DBE0E7"/>
</linearGradient>
<linearGradient id="paint7_linear_2_10565" x1="118.153" y1="-9.75859" x2="49.025" y2="-15.6806" gradientUnits="userSpaceOnUse">
<stop stop-color="#DBDDE0"/>
<stop offset="1" stop-color="#F2F3F5"/>
</linearGradient>
<linearGradient id="paint8_linear_2_10565" x1="72.1302" y1="25.7395" x2="58.6619" y2="43.0987" gradientUnits="userSpaceOnUse">
<stop stop-color="white"/>
<stop offset="1" stop-color="white" stop-opacity="0"/>
</linearGradient>
<linearGradient id="paint9_linear_2_10565" x1="67.2202" y1="47.457" x2="55.2227" y2="28.6879" gradientUnits="userSpaceOnUse">
<stop stop-color="#E1E5EA"/>
<stop offset="1" stop-color="#B2B9C1"/>
</linearGradient>
<linearGradient id="paint10_linear_2_10565" x1="81.7169" y1="30.3584" x2="67.2158" y2="31.0105" gradientUnits="userSpaceOnUse">
<stop stop-color="#A2AEBF"/>
<stop offset="1" stop-color="#C3CBD5"/>
</linearGradient>
<linearGradient id="paint11_linear_2_10565" x1="40.9451" y1="42.2647" x2="70.522" y2="57.0954" gradientUnits="userSpaceOnUse">
<stop stop-color="#F5FAFF"/>
<stop offset="1" stop-color="#E3EBF4"/>
</linearGradient>
<linearGradient id="paint12_linear_2_10565" x1="75.9686" y1="47.7328" x2="73.47" y2="50.0546" gradientUnits="userSpaceOnUse">
<stop stop-color="#E5ECF5"/>
<stop offset="1" stop-color="#F6FAFF"/>
</linearGradient>
<linearGradient id="paint13_linear_2_10565" x1="86.1127" y1="65.076" x2="90.7619" y2="61.7053" gradientUnits="userSpaceOnUse">
<stop stop-color="#E8F0F7"/>
<stop offset="1" stop-color="#BBC5D1"/>
</linearGradient>
<linearGradient id="paint14_linear_2_10565" x1="85.7461" y1="59.9401" x2="87.8491" y2="58.3185" gradientUnits="userSpaceOnUse">
<stop stop-color="#E4E6E8" stop-opacity="0.01"/>
<stop offset="1" stop-color="#ACB6C4"/>
</linearGradient>
<linearGradient id="paint15_linear_2_10565" x1="78.9589" y1="55.5452" x2="82.3936" y2="52.2209" gradientUnits="userSpaceOnUse">
<stop stop-color="#F2F8FD"/>
<stop offset="1" stop-color="#A6B0BE"/>
</linearGradient>
<linearGradient id="paint16_linear_2_10565" x1="94.551" y1="65.2003" x2="88.9843" y2="70.2866" gradientUnits="userSpaceOnUse">
<stop stop-color="#DDE2E7"/>
<stop offset="1" stop-color="#C8CED6"/>
</linearGradient>
</defs>
</svg>
