<svg width="17" height="16" viewBox="0 0 17 16" fill="none" xmlns="http://www.w3.org/2000/svg">
<g id="icon/16px/&#232;&#190;&#147;&#229;&#133;&#165;&#230;&#161;&#134;&#229;&#164;&#150;&#227;&#128;&#129;&#232;&#161;&#168;&#230;&#160;&#188;&#229;&#134;&#133;&#229;&#155;&#190;&#230;&#160;&#135;/&#230;&#143;&#144;&#231;&#164;&#186;">
<path id="&#231;&#159;&#169;&#229;&#189;&#162;" opacity="0.01" fill-rule="evenodd" clip-rule="evenodd" d="M0.166992 0H16.167V16H0.166992V0Z" fill="#D8D8D8"/>
<g id="&#231;&#188;&#150;&#231;&#187;&#132; 8">
<path id="Fill 1" d="M1.67009 8.20223L1.12009 8.21066L1.12035 8.2191L1.67009 8.20223ZM1.66699 8.00007L1.11706 7.99164L1.11693 8.00007L1.11706 8.00849L1.66699 8.00007ZM1.67009 7.7979L1.12029 7.78102L1.12016 7.78947L1.67009 7.7979ZM14.117 8.00007C14.117 11.2807 11.4478 13.95 8.16693 13.95V15.05C12.0553 15.05 15.217 11.8882 15.217 8.00007H14.117ZM8.16693 13.95C4.94827 13.95 2.3179 11.3805 2.21983 8.18535L1.12035 8.2191C1.23659 12.0064 4.35189 15.05 8.16693 15.05V13.95ZM2.22003 8.1938L2.21693 7.99164L1.11706 8.00849L1.12016 8.21065L2.22003 8.1938ZM2.21693 8.00849L2.22003 7.80633L1.12016 7.78947L1.11706 7.99164L2.21693 8.00849ZM2.21983 7.81477C2.3179 4.61949 4.94826 2.05 8.16693 2.05V0.95C4.35186 0.95 1.23659 3.99368 1.12035 7.78103L2.21983 7.81477ZM8.16693 2.05C11.4478 2.05 14.117 4.7193 14.117 8.00007H15.217C15.217 4.1118 12.0553 0.95 8.16693 0.95V2.05Z" fill="#999999"/>
<path id="&#239;&#188;&#159;" fill-rule="evenodd" clip-rule="evenodd" d="M8.74699 9.654V9.808H7.48199V9.654C7.48199 9.236 7.54799 8.873 7.70199 8.576C7.84499 8.279 8.27399 7.817 8.98899 7.179L9.12099 7.025C9.31899 6.783 9.41799 6.519 9.41799 6.244C9.41799 5.881 9.30799 5.595 9.10999 5.386C8.90099 5.177 8.60399 5.078 8.22999 5.078C7.74599 5.078 7.40499 5.221 7.19599 5.529C7.00899 5.782 6.92099 6.145 6.92099 6.607H5.66699C5.66699 5.793 5.89799 5.155 6.38199 4.693C6.85499 4.231 7.49299 4 8.30699 4C9.02199 4 9.60499 4.187 10.045 4.583C10.485 4.968 10.705 5.496 10.705 6.167C10.705 6.717 10.562 7.168 10.298 7.52C10.199 7.63 9.87999 7.927 9.35199 8.389C9.15399 8.554 9.01099 8.741 8.91199 8.939C8.80199 9.159 8.74699 9.39 8.74699 9.654ZM8.71399 11.777C8.54899 11.931 8.35099 12.008 8.10899 12.008C7.86699 12.008 7.66899 11.92 7.50399 11.766C7.33899 11.612 7.26199 11.414 7.26199 11.172C7.26199 10.93 7.33899 10.732 7.50399 10.578C7.66899 10.424 7.86699 10.347 8.10899 10.347C8.35099 10.347 8.55999 10.424 8.72499 10.578C8.87899 10.732 8.96699 10.93 8.96699 11.172C8.96699 11.414 8.87899 11.623 8.71399 11.777Z" fill="#999999"/>
</g>
</g>
</svg>
