<svg width="16" height="16" viewBox="0 0 16 16" fill="none" xmlns="http://www.w3.org/2000/svg">
<rect width="16" height="16" rx="2" fill="#FC561F"/>
<path d="M5.15234 9.66211V7.82227H13.8125V9.66211H12.2891V8.99414H6.67578V9.66211H5.15234ZM4.16797 2.04492L5.62109 2.36133C5.37109 3.23633 5.09766 4.07617 4.80078 4.88086V13.5527H3.34766V8.10352C3.10547 8.55664 2.85156 8.99023 2.58594 9.4043C2.48438 8.7793 2.33594 8.07617 2.14062 7.29492C2.90625 6.00586 3.58203 4.25586 4.16797 2.04492ZM6.24219 4.68164H12.8164V7.35352H6.24219V4.68164ZM13.7422 4.20117H5.51562V3.0293H8.69141C8.59766 2.81055 8.49609 2.57227 8.38672 2.31445L10.1094 2.02148C10.2344 2.34961 10.3594 2.68555 10.4844 3.0293H13.7422V4.20117ZM11.293 6.32227V5.71289H7.76562V6.32227H11.293ZM13.1094 9.84961V11.0449H10.625V11.9238C10.625 12.9004 10.2148 13.4121 9.39453 13.459C8.91797 13.5059 8.24609 13.5215 7.37891 13.5059C7.32422 13.1465 7.23047 12.666 7.09766 12.0645C7.50391 12.1035 7.97656 12.123 8.51562 12.123C8.89844 12.1465 9.08984 11.9355 9.08984 11.4902V11.0449H5.96094V9.84961H13.1094Z" fill="white"/>
</svg>
