<svg width="16" height="16" viewBox="0 0 16 16" fill="none" xmlns="http://www.w3.org/2000/svg">
<rect x="0.5" y="0.5" width="15" height="15" rx="1.5" stroke="#EE9F34"/>
<path d="M6.94531 7.18945H10.5312C10.0156 6.70508 9.45312 6.20898 8.84375 5.70117L9.66992 4.89258H8.62695C8.24414 5.52148 7.81641 6.14258 7.34375 6.75586C6.99219 6.46289 6.57812 6.14844 6.10156 5.8125V13.541H4.625V2.0918H6.10156V5.64258C7.05078 4.52148 7.83984 3.28711 8.46875 1.93945L9.96875 2.29102C9.80078 2.69336 9.61719 3.0918 9.41797 3.48633H13.7656V4.89258H10.0156C10.5781 5.29492 11.1641 5.74414 11.7734 6.24023L10.9004 7.18945H13.4375V13.4707H11.9844V12.9199H8.39844V13.4707H6.94531V7.18945ZM8.39844 11.5605H9.53516V8.54883H8.39844V11.5605ZM11.9844 8.54883H10.8477V11.5605H11.9844V8.54883ZM2.62109 3.20508H3.95703V12.4395H2.62109V3.20508Z" fill="#EE9F34"/>
</svg>
