<svg width="13" height="12" viewBox="0 0 13 12" fill="none" xmlns="http://www.w3.org/2000/svg">
<rect width="12" height="12" transform="translate(0.800049)" fill="white"/>
<path d="M6.79593 2.90044L8.51996 4.62454C8.85847 4.96317 9.40954 4.96317 9.74807 4.62452C9.913 4.45981 10.002 4.2406 10.002 4.01153C10.002 3.78209 9.9128 3.56101 9.74801 3.39632L7.47327 1.12159C7.21372 0.862035 6.82953 0.801372 6.51165 0.939773C6.31069 0.964038 6.11745 1.05829 5.9715 1.2205L3.81875 3.61126C3.49831 3.96703 3.52715 4.51735 3.88305 4.83769C4.05616 4.99378 4.27973 5.07119 4.50849 5.0592C4.73762 5.04719 4.95373 4.94654 5.10956 4.77335L6.79593 2.90044Z" fill="#FC561F"/>
<path d="M6.27511 1.00523C6.4213 0.898736 6.59808 0.839838 6.78455 0.839966C7.21986 0.839891 7.58147 1.16192 7.64355 1.58021L7.65297 1.70836L7.6529 10.5726C7.65307 11.0514 7.26507 11.4394 6.78464 11.441C6.34926 11.4411 5.9877 11.1191 5.92556 10.7007L5.91613 10.5725L5.91613 1.70848C5.91606 1.5221 5.97573 1.3444 6.08266 1.19771L6.17153 1.09386L6.27511 1.00523Z" fill="#FC561F"/>
</svg>
